# Blender 5.1.0
# www.blender.org
mtllib cone.mtl
o Cone
v 0.000000 -0.998177 -0.500000 1.0000 0.1804 0.9764
v 0.097545 -0.998177 -0.490393 1.0000 0.1804 0.9764
v 0.191342 -0.998177 -0.461940 1.0000 0.1804 0.9764
v 0.277785 -0.998177 -0.415735 1.0000 0.1804 0.9764
v 0.353553 -0.998177 -0.353553 1.0000 0.1804 0.9764
v 0.415735 -0.998177 -0.277785 1.0000 0.1804 0.9764
v 0.461940 -0.998177 -0.191342 1.0000 0.1804 0.9764
v 0.490393 -0.998177 -0.097545 1.0000 0.1804 0.9764
v 0.500000 -0.998177 0.000000 1.0000 0.1804 0.9764
v 0.490393 -0.998177 0.097545 1.0000 0.1804 0.9764
v 0.461940 -0.998177 0.191342 1.0000 0.1804 0.9764
v 0.415735 -0.998177 0.277785 1.0000 0.1804 0.9764
v 0.353553 -0.998177 0.353553 1.0000 0.1804 0.9764
v 0.277785 -0.998177 0.415735 1.0000 0.1804 0.9764
v 0.191342 -0.998177 0.461940 1.0000 0.1804 0.9764
v 0.097545 -0.998177 0.490393 1.0000 0.1804 0.9764
v 0.000000 -0.998177 0.500000 1.0000 0.1804 0.9764
v -0.097545 -0.998177 0.490393 1.0000 0.1804 0.9764
v -0.191342 -0.998177 0.461940 1.0000 0.1804 0.9764
v -0.277785 -0.998177 0.415735 1.0000 0.1804 0.9764
v -0.353553 -0.998177 0.353553 1.0000 0.1804 0.9764
v -0.415735 -0.998177 0.277785 1.0000 0.1804 0.9764
v -0.461940 -0.998177 0.191342 1.0000 0.1804 0.9764
v -0.490393 -0.998177 0.097545 1.0000 0.1804 0.9764
v -0.500000 -0.998177 0.000000 1.0000 0.1804 0.9764
v -0.490393 -0.998177 -0.097545 1.0000 0.1804 0.9764
v -0.461940 -0.998177 -0.191342 1.0000 0.1804 0.9764
v -0.415735 -0.998177 -0.277785 1.0000 0.1804 0.9764
v -0.353553 -0.998177 -0.353553 1.0000 0.1804 0.9764
v -0.277785 -0.998177 -0.415735 1.0000 0.1804 0.9764
v -0.191342 -0.998177 -0.461940 1.0000 0.1804 0.9764
v -0.097545 -0.998177 -0.490393 1.0000 0.1804 0.9764
v 0.000000 0.001823 -0.000000 1.0000 0.1804 0.9764
vn -0.0000 -0.5033 -0.8641
vn 0.1686 -0.5033 -0.8475
vn 0.3307 -0.5033 -0.7983
vn 0.4801 -0.5032 -0.7185
vn 0.6110 -0.5033 -0.6110
vn 0.7185 -0.5033 -0.4801
vn 0.7983 -0.5033 -0.3307
vn 0.8476 -0.5032 -0.1686
vn 0.8641 -0.5033 -0.0000
vn 0.8475 -0.5033 0.1686
vn 0.7983 -0.5033 0.3307
vn 0.7185 -0.5032 0.4801
vn 0.6110 -0.5033 0.6110
vn 0.4801 -0.5033 0.7185
vn 0.3307 -0.5033 0.7983
vn 0.1686 -0.5032 0.8475
vn -0.0000 -0.5033 0.8641
vn -0.1686 -0.5033 0.8475
vn -0.3307 -0.5033 0.7983
vn -0.4801 -0.5032 0.7185
vn -0.6110 -0.5033 0.6110
vn -0.7185 -0.5033 0.4801
vn -0.7983 -0.5033 0.3307
vn -0.8476 -0.5032 0.1686
vn -0.8641 -0.5033 -0.0000
vn -0.8475 -0.5033 -0.1686
vn -0.7983 -0.5033 -0.3307
vn -0.7185 -0.5032 -0.4801
vn -0.6110 -0.5033 -0.6110
vn -0.4801 -0.5033 -0.7185
vn -0.3307 -0.5033 -0.7983
vn -0.1686 -0.5032 -0.8475
vn -0.0000 1.0000 -0.0000
s 1
f 1//1 33//33 2//2
f 2//2 33//33 3//3
f 3//3 33//33 4//4
f 4//4 33//33 5//5
f 5//5 33//33 6//6
f 6//6 33//33 7//7
f 7//7 33//33 8//8
f 8//8 33//33 9//9
f 9//9 33//33 10//10
f 10//10 33//33 11//11
f 11//11 33//33 12//12
f 12//12 33//33 13//13
f 13//13 33//33 14//14
f 14//14 33//33 15//15
f 15//15 33//33 16//16
f 16//16 33//33 17//17
f 17//17 33//33 18//18
f 18//18 33//33 19//19
f 19//19 33//33 20//20
f 20//20 33//33 21//21
f 21//21 33//33 22//22
f 22//22 33//33 23//23
f 23//23 33//33 24//24
f 24//24 33//33 25//25
f 25//25 33//33 26//26
f 26//26 33//33 27//27
f 27//27 33//33 28//28
f 28//28 33//33 29//29
f 29//29 33//33 30//30
f 30//30 33//33 31//31
f 16//16 24//24 32//32
f 31//31 33//33 32//32
f 32//32 33//33 1//1
f 32//32 1//1 2//2
f 2//2 3//3 4//4
f 4//4 5//5 6//6
f 6//6 7//7 8//8
f 8//8 9//9 10//10
f 10//10 11//11 12//12
f 12//12 13//13 14//14
f 14//14 15//15 16//16
f 16//16 17//17 18//18
f 18//18 19//19 20//20
f 20//20 21//21 22//22
f 22//22 23//23 24//24
f 24//24 25//25 26//26
f 26//26 27//27 28//28
f 28//28 29//29 30//30
f 30//30 31//31 32//32
f 32//32 2//2 4//4
f 4//4 6//6 8//8
f 8//8 10//10 12//12
f 12//12 14//14 16//16
f 16//16 18//18 20//20
f 20//20 22//22 24//24
f 24//24 26//26 28//28
f 28//28 30//30 32//32
f 32//32 4//4 8//8
f 8//8 12//12 16//16
f 16//16 20//20 24//24
f 24//24 28//28 32//32
f 32//32 8//8 16//16
