# Blender 5.1.0
# www.blender.org
mtllib sheep.mtl
o Icosphere.003
v 0.417404 -0.039204 0.103037 0.1608 0.8862 0.1216
v 0.413709 -0.045726 0.131543 0.1608 0.8862 0.1216
v 0.444897 -0.033602 0.125438 0.1608 0.8862 0.1216
v 0.412658 -0.012469 0.139665 0.1608 0.8862 0.1216
v 0.434683 -0.008605 0.135177 0.1608 0.8862 0.1216
v 0.432303 -0.018589 0.100836 0.1608 0.8862 0.1216
v 0.414291 -0.010776 0.106043 0.1608 0.8862 0.1216
v 0.397417 -0.023131 0.121902 0.1608 0.8862 0.1216
v 0.434820 -0.036766 0.106729 0.1608 0.8862 0.1216
v 0.396800 -0.046177 0.123845 0.1608 0.8862 0.1216
v 0.401012 -0.051775 0.119456 0.1608 0.8862 0.1216
v 0.407357 -0.047651 0.126749 0.1608 0.8862 0.1216
v 0.401912 -0.061564 0.126684 0.1608 0.8862 0.1216
v 0.406008 -0.047724 0.134245 0.1608 0.8862 0.1216
v 0.406585 -0.057742 0.134942 0.1608 0.8862 0.1216
v 0.399220 -0.061209 0.131292 0.1608 0.8862 0.1216
v 0.396704 -0.047055 0.136722 0.1608 0.8862 0.1216
v 0.392507 -0.053971 0.134823 0.1608 0.8862 0.1216
v 0.391961 -0.047784 0.129105 0.1608 0.8862 0.1216
v 0.392514 -0.058296 0.124995 0.1608 0.8862 0.1216
v 0.399895 -0.043482 0.130459 0.1608 0.8862 0.1216
v 0.404938 -0.014805 0.049620 0.3019 0.2118 0.0627
v 0.404938 -0.023880 0.081662 0.3019 0.2118 0.0627
v 0.410508 -0.011228 0.051000 0.3019 0.2118 0.0627
v 0.410508 -0.020303 0.083042 0.3019 0.2118 0.0627
v 0.416613 -0.013941 0.049953 0.3019 0.2118 0.0627
v 0.416613 -0.023016 0.081995 0.3019 0.2118 0.0627
v 0.417148 -0.020230 0.047528 0.3019 0.2118 0.0627
v 0.417148 -0.029305 0.079570 0.3019 0.2118 0.0627
v 0.411577 -0.023807 0.046148 0.3019 0.2118 0.0627
v 0.411577 -0.032882 0.078190 0.3019 0.2118 0.0627
v 0.405472 -0.021094 0.047195 0.3019 0.2118 0.0627
v 0.405472 -0.030169 0.079237 0.3019 0.2118 0.0627
v 0.410508 -0.020303 0.083042 0.3019 0.2118 0.0627
v 0.404938 -0.023880 0.081662 0.3019 0.2118 0.0627
v 0.416613 -0.023016 0.081995 0.3019 0.2118 0.0627
v 0.417148 -0.029305 0.079570 0.3019 0.2118 0.0627
v 0.411577 -0.032882 0.078190 0.3019 0.2118 0.0627
v 0.405472 -0.030169 0.079237 0.3019 0.2118 0.0627
v 0.418350 -0.021592 0.126935 0.3019 0.2118 0.0627
v 0.414313 -0.024183 0.125936 0.3019 0.2118 0.0627
v 0.422773 -0.023557 0.126177 0.3019 0.2118 0.0627
v 0.423160 -0.028114 0.124420 0.3019 0.2118 0.0627
v 0.419124 -0.030706 0.123420 0.3019 0.2118 0.0627
v 0.414701 -0.028740 0.124178 0.3019 0.2118 0.0627
v 0.401516 -0.042934 0.113878 0.3019 0.2118 0.0627
v 0.398710 -0.044824 0.112728 0.3019 0.2118 0.0627
v 0.404788 -0.044367 0.113802 0.3019 0.2118 0.0627
v 0.405255 -0.047691 0.112575 0.3019 0.2118 0.0627
v 0.402449 -0.049581 0.111425 0.3019 0.2118 0.0627
v 0.399176 -0.048147 0.111501 0.3019 0.2118 0.0627
v 0.399203 -0.050667 0.130245 0.3019 0.2118 0.0627
v 0.397396 -0.051885 0.129504 0.3019 0.2118 0.0627
v 0.401311 -0.051591 0.130196 0.3019 0.2118 0.0627
v 0.401611 -0.053732 0.129406 0.3019 0.2118 0.0627
v 0.399804 -0.054949 0.128665 0.3019 0.2118 0.0627
v 0.397696 -0.054026 0.128714 0.3019 0.2118 0.0627
v 0.366793 0.165218 0.113600 0.1647 0.0980 0.0510
v 0.383652 0.117480 0.150638 0.1647 0.0980 0.0510
v 0.369780 0.156003 0.166135 0.1647 0.0980 0.0510
v 0.384552 0.150488 0.162861 0.1647 0.0980 0.0510
v 0.348861 0.171132 0.080804 0.1647 0.0980 0.0510
v 0.365749 0.188749 0.072309 0.1647 0.0980 0.0510
v 0.389940 0.183658 0.075646 0.1647 0.0980 0.0510
v 0.397472 0.160253 0.073650 0.1647 0.0980 0.0510
v 0.364242 0.139920 0.074470 0.1647 0.0980 0.0510
v 0.346441 0.163913 0.074943 0.1647 0.0980 0.0510
v 0.394750 0.144967 0.077549 0.1647 0.0980 0.0510
v 0.361966 0.114850 0.140542 0.1647 0.0980 0.0510
v 0.380568 0.119655 0.112269 0.1647 0.0980 0.0510
v 0.390968 0.160520 0.109417 0.1647 0.0980 0.0510
v 0.394555 0.129366 0.137011 0.1647 0.0980 0.0510
v 0.374188 0.152738 0.153718 0.1647 0.0980 0.0510
v 0.356593 0.133007 0.154117 0.1647 0.0980 0.0510
v 0.366793 0.165218 -0.126241 0.1647 0.0980 0.0510
v 0.383652 0.117480 -0.163278 0.1647 0.0980 0.0510
v 0.369780 0.156003 -0.178775 0.1647 0.0980 0.0510
v 0.384552 0.150488 -0.175501 0.1647 0.0980 0.0510
v 0.348861 0.171132 -0.093444 0.1647 0.0980 0.0510
v 0.365749 0.188749 -0.084949 0.1647 0.0980 0.0510
v 0.389940 0.183658 -0.088287 0.1647 0.0980 0.0510
v 0.397472 0.160253 -0.086291 0.1647 0.0980 0.0510
v 0.364242 0.139920 -0.087111 0.1647 0.0980 0.0510
v 0.346441 0.163913 -0.087584 0.1647 0.0980 0.0510
v 0.394750 0.144967 -0.090190 0.1647 0.0980 0.0510
v 0.361966 0.114850 -0.153182 0.1647 0.0980 0.0510
v 0.380568 0.119655 -0.124910 0.1647 0.0980 0.0510
v 0.390967 0.160520 -0.122057 0.1647 0.0980 0.0510
v 0.394555 0.129366 -0.149652 0.1647 0.0980 0.0510
v 0.374188 0.152738 -0.166359 0.1647 0.0980 0.0510
v 0.356593 0.133007 -0.166758 0.1647 0.0980 0.0510
v 0.334466 -0.076721 -0.006320 0.1647 0.0980 0.0510
v 0.399727 -0.008102 -0.096146 0.1647 0.0980 0.0510
v 0.440062 -0.008102 0.027989 0.1647 0.0980 0.0510
v 0.334466 -0.008101 0.088185 0.1647 0.0980 0.0510
v 0.440062 0.198000 -0.040630 0.1647 0.0980 0.0510
v 0.399727 0.198000 0.083505 0.1647 0.0980 0.0510
v 0.304129 0.197999 -0.100826 0.1647 0.0980 0.0510
v 0.246246 0.231569 -0.006320 0.1647 0.0980 0.0510
v 0.396533 -0.058182 0.013846 0.1647 0.0980 0.0510
v 0.372825 -0.058182 -0.059118 0.1647 0.0980 0.0510
v 0.434893 -0.017849 -0.038952 0.1647 0.0980 0.0510
v 0.334466 -0.017848 -0.096200 0.1647 0.0980 0.0510
v 0.334466 -0.058182 0.058942 0.1647 0.0980 0.0510
v 0.396533 -0.017848 0.079108 0.1647 0.0980 0.0510
v 0.372825 0.166696 -0.106809 0.1647 0.0980 0.0510
v 0.458602 0.166696 -0.006320 0.1647 0.0980 0.0510
v 0.434894 0.166696 -0.079285 0.1647 0.0980 0.0510
v 0.372825 0.166696 0.094169 0.1647 0.0980 0.0510
v 0.434894 0.166696 0.066645 0.1647 0.0980 0.0510
v 0.352732 0.209775 -0.091749 0.1647 0.0980 0.0510
v 0.434893 0.209775 0.026311 0.1647 0.0980 0.0510
v 0.304129 0.203622 0.083559 0.1647 0.0980 0.0510
v 0.352732 0.246087 -0.026487 0.1647 0.0980 0.0510
v 0.246246 0.227625 -0.071582 0.1647 0.0980 0.0510
v 0.329024 0.227625 0.046477 0.1647 0.0980 0.0510
v 0.438698 0.139785 0.027680 0.1647 0.0980 0.0510
v 0.430726 0.132227 0.022332 0.1647 0.0980 0.0510
v 0.430673 0.125709 0.022454 0.1647 0.0980 0.0510
v 0.435570 0.131389 0.019097 0.1647 0.0980 0.0510
v 0.434947 0.125709 0.017936 0.1647 0.0980 0.0510
v 0.445118 0.134920 0.017805 0.1647 0.0980 0.0510
v 0.454947 0.125709 0.019378 0.1647 0.0980 0.0510
v 0.446552 0.140674 0.026499 0.1647 0.0980 0.0510
v 0.456100 0.134726 0.027308 0.1647 0.0980 0.0510
v 0.459342 0.125709 0.030736 0.1647 0.0980 0.0510
v 0.454915 0.135213 0.037142 0.1647 0.0980 0.0510
v 0.452183 0.125709 0.045071 0.1647 0.0980 0.0510
v 0.441684 0.136686 0.041911 0.1647 0.0980 0.0510
v 0.440739 0.125709 0.046156 0.1647 0.0980 0.0510
v 0.437686 0.136422 0.040113 0.1647 0.0980 0.0510
v 0.435206 0.125709 0.043920 0.1647 0.0980 0.0510
v 0.438776 0.139785 0.034277 0.1647 0.0980 0.0510
v 0.430876 0.125709 0.039691 0.1647 0.0980 0.0510
v 0.437664 0.139618 0.030991 0.1647 0.0980 0.0510
v 0.428494 0.125709 0.034126 0.1647 0.0980 0.0510
v 0.440452 0.140884 0.036150 0.1647 0.0980 0.0510
v 0.428422 0.125709 0.028073 0.1647 0.0980 0.0510
v 0.439209 0.114025 0.028013 1.0000 1.0000 1.0000
v 0.432055 0.120807 0.023214 1.0000 1.0000 1.0000
v 0.432008 0.126656 0.023323 1.0000 1.0000 1.0000
v 0.436402 0.121559 0.020311 1.0000 1.0000 1.0000
v 0.435843 0.126656 0.019269 1.0000 1.0000 1.0000
v 0.444969 0.118391 0.019152 1.0000 1.0000 1.0000
v 0.453789 0.126656 0.020564 1.0000 1.0000 1.0000
v 0.446257 0.113227 0.026953 1.0000 1.0000 1.0000
v 0.454823 0.118565 0.027679 1.0000 1.0000 1.0000
v 0.457733 0.126656 0.030755 1.0000 1.0000 1.0000
v 0.453760 0.118127 0.036503 1.0000 1.0000 1.0000
v 0.451309 0.126656 0.043618 1.0000 1.0000 1.0000
v 0.441888 0.116806 0.040782 1.0000 1.0000 1.0000
v 0.441040 0.126656 0.044591 1.0000 1.0000 1.0000
v 0.438301 0.117042 0.039169 1.0000 1.0000 1.0000
v 0.436076 0.126656 0.042585 1.0000 1.0000 1.0000
v 0.439279 0.114025 0.033932 1.0000 1.0000 1.0000
v 0.432190 0.126656 0.038790 1.0000 1.0000 1.0000
v 0.438282 0.114175 0.030984 1.0000 1.0000 1.0000
v 0.430052 0.126656 0.033797 1.0000 1.0000 1.0000
v 0.440782 0.113039 0.035613 1.0000 1.0000 1.0000
v 0.429989 0.126656 0.028365 1.0000 1.0000 1.0000
v 0.454306 0.122610 0.024121 0.1647 0.0980 0.0510
v 0.455761 0.126656 0.025659 1.0000 1.0000 1.0000
v 0.455747 0.122392 0.033629 1.0000 1.0000 1.0000
v 0.454292 0.118346 0.032091 1.0000 1.0000 1.0000
v 0.456278 0.122610 0.029217 0.1647 0.0980 0.0510
v 0.454048 0.124633 0.022342 1.0000 1.0000 1.0000
v 0.454775 0.126656 0.023111 1.0000 1.0000 1.0000
v 0.456740 0.124524 0.032192 1.0000 1.0000 1.0000
v 0.455551 0.120588 0.028448 0.1647 0.0980 0.0510
v 0.454565 0.120588 0.025900 0.1647 0.0980 0.0510
v 0.456747 0.126656 0.028207 1.0000 1.0000 1.0000
v 0.457006 0.124633 0.029986 0.1647 0.0980 0.0510
v 0.456012 0.122501 0.031423 0.1647 0.0980 0.0510
v 0.456020 0.124633 0.027438 0.1647 0.0980 0.0510
v 0.455034 0.124633 0.024890 0.1647 0.0980 0.0510
v 0.455292 0.122610 0.026669 0.1647 0.0980 0.0510
v 0.454558 0.118455 0.029885 1.0000 1.0000 1.0000
v 0.455187 0.119576 0.028064 0.1647 0.0980 0.0510
v 0.455285 0.120478 0.030654 0.1647 0.0980 0.0510
v 0.455914 0.121599 0.028833 0.1647 0.0980 0.0510
v 0.455236 0.120027 0.029359 0.1647 0.0980 0.0510
v 0.455879 0.122446 0.032526 1.0000 1.0000 1.0000
v 0.454788 0.119412 0.031372 0.1647 0.0980 0.0510
v 0.455019 0.120369 0.032860 1.0000 1.0000 1.0000
v 0.456145 0.122556 0.030320 0.1647 0.0980 0.0510
v 0.455782 0.121544 0.029935 0.1647 0.0980 0.0510
v 0.456642 0.123622 0.029602 0.1647 0.0980 0.0510
v 0.456149 0.123622 0.028328 0.1647 0.0980 0.0510
v 0.454670 0.123622 0.024506 0.1647 0.0980 0.0510
v 0.454799 0.122610 0.025395 0.1647 0.0980 0.0510
v 0.455733 0.121093 0.028640 0.1647 0.0980 0.0510
v 0.456079 0.122528 0.030871 0.1647 0.0980 0.0510
v 0.455890 0.125644 0.026549 0.1647 0.0980 0.0510
v 0.455397 0.125644 0.025275 0.1647 0.0980 0.0510
v 0.455785 0.122610 0.027943 0.1647 0.0980 0.0510
v 0.455421 0.121599 0.027559 0.1647 0.0980 0.0510
v 0.454928 0.121599 0.026285 0.1647 0.0980 0.0510
v 0.455058 0.120587 0.027174 0.1647 0.0980 0.0510
v 0.455656 0.123622 0.027054 0.1647 0.0980 0.0510
v 0.455527 0.124633 0.026164 0.1647 0.0980 0.0510
v 0.455163 0.123622 0.025780 0.1647 0.0980 0.0510
v 0.456876 0.125644 0.029097 0.1647 0.0980 0.0510
v 0.456383 0.125644 0.027823 0.1647 0.0980 0.0510
v 0.456513 0.124633 0.028712 1.0000 1.0000 1.0000
v 0.456509 0.123567 0.030705 0.1647 0.0980 0.0510
v 0.456096 0.122105 0.029025 0.1647 0.0980 0.0510
v 0.456212 0.122583 0.029769 0.1647 0.0980 0.0510
v 0.455759 0.121852 0.028292 0.1647 0.0980 0.0510
v 0.456360 0.123075 0.030237 0.1647 0.0980 0.0510
v 0.438150 0.112543 -0.045808 1.0000 1.0000 1.0000
v 0.429272 0.120152 -0.049628 1.0000 1.0000 1.0000
v 0.429242 0.126715 -0.049498 1.0000 1.0000 1.0000
v 0.433469 0.120996 -0.053725 1.0000 1.0000 1.0000
v 0.432637 0.126715 -0.054759 1.0000 1.0000 1.0000
v 0.442679 0.117441 -0.056768 1.0000 1.0000 1.0000
v 0.452698 0.126715 -0.057028 1.0000 1.0000 1.0000
v 0.445706 0.111647 -0.048428 1.0000 1.0000 1.0000
v 0.455304 0.117637 -0.049392 1.0000 1.0000 1.0000
v 0.459147 0.126715 -0.046599 1.0000 1.0000 1.0000
v 0.455949 0.117146 -0.039441 1.0000 1.0000 1.0000
v 0.454711 0.126715 -0.031088 1.0000 1.0000 1.0000
v 0.443735 0.115663 -0.032276 1.0000 1.0000 1.0000
v 0.443584 0.126715 -0.027899 1.0000 1.0000 1.0000
v 0.439446 0.115929 -0.033316 1.0000 1.0000 1.0000
v 0.437695 0.126715 -0.029090 1.0000 1.0000 1.0000
v 0.439446 0.112543 -0.039294 1.0000 1.0000 1.0000
v 0.432628 0.126715 -0.032476 1.0000 1.0000 1.0000
v 0.437739 0.112711 -0.042340 1.0000 1.0000 1.0000
v 0.429242 0.126715 -0.037543 1.0000 1.0000 1.0000
v 0.441451 0.111436 -0.037750 1.0000 1.0000 1.0000
v 0.428053 0.126715 -0.043521 1.0000 1.0000 1.0000
v 0.454001 0.122176 -0.053210 0.1647 0.0980 0.0510
v 0.455922 0.126715 -0.051813 1.0000 1.0000 1.0000
v 0.457548 0.121930 -0.043020 1.0000 1.0000 1.0000
v 0.455627 0.117391 -0.044416 1.0000 1.0000 1.0000
v 0.457226 0.122176 -0.047995 0.1647 0.0980 0.0510
v 0.453350 0.124445 -0.055119 1.0000 1.0000 1.0000
v 0.454310 0.126715 -0.054420 1.0000 1.0000 1.0000
v 0.458347 0.124323 -0.044809 1.0000 1.0000 1.0000
v 0.456265 0.119906 -0.048694 0.1647 0.0980 0.0510
v 0.454653 0.119906 -0.051301 0.1647 0.0980 0.0510
v 0.457535 0.126715 -0.049206 1.0000 1.0000 1.0000
v 0.458186 0.124445 -0.047297 0.1647 0.0980 0.0510
v 0.457387 0.122053 -0.045508 0.1647 0.0980 0.0510
v 0.456574 0.124445 -0.049904 0.1647 0.0980 0.0510
v 0.454962 0.124445 -0.052511 0.1647 0.0980 0.0510
v 0.455613 0.122176 -0.050603 0.1647 0.0980 0.0510
v 0.455465 0.117514 -0.046904 1.0000 1.0000 1.0000
v 0.455785 0.118771 -0.049043 1.0000 1.0000 1.0000
v 0.456426 0.119783 -0.046206 0.1647 0.0980 0.0510
v 0.456745 0.121041 -0.048345 0.1647 0.0980 0.0510
v 0.456105 0.119277 -0.047625 0.1647 0.0980 0.0510
v 0.457467 0.121992 -0.044264 1.0000 1.0000 1.0000
v 0.456026 0.118587 -0.045311 1.0000 1.0000 1.0000
v 0.456587 0.119661 -0.043718 1.0000 1.0000 1.0000
v 0.457306 0.122114 -0.046752 0.1647 0.0980 0.0510
v 0.456826 0.120980 -0.047101 0.1647 0.0980 0.0510
v 0.457706 0.123311 -0.047646 0.1647 0.0980 0.0510
v 0.456900 0.123311 -0.048950 0.1647 0.0980 0.0510
v 0.454481 0.123311 -0.052861 0.1647 0.0980 0.0510
v 0.454807 0.122176 -0.051906 0.1647 0.0980 0.0510
v 0.456505 0.120474 -0.048519 0.1647 0.0980 0.0510
v 0.457346 0.122084 -0.046130 0.1647 0.0980 0.0510
v 0.456248 0.125580 -0.050859 0.1647 0.0980 0.0510
v 0.455442 0.125580 -0.052162 0.1647 0.0980 0.0510
v 0.456420 0.122176 -0.049299 0.1647 0.0980 0.0510
v 0.455939 0.121041 -0.049648 0.1647 0.0980 0.0510
v 0.455133 0.121041 -0.050952 0.1647 0.0980 0.0510
v 0.455459 0.119906 -0.049998 0.1647 0.0980 0.0510
v 0.456094 0.123311 -0.050253 0.1647 0.0980 0.0510
v 0.455768 0.124445 -0.051208 0.1647 0.0980 0.0510
v 0.455288 0.123311 -0.051557 0.1647 0.0980 0.0510
v 0.457861 0.125580 -0.048251 0.1647 0.0980 0.0510
v 0.457054 0.125580 -0.049555 0.1647 0.0980 0.0510
v 0.457380 0.124445 -0.048601 0.1647 0.0980 0.0510
v 0.457787 0.123249 -0.046402 0.1647 0.0980 0.0510
v 0.456985 0.121608 -0.048170 0.1647 0.0980 0.0510
v 0.457266 0.122145 -0.047374 0.1647 0.0980 0.0510
v 0.456462 0.121325 -0.048909 0.1647 0.0980 0.0510
v 0.457526 0.122697 -0.046888 0.1647 0.0980 0.0510
v 0.437518 0.141447 -0.046070 0.1647 0.0980 0.0510
v 0.427623 0.132967 -0.050328 0.1647 0.0980 0.0510
v 0.427590 0.125652 -0.050182 0.1647 0.0980 0.0510
v 0.432301 0.132026 -0.054893 0.1647 0.0980 0.0510
v 0.431374 0.125652 -0.056045 0.1647 0.0980 0.0510
v 0.442565 0.135988 -0.058285 0.1647 0.0980 0.0510
v 0.453731 0.125652 -0.058573 0.1647 0.0980 0.0510
v 0.445938 0.142445 -0.048990 0.1647 0.0980 0.0510
v 0.456636 0.135770 -0.050064 0.1647 0.0980 0.0510
v 0.460918 0.125652 -0.046951 0.1647 0.0980 0.0510
v 0.457354 0.136317 -0.038974 0.1647 0.0980 0.0510
v 0.455974 0.125652 -0.029665 0.1647 0.0980 0.0510
v 0.443743 0.137969 -0.030989 0.1647 0.0980 0.0510
v 0.443574 0.125652 -0.026111 0.1647 0.0980 0.0510
v 0.438963 0.137674 -0.032148 0.1647 0.0980 0.0510
v 0.437011 0.125652 -0.027438 0.1647 0.0980 0.0510
v 0.438962 0.141447 -0.038810 0.1647 0.0980 0.0510
v 0.431364 0.125652 -0.031212 0.1647 0.0980 0.0510
v 0.437060 0.141259 -0.042205 0.1647 0.0980 0.0510
v 0.427590 0.125652 -0.036859 0.1647 0.0980 0.0510
v 0.441197 0.142680 -0.037089 0.1647 0.0980 0.0510
v 0.426265 0.125652 -0.043521 0.1647 0.0980 0.0510
v -0.166254 -0.325995 0.100319 0.1647 0.0980 0.0510
v -0.151348 -0.315254 0.139531 0.1647 0.0980 0.0510
v -0.158823 0.047480 0.081524 0.1647 0.0980 0.0510
v -0.189511 0.047477 0.128945 0.1647 0.0980 0.0510
v -0.217421 0.047474 0.074392 0.1647 0.0980 0.0510
v -0.203767 -0.358660 0.173289 0.1647 0.0980 0.0510
v -0.228010 -0.358668 0.138057 0.1647 0.0980 0.0510
v -0.203775 -0.358662 0.102545 0.1647 0.0980 0.0510
v -0.125652 -0.326175 0.153754 0.1647 0.0980 0.0510
v -0.180066 -0.333984 0.175038 0.1647 0.0980 0.0510
v -0.121140 -0.358955 0.117071 0.1647 0.0980 0.0510
v -0.118196 -0.358663 0.156710 0.1647 0.0980 0.0510
v 0.197346 -0.326823 0.100210 0.1647 0.0980 0.0510
v 0.173724 0.047477 0.077500 0.1647 0.0980 0.0510
v 0.213472 -0.329950 0.138144 0.1647 0.0980 0.0510
v 0.205097 0.047480 0.116133 0.1647 0.0980 0.0510
v 0.151795 0.047473 0.124658 0.1647 0.0980 0.0510
v 0.162168 -0.358660 0.173289 0.1647 0.0980 0.0510
v 0.137924 -0.358668 0.138057 0.1647 0.0980 0.0510
v 0.162160 -0.358662 0.102545 0.1647 0.0980 0.0510
v 0.244149 -0.328624 0.146626 0.1647 0.0980 0.0510
v 0.188005 -0.330803 0.174346 0.1647 0.0980 0.0510
v 0.244795 -0.358955 0.117071 0.1647 0.0980 0.0510
v 0.247738 -0.358663 0.156710 0.1647 0.0980 0.0510
v 0.193040 -0.328425 -0.189877 0.1647 0.0980 0.0510
v 0.164128 0.047489 -0.147232 0.1647 0.0980 0.0510
v 0.214825 -0.310309 -0.151865 0.1647 0.0980 0.0510
v 0.204168 0.047481 -0.131907 0.1647 0.0980 0.0510
v 0.175126 0.047480 -0.087040 0.1647 0.0980 0.0510
v 0.145742 0.047490 -0.119479 0.1647 0.0980 0.0510
v 0.151012 -0.358659 -0.120925 0.1647 0.0980 0.0510
v 0.149982 -0.358663 -0.182524 0.1647 0.0980 0.0510
v 0.246572 -0.319376 -0.151865 0.1647 0.0980 0.0510
v 0.194316 -0.328358 -0.114433 0.1647 0.0980 0.0510
v 0.241778 -0.358663 -0.169200 0.1647 0.0980 0.0510
v 0.240171 -0.358663 -0.133658 0.1647 0.0980 0.0510
v -0.165205 -0.308824 -0.187847 0.1647 0.0980 0.0510
v -0.200997 0.047490 -0.140941 0.1647 0.0980 0.0510
v -0.167201 0.047490 -0.132267 0.1647 0.0980 0.0510
v -0.165593 0.047491 -0.095564 0.1647 0.0980 0.0510
v -0.200997 0.047490 -0.085751 0.1647 0.0980 0.0510
v -0.219278 0.047492 -0.113346 0.1647 0.0980 0.0510
v -0.220097 -0.358664 -0.128938 0.1647 0.0980 0.0510
v -0.215952 -0.358663 -0.182524 0.1647 0.0980 0.0510
v -0.130519 -0.327507 -0.154250 0.1647 0.0980 0.0510
v -0.164787 -0.308815 -0.116113 0.1647 0.0980 0.0510
v -0.144950 -0.358663 -0.174593 0.1647 0.0980 0.0510
v -0.129468 -0.358663 -0.114647 0.1647 0.0980 0.0510
v -0.074451 0.179982 -0.266251 1.0000 1.0000 1.0000
v -0.123793 -0.120508 -0.236402 1.0000 1.0000 1.0000
v 0.082733 0.080263 -0.291721 1.0000 1.0000 1.0000
v -0.056073 -0.195214 -0.139604 1.0000 1.0000 1.0000
v 0.157347 0.286356 -0.046521 1.0000 1.0000 1.0000
v 0.093308 0.266765 -0.162557 1.0000 1.0000 1.0000
v 0.315394 0.044285 -0.196593 1.0000 1.0000 1.0000
v 0.192103 -0.106821 -0.203275 1.0000 1.0000 1.0000
v 0.322787 0.174821 -0.156641 1.0000 1.0000 1.0000
v 0.357458 -0.036218 -0.060423 1.0000 1.0000 1.0000
v 0.236689 -0.166626 -0.055401 1.0000 1.0000 1.0000
v 0.311768 0.225592 -0.004563 1.0000 1.0000 1.0000
v 0.352716 0.102233 0.099716 1.0000 1.0000 1.0000
v 0.344257 -0.083361 0.074169 1.0000 1.0000 1.0000
v 0.007610 -0.219802 -0.028167 1.0000 1.0000 1.0000
v 0.242983 0.114331 0.211632 1.0000 1.0000 1.0000
v 0.218531 -0.081382 0.196771 1.0000 1.0000 1.0000
v 0.132443 0.271577 0.131048 1.0000 1.0000 1.0000
v 0.040802 0.027788 0.278636 1.0000 1.0000 1.0000
v 0.092708 -0.195418 0.096523 1.0000 1.0000 1.0000
v -0.074451 0.179982 0.253611 1.0000 1.0000 1.0000
v -0.035667 0.319143 -0.006320 1.0000 1.0000 1.0000
v -0.243417 -0.005906 0.246475 1.0000 1.0000 1.0000
v -0.123793 -0.120508 0.223762 1.0000 1.0000 1.0000
v -0.091359 -0.204937 0.093697 1.0000 1.0000 1.0000
v -0.351929 0.128337 0.170610 1.0000 1.0000 1.0000
v -0.401393 -0.063456 0.102767 1.0000 1.0000 1.0000
v -0.308708 0.223079 0.119065 1.0000 1.0000 1.0000
v -0.179029 0.289897 0.085346 1.0000 1.0000 1.0000
v -0.441138 0.121494 -0.006320 1.0000 1.0000 1.0000
v -0.451544 -0.005157 -0.006320 1.0000 1.0000 1.0000
v -0.405246 -0.004828 -0.135093 1.0000 1.0000 1.0000
v -0.353760 -0.121339 -0.071902 1.0000 1.0000 1.0000
v -0.212826 -0.200913 -0.008120 1.0000 1.0000 1.0000
v -0.319200 0.235904 -0.104665 1.0000 1.0000 1.0000
v -0.351929 0.128337 -0.183250 1.0000 1.0000 1.0000
v -0.150965 0.290620 -0.107505 1.0000 1.0000 1.0000
v -0.243417 -0.005907 -0.259115 1.0000 1.0000 1.0000
v 0.368375 0.226085 -0.006522 1.0000 1.0000 1.0000
v 0.372319 0.205733 0.015048 1.0000 1.0000 1.0000
v 0.375478 0.235257 0.024520 1.0000 1.0000 1.0000
v 0.376139 0.253147 -0.007988 1.0000 1.0000 1.0000
v 0.378156 0.230220 -0.033532 1.0000 1.0000 1.0000
v 0.377334 0.211052 -0.020967 1.0000 1.0000 1.0000
v 0.406042 0.218872 0.023279 1.0000 1.0000 1.0000
v 0.409617 0.245016 0.012151 1.0000 1.0000 1.0000
v 0.410286 0.243483 -0.027194 1.0000 1.0000 1.0000
v 0.406386 0.215621 -0.034887 1.0000 1.0000 1.0000
v 0.405000 0.201877 -0.004952 1.0000 1.0000 1.0000
v 0.425675 0.222990 -0.006010 1.0000 1.0000 1.0000
v 0.313915 0.227546 -0.044032 1.0000 1.0000 1.0000
v 0.334346 0.199353 -0.015264 1.0000 1.0000 1.0000
v 0.337487 0.239585 -0.000680 1.0000 1.0000 1.0000
v 0.339850 0.261351 -0.045768 1.0000 1.0000 1.0000
v 0.338004 0.234695 -0.088175 1.0000 1.0000 1.0000
v 0.339873 0.204620 -0.064138 1.0000 1.0000 1.0000
v 0.377026 0.218211 -0.008602 1.0000 1.0000 1.0000
v 0.381073 0.247305 -0.021816 1.0000 1.0000 1.0000
v 0.385298 0.250502 -0.071966 1.0000 1.0000 1.0000
v 0.380976 0.211293 -0.084276 1.0000 1.0000 1.0000
v 0.379794 0.188504 -0.041461 1.0000 1.0000 1.0000
v 0.411232 0.221919 -0.043143 1.0000 1.0000 1.0000
v 0.312273 0.227063 0.021317 1.0000 1.0000 1.0000
v 0.333263 0.210537 0.038729 1.0000 1.0000 1.0000
v 0.332840 0.235353 0.052010 1.0000 1.0000 1.0000
v 0.334537 0.250846 0.020119 1.0000 1.0000 1.0000
v 0.336667 0.229607 -0.002705 1.0000 1.0000 1.0000
v 0.332154 0.206643 0.004827 1.0000 1.0000 1.0000
v 0.362523 0.218976 0.049984 1.0000 1.0000 1.0000
v 0.363811 0.241141 0.037199 1.0000 1.0000 1.0000
v 0.366640 0.243151 0.001608 1.0000 1.0000 1.0000
v 0.364427 0.214501 -0.008709 1.0000 1.0000 1.0000
v 0.360824 0.204177 0.022882 1.0000 1.0000 1.0000
v 0.384994 0.222791 0.021985 1.0000 1.0000 1.0000
v 0.252259 0.228129 -0.003563 1.0000 1.0000 1.0000
v 0.281449 0.199918 0.026025 1.0000 1.0000 1.0000
v 0.287090 0.237374 0.036377 1.0000 1.0000 1.0000
v 0.285025 0.266023 -0.005487 1.0000 1.0000 1.0000
v 0.282950 0.235940 -0.053418 1.0000 1.0000 1.0000
v 0.284381 0.200958 -0.026927 1.0000 1.0000 1.0000
v 0.327656 0.216966 0.037757 1.0000 1.0000 1.0000
v 0.332574 0.251658 0.022513 1.0000 1.0000 1.0000
v 0.336407 0.253771 -0.035103 1.0000 1.0000 1.0000
v 0.332854 0.208388 -0.051583 1.0000 1.0000 1.0000
v 0.330195 0.183832 -0.000627 1.0000 1.0000 1.0000
v 0.365712 0.221531 -0.002524 1.0000 1.0000 1.0000
v 0.258680 0.218525 -0.057504 1.0000 1.0000 1.0000
v 0.265544 0.195758 -0.030035 1.0000 1.0000 1.0000
v 0.268371 0.232909 -0.019470 1.0000 1.0000 1.0000
v 0.270509 0.249660 -0.061376 1.0000 1.0000 1.0000
v 0.268837 0.222988 -0.097806 1.0000 1.0000 1.0000
v 0.265831 0.189640 -0.078349 1.0000 1.0000 1.0000
v 0.305848 0.212203 -0.021330 1.0000 1.0000 1.0000
v 0.303349 0.231434 -0.042678 1.0000 1.0000 1.0000
v 0.311448 0.238246 -0.084233 1.0000 1.0000 1.0000
v 0.308621 0.201096 -0.094798 1.0000 1.0000 1.0000
v 0.304577 0.189480 -0.053553 1.0000 1.0000 1.0000
v 0.334821 0.214325 -0.056520 1.0000 1.0000 1.0000
v 0.399189 0.221285 0.029376 1.0000 1.0000 1.0000
v 0.392626 0.213379 0.019944 1.0000 1.0000 1.0000
v 0.392066 0.225589 0.016559 1.0000 1.0000 1.0000
v 0.390084 0.231118 0.029712 1.0000 1.0000 1.0000
v 0.389587 0.222452 0.041208 1.0000 1.0000 1.0000
v 0.391105 0.211452 0.035078 1.0000 1.0000 1.0000
v 0.379643 0.218386 0.014394 1.0000 1.0000 1.0000
v 0.378126 0.229385 0.020523 1.0000 1.0000 1.0000
v 0.376605 0.227459 0.035658 1.0000 1.0000 1.0000
v 0.377165 0.215249 0.039042 1.0000 1.0000 1.0000
v 0.379147 0.209720 0.025889 1.0000 1.0000 1.0000
v 0.370042 0.219552 0.026225 1.0000 1.0000 1.0000
v 0.456513 0.124633 0.028712 0.1647 0.0980 0.0510
vn -0.3278 -0.9432 -0.0544
vn -0.1270 -0.9867 -0.1017
vn -0.3350 -0.6599 -0.6726
vn -0.3067 -0.8162 -0.4897
vn 0.0717 0.0932 -0.9931
vn 0.4781 -0.6940 -0.5383
vn 0.9148 -0.1941 -0.3541
vn 0.9149 -0.1942 -0.3540
vn 0.9148 -0.1943 -0.3540
vn 0.5274 -0.8494 0.0214
vn 0.5274 -0.8494 0.0213
vn 0.5274 -0.8494 0.0215
vn 0.8887 -0.1148 0.4439
vn 0.8887 -0.1148 0.4438
vn 0.2790 -0.8035 0.5259
vn 0.0883 -0.3526 0.9316
vn -0.3188 -0.7322 0.6018
vn -0.6804 -0.7068 0.1940
vn -0.1834 -0.6894 -0.7008
vn -0.2095 -0.2179 -0.9532
vn 0.5719 -0.4993 -0.6509
vn 0.5719 -0.4992 -0.6509
vn 0.5720 -0.4993 -0.6508
vn 0.9252 -0.3677 0.0935
vn 0.9252 -0.3679 0.0931
vn 0.9251 -0.3682 0.0930
vn 0.3459 -0.9170 0.1988
vn 0.3374 -0.5439 0.7683
vn 0.9252 -0.3678 0.0934
vn 0.9251 -0.3682 0.0933
vn 0.9250 -0.3683 0.0932
vn 0.9251 -0.3681 0.0932
vn 0.9252 -0.3679 0.0932
vn 0.9148 -0.1945 -0.3540
vn 0.9148 -0.1946 -0.3540
vn 0.9148 -0.1947 -0.3540
vn 0.9149 -0.1941 -0.3540
vn 0.9147 -0.1943 -0.3543
vn 0.9148 -0.1942 -0.3541
vn 0.9149 -0.1943 -0.3540
vn 0.9148 -0.1947 -0.3539
vn 0.9251 -0.3680 0.0934
vn 0.9250 -0.3682 0.0932
vn 0.9251 -0.3682 0.0929
vn 0.9148 -0.1944 -0.3540
vn 0.9148 -0.1944 -0.3539
vn 0.9252 -0.3680 0.0932
vn 0.9251 -0.3681 0.0929
vn 0.9252 -0.3679 0.0934
vn 0.9251 -0.3681 0.0935
vn 0.9148 -0.1942 -0.3542
vn 0.9149 -0.1942 -0.3538
vn 0.9148 -0.1946 -0.3541
vn 0.9148 -0.1940 -0.3543
vn 0.9250 -0.3683 0.0933
vn 0.9251 -0.3680 0.0935
vn 0.9251 -0.3681 0.0928
vn 0.9251 -0.3680 0.0933
vn -0.3319 -0.9433 0.0064
vn -0.1436 -0.9867 -0.0767
vn -0.4528 -0.6597 -0.5998
vn -0.3914 -0.8162 -0.4250
vn -0.1119 0.0932 -0.9893
vn 0.3712 -0.6940 -0.6169
vn 0.8345 -0.1941 -0.5158
vn 0.8344 -0.1941 -0.5158
vn 0.8344 -0.1942 -0.5157
vn 0.5224 -0.8493 -0.0758
vn 0.5224 -0.8493 -0.0759
vn 0.9551 -0.1149 0.2731
vn 0.9551 -0.1148 0.2731
vn 0.3708 -0.8035 0.4657
vn 0.2578 -0.3527 0.8995
vn -0.2031 -0.7322 0.6501
vn -0.6331 -0.7067 0.3157
vn -0.3089 -0.6894 -0.6552
vn -0.3810 -0.2179 -0.8985
vn 0.4428 -0.4993 -0.7447
vn 0.4428 -0.4993 -0.7448
vn 0.4428 -0.4994 -0.7447
vn 0.9264 -0.3682 -0.0784
vn 0.9265 -0.3681 -0.0784
vn 0.9264 -0.3682 -0.0783
vn 0.3765 -0.9170 0.1319
vn 0.4727 -0.5440 0.6932
vn 0.9263 -0.3685 -0.0785
vn 0.9264 -0.3683 -0.0782
vn 0.9265 -0.3681 -0.0783
vn 0.9265 -0.3681 -0.0782
vn 0.9265 -0.3682 -0.0780
vn 0.9265 -0.3680 -0.0782
vn 0.9266 -0.3679 -0.0782
vn 0.8344 -0.1943 -0.5158
vn 0.8343 -0.1947 -0.5158
vn 0.8341 -0.1941 -0.5163
vn 0.8344 -0.1944 -0.5158
vn 0.8343 -0.1943 -0.5159
vn 0.8343 -0.1946 -0.5158
vn 0.8343 -0.1945 -0.5159
vn 0.8342 -0.1946 -0.5160
vn 0.8343 -0.1945 -0.5158
vn 0.9266 -0.3680 -0.0782
vn 0.8343 -0.1942 -0.5160
vn 0.8343 -0.1943 -0.5160
vn 0.9265 -0.3681 -0.0781
vn 0.9265 -0.3682 -0.0783
vn 0.9265 -0.3680 -0.0781
vn 0.9264 -0.3684 -0.0783
vn 0.9264 -0.3684 -0.0779
vn 0.9266 -0.3678 -0.0781
vn 0.8343 -0.1944 -0.5159
vn 0.8345 -0.1943 -0.5157
vn 0.8343 -0.1941 -0.5160
vn 0.8342 -0.1944 -0.5160
vn 0.9265 -0.3680 -0.0780
vn 0.9265 -0.3681 -0.0777
vn 0.1127 -0.3700 -0.9221
vn 0.2164 0.5475 -0.8083
vn 0.1168 0.9667 -0.2277
vn 0.3992 0.2476 -0.8828
vn 0.6733 -0.5264 -0.5192
vn 0.4258 0.8238 -0.3741
vn 0.9600 0.0308 -0.2783
vn 0.9557 0.2931 -0.0286
vn 0.9954 -0.0561 0.0780
vn 0.1882 0.9762 0.1077
vn 0.4131 -0.8826 0.2242
vn 0.6912 -0.1294 0.7109
vn 0.5892 0.6267 0.5100
vn 0.0485 -0.9860 0.1597
vn 0.1220 -0.4607 0.8791
vn 0.2218 0.5637 0.7957
vn -0.0766 -0.2701 0.9598
vn 0.0347 -0.8343 0.5502
vn -0.1205 0.0715 0.9901
vn 0.0093 0.9484 0.3171
vn -0.2222 0.7473 0.6262
vn -0.3313 0.5630 0.7571
vn -0.4228 -0.5794 0.6968
vn -0.3887 -0.8141 0.4315
vn -0.6496 -0.0991 0.7538
vn -0.0802 -0.9952 0.0563
vn -0.7583 0.5425 0.3614
vn -0.8908 0.0731 0.4484
vn -0.8908 0.0730 0.4484
vn -0.8907 0.0732 0.4486
vn -0.7634 -0.6458 0.0058
vn -0.2169 0.9758 -0.0279
vn -0.7768 0.5081 -0.3720
vn -0.9383 0.0771 -0.3371
vn -0.4602 -0.6085 -0.6465
vn -0.3253 -0.8450 -0.4245
vn -0.6079 -0.0433 -0.7928
vn -0.0987 -0.9821 -0.1603
vn -0.2494 0.7340 -0.6317
vn -0.3285 0.6203 -0.7123
vn -0.1171 0.0684 -0.9908
vn 0.0259 0.9541 -0.2985
vn -0.0363 -0.2306 -0.9724
vn 0.1009 -0.7522 -0.6511
vn 0.3367 -0.2344 -0.9120
vn 0.2386 0.5437 -0.8046
vn 0.2070 -0.8837 -0.4198
vn 0.1801 -0.9339 -0.3089
vn 0.6483 -0.6176 -0.4453
vn 0.3640 0.8911 -0.2711
vn 0.9888 0.1261 -0.0797
vn 0.2298 -0.9727 0.0334
vn 0.7204 -0.6735 -0.1653
vn 0.3338 0.9344 0.1246
vn 0.3998 -0.8131 0.4231
vn 0.5559 0.6538 0.5133
vn 0.6993 -0.1406 0.7009
vn 0.3565 -0.1149 0.9272
vn 0.1364 -0.7347 0.6646
vn 0.1848 0.2942 0.9377
vn -0.0337 0.8270 0.5612
vn -0.3205 0.2563 0.9119
vn -0.3564 -0.8319 0.4253
vn -0.8917 0.0719 0.4468
vn -0.4420 0.8941 0.0720
vn -0.5320 -0.8364 0.1321
vn -0.6501 0.7563 0.0738
vn -0.3097 0.9499 -0.0415
vn -0.8066 -0.5144 -0.2913
vn -0.8789 0.1944 -0.4356
vn -0.5009 -0.5731 -0.6486
vn -0.2958 -0.8590 -0.4179
vn -0.3205 0.2563 -0.9119
vn -0.0538 0.8069 -0.5883
vn -0.9764 0.0362 0.2127
vn -0.9116 -0.3689 -0.1814
vn -0.9505 0.2800 0.1348
vn -0.9223 0.2486 -0.2959
vn -0.9118 -0.1971 -0.3603
vn -0.2188 -0.9604 -0.1723
vn -0.1179 -0.2919 0.9492
vn -0.0762 0.8742 0.4795
vn -0.1687 0.7269 -0.6657
vn -0.3039 -0.5132 -0.8027
vn 0.2061 -0.8417 0.4991
vn 0.2271 0.3550 0.9069
vn 0.2548 0.9664 -0.0333
vn 0.0852 0.2541 -0.9634
vn -0.0581 -0.9062 -0.4188
vn 0.6750 -0.6429 0.3621
vn 0.8153 0.1288 0.5646
vn 0.8043 0.5942 -0.0095
vn 0.8262 0.0395 -0.5620
vn 0.6788 -0.6788 -0.2802
vn -0.8592 -0.1137 0.4988
vn -0.7185 -0.6782 -0.1543
vn -0.7623 0.5976 0.2485
vn -0.7589 0.5657 -0.3225
vn -0.7592 -0.4345 -0.4846
vn -0.3035 -0.9431 -0.1360
vn 0.0040 -0.3411 0.9400
vn 0.0525 0.8982 0.4364
vn -0.1018 0.8442 -0.5262
vn -0.2656 -0.6119 -0.7450
vn 0.2125 -0.7159 0.6651
vn 0.3597 0.3439 0.8674
vn 0.2771 0.9571 0.0844
vn 0.2309 0.2682 -0.9353
vn -0.0876 -0.8783 -0.4699
vn 0.6199 -0.5554 0.5543
vn 0.6807 0.2223 0.6980
vn 0.6824 0.7236 0.1036
vn 0.7883 0.1035 -0.6066
vn 0.6791 -0.6556 -0.3302
vn -0.7423 -0.3260 0.5854
vn -0.6681 -0.7364 0.1064
vn -0.6925 0.6627 0.2851
vn -0.6154 0.5476 -0.5670
vn -0.6931 -0.0980 -0.7142
vn -0.1585 -0.9803 0.1178
vn -0.1977 -0.4652 0.8629
vn 0.0419 0.8978 0.4384
vn -0.2208 0.7036 -0.6754
vn -0.3264 -0.2361 -0.9153
vn 0.0705 -0.8773 0.4747
vn 0.3112 0.4612 0.8309
vn 0.2736 0.9588 0.0759
vn -0.0183 0.3400 -0.9402
vn 0.1060 -0.9487 -0.2979
vn 0.5769 -0.7316 0.3633
vn 0.7185 0.3157 0.6197
vn 0.6900 0.7175 0.0954
vn 0.8032 0.1460 -0.5776
vn 0.5949 -0.7816 -0.1876
vn -0.7434 -0.0718 0.6650
vn -0.6665 -0.7437 -0.0515
vn -0.6669 0.5992 0.4429
vn -0.7180 0.6032 -0.3475
vn -0.7394 -0.4254 -0.5218
vn -0.3313 -0.9428 -0.0369
vn -0.1541 -0.2416 0.9581
vn -0.0852 0.8203 0.5656
vn -0.1016 0.8446 -0.5257
vn -0.2949 -0.5845 -0.7559
vn 0.1103 -0.7487 0.6536
vn 0.1592 0.3781 0.9120
vn 0.2602 0.9641 0.0527
vn 0.2102 0.3191 -0.9241
vn -0.0845 -0.8959 -0.4361
vn 0.6300 -0.5668 0.5309
vn 0.7005 0.2015 0.6846
vn 0.7004 0.7100 0.0726
vn 0.8032 0.1467 -0.5773
vn 0.6906 -0.6650 -0.2844
vn -0.9694 0.0039 0.2455
vn -0.9656 -0.2585 0.0270
vn -0.9262 0.3641 0.0983
vn -0.9244 0.3267 -0.1968
vn -0.9664 -0.0588 -0.2501
vn -0.0839 -0.9886 0.1247
vn -0.0989 -0.2652 0.9591
vn 0.2818 0.8859 0.3685
vn -0.1020 0.8049 -0.5846
vn -0.1997 -0.4803 -0.8541
vn 0.2072 -0.8033 0.5583
vn 0.4153 0.6995 0.5815
vn 0.3743 0.9007 0.2206
vn 0.2104 0.2526 -0.9444
vn 0.1581 -0.9544 -0.2533
vn 0.5933 -0.6687 0.4482
vn 0.5730 0.6411 0.5105
vn 0.5426 0.8056 0.2378
vn 0.8032 0.1056 -0.5863
vn 0.6177 -0.7707 -0.1565
vn 0.8546 -0.1020 -0.5092
vn 0.7715 -0.6363 -0.0035
vn 0.7196 0.6722 -0.1742
vn 0.6545 0.5899 0.4730
vn 0.7405 -0.2462 0.6253
vn 0.2186 -0.9705 -0.1016
vn 0.3010 -0.2419 -0.9224
vn 0.1468 0.9196 -0.3644
vn 0.0496 0.7965 0.6026
vn 0.1204 -0.4705 0.8741
vn -0.0496 -0.7965 -0.6026
vn -0.1205 0.4705 -0.8741
vn -0.2187 0.9705 0.1015
vn -0.3011 0.2418 0.9224
vn -0.1468 -0.9196 0.3644
vn -0.6545 -0.5899 -0.4730
vn -0.7406 0.2463 -0.6252
vn -0.7715 0.6362 0.0034
vn -0.8546 0.1019 0.5092
vn -0.7195 -0.6723 0.1742
vn 0.8887 -0.1149 0.4439
vn 0.5719 -0.4990 -0.6511
vn 0.4280 0.7840 -0.4497
vn 0.3904 0.7920 -0.4694
vn 0.4094 0.7882 -0.4595
vn 0.9251 -0.3681 0.0931
vn -0.1821 0.7423 -0.6449
vn -0.1693 0.7116 -0.6819
vn -0.1755 0.7266 -0.6643
vn 0.0154 -0.3460 0.9381
vn 0.0576 -0.3609 0.9308
vn 0.0366 -0.3536 0.9347
vn 0.5223 -0.8494 -0.0756
vn 0.9551 -0.1149 0.2732
vn 0.9551 -0.1147 0.2733
vn 0.4431 -0.4988 -0.7449
vn -0.6608 -0.7118 -0.2380
vn -0.4453 -0.8313 -0.3326
vn -0.5615 -0.7764 -0.2863
vn 0.4428 -0.4992 -0.7448
vn 0.9265 -0.3681 -0.0780
vn -0.6855 0.1109 -0.7196
vn -0.6856 0.1237 -0.7174
vn -0.6855 0.1174 -0.7186
vn 0.4572 -0.5706 -0.6822
vn 0.4840 -0.5993 -0.6376
vn 0.4705 -0.5849 -0.6607
vn 0.8344 -0.1946 -0.5157
vn -0.3796 -0.9136 0.1455
vn -0.3993 -0.9064 0.1379
vn -0.3895 -0.9101 0.1417
vn 0.9509 0.2591 0.1690
vn 0.9530 0.2547 0.1638
vn 0.9537 0.2533 0.1620
vn -0.1168 -0.4066 0.9061
vn 0.1405 -0.2681 -0.9531
vn 0.7445 -0.6464 -0.1672
vn -0.3198 0.8864 0.3347
vn 0.0457 0.9808 0.1896
vn -0.2652 -0.6265 0.7329
vn -0.6871 0.6046 -0.4029
vn 0.0771 -0.3481 0.9343
vn -0.5413 0.7246 0.4266
vn -0.9670 0.1697 0.1902
vn 0.2497 0.8023 0.5421
vn 0.9502 0.2607 0.1708
vn 0.9814 -0.1864 -0.0457
vn -0.0824 -0.0415 -0.9957
vn 0.0024 -0.0443 -0.9990
vn 0.1634 0.1359 -0.9772
vn 0.2263 0.9411 0.2511
vn 0.1513 -0.9861 -0.0681
vn 0.6764 -0.7303 -0.0958
vn -0.6825 0.6165 0.3926
vn 0.3207 0.9378 -0.1328
vn 0.8439 -0.2064 0.4952
vn -0.7539 0.5476 -0.3632
vn 0.1144 0.8644 0.4897
vn 0.9423 0.2888 0.1692
vn -0.2986 -0.8888 -0.3475
vn 0.1902 -0.8287 -0.5264
vn -0.9569 -0.2902 0.0094
vn -0.7809 -0.5746 -0.2449
vn 0.9510 0.2591 -0.1690
vn 0.9537 0.2534 -0.1620
vn 0.9530 0.2547 -0.1638
vn -0.1168 -0.4066 -0.9061
vn 0.1405 -0.2681 0.9531
vn 0.7445 -0.6464 0.1672
vn -0.3198 0.8864 -0.3347
vn 0.0457 0.9808 -0.1896
vn -0.2652 -0.6265 -0.7329
vn -0.6871 0.6046 0.4029
vn 0.0771 -0.3481 -0.9343
vn -0.5413 0.7246 -0.4266
vn -0.9670 0.1697 -0.1902
vn 0.2498 0.8023 -0.5421
vn 0.9502 0.2608 -0.1709
vn 0.9814 -0.1864 0.0457
vn -0.0825 -0.0415 0.9957
vn 0.0025 -0.0443 0.9990
vn 0.1634 0.1359 0.9771
vn 0.2264 0.9411 -0.2510
vn 0.1513 -0.9861 0.0681
vn 0.6764 -0.7303 0.0958
vn -0.6825 0.6165 -0.3926
vn 0.3207 0.9378 0.1328
vn 0.8439 -0.2064 -0.4952
vn -0.7539 0.5475 0.3632
vn 0.1143 0.8644 -0.4897
vn 0.9423 0.2888 -0.1692
vn -0.2986 -0.8888 0.3475
vn 0.1902 -0.8287 0.5264
vn -0.9569 -0.2902 -0.0094
vn -0.7809 -0.5746 0.2449
vn 0.3151 -0.9435 -0.1024
vn 0.0938 -0.6240 -0.7758
vn 0.1947 -0.9435 0.2680
vn 0.0097 -0.0594 -0.9982
vn 0.9914 -0.1168 -0.0595
vn 0.1347 -0.0634 0.9889
vn 0.4054 0.0066 -0.9141
vn 0.9503 -0.0402 0.3088
vn 0.3733 0.8107 -0.4511
vn 0.2168 0.9212 0.3230
vn -0.1029 -0.0358 -0.9941
vn -0.2250 0.8799 0.4185
vn -0.3303 -0.7896 -0.5172
vn -0.1528 -0.0003 0.9883
vn 0.0487 0.8232 0.5656
vn -0.0916 0.9720 0.2162
vn 0.2145 0.9280 0.3045
vn 0.4641 0.8778 -0.1186
vn -0.1459 0.9875 -0.0597
vn 0.0543 0.8726 -0.4855
vn -0.0262 0.6759 -0.7366
vn 0.0187 0.3080 0.9512
vn 0.6919 0.4935 0.5270
vn 0.9136 0.2779 0.2968
vn 0.8695 0.4935 -0.0197
vn 0.4411 0.6677 -0.5997
vn 0.3613 0.4534 -0.8148
vn 0.0850 0.3639 -0.9275
vn 0.4051 -0.0369 0.9135
vn 0.4053 -0.0225 0.9139
vn 0.7670 -0.1168 0.6309
vn 0.9279 0.2191 -0.3015
vn 0.9489 -0.0674 -0.3083
vn 0.8370 -0.1168 -0.5346
vn 0.0471 -0.5037 0.8626
vn 0.3568 -0.7947 0.4911
vn 0.6284 -0.6617 0.4090
vn 0.7488 -0.6617 0.0385
vn 0.5773 -0.7947 -0.1876
vn 0.5831 -0.6617 -0.4713
vn -0.8263 -0.4419 -0.3492
vn -0.3273 0.9433 -0.0546
vn -0.1270 0.9867 -0.1017
vn -0.3350 0.6596 -0.6728
vn -0.3067 0.8162 -0.4896
vn 0.0716 -0.0932 -0.9931
vn 0.4780 0.6941 -0.5382
vn 0.9148 0.1943 -0.3540
vn 0.5273 0.8494 0.0215
vn 0.8887 0.1148 0.4438
vn 0.2790 0.8035 0.5259
vn 0.0883 0.3527 0.9316
vn -0.3190 0.7322 0.6018
vn -0.0000 -1.0000 -0.0000
vn -0.6802 0.7069 0.1939
vn -0.6801 0.7070 0.1937
vn -0.1834 0.6894 -0.7008
vn -0.2095 0.2178 -0.9532
vn 0.5720 0.4992 -0.6508
vn 0.9251 0.3681 0.0932
vn 0.3459 0.9170 0.1987
vn 0.3375 0.5439 0.7683
vn -0.0000 1.0000 -0.0000
vn -0.3321 0.9432 0.0065
vn -0.1435 0.9867 -0.0767
vn -0.4529 0.6595 -0.6000
vn -0.3913 0.8162 -0.4250
vn -0.1119 -0.0933 -0.9893
vn 0.3711 0.6941 -0.6168
vn 0.8343 0.1943 -0.5159
vn 0.5224 0.8494 -0.0757
vn 0.9551 0.1149 0.2732
vn 0.3708 0.8035 0.4658
vn 0.2578 0.3527 0.8995
vn -0.2028 0.7322 0.6502
vn -0.6329 0.7070 0.3154
vn -0.3089 0.6894 -0.6552
vn -0.3810 0.2178 -0.8985
vn 0.4429 0.4992 -0.7448
vn 0.9265 0.3681 -0.0781
vn 0.3765 0.9170 0.1319
vn 0.4727 0.5440 0.6933
vn 0.9374 -0.0361 -0.3464
vn 0.7479 0.0978 0.6565
vn -0.1898 0.1131 0.9753
vn -0.8204 0.0904 0.5645
vn -0.8241 -0.0667 -0.5624
vn 0.0010 -0.0691 -0.9976
vn -0.0001 -1.0000 0.0003
vn -0.0038 -1.0000 0.0060
vn 0.3392 0.1622 0.9266
vn 0.1665 -0.2561 -0.9522
vn 0.9734 0.2167 -0.0739
vn 0.1207 -0.0523 -0.9913
vn 0.8350 0.1036 0.5404
vn -0.8863 0.0942 0.4534
vn -0.0001 1.0000 -0.0000
vn 0.0785 0.8542 0.5141
vn -0.0000 -1.0000 0.0002
vn 0.1844 -0.2446 0.9519
vn 0.6273 0.6174 -0.4746
vn -0.0049 -1.0000 0.0077
vn 0.5387 0.7377 -0.4069
vn 0.9202 -0.0024 -0.3914
vn 0.8162 0.0517 0.5754
vn -0.1622 0.1132 0.9802
vn -0.8229 0.0468 0.5662
vn -0.8259 -0.0112 -0.5637
vn -0.0108 -0.0612 -0.9981
vn 0.4068 0.3340 0.8502
vn 0.1666 -0.2540 -0.9528
vn 0.9928 0.0936 -0.0744
vn 0.7762 0.0107 -0.6304
vn 0.1563 0.1433 0.9773
vn -0.9066 0.0171 -0.4216
vn -0.0416 0.9991 -0.0057
vn 0.1860 -0.2089 0.9601
vn 0.5895 0.5702 -0.5722
vn -0.0741 0.9908 0.1132
vn 0.8550 0.0542 -0.5158
vn 0.8750 0.0094 0.4840
vn -0.0948 -0.0772 0.9925
vn -0.9998 -0.0130 0.0167
vn 0.0002 1.0000 0.0001
vn -0.2302 0.0922 -0.9688
vn 0.2340 0.8194 0.5233
vn -0.0000 -1.0000 0.0001
vn 0.5251 0.2859 0.8016
vn 0.1312 -0.4067 -0.9041
vn 0.3543 0.1323 -0.9257
vn 0.8395 -0.0053 0.5434
vn -0.7411 -0.0120 0.6713
vn -0.8312 0.0768 -0.5507
vn 0.1306 -0.3826 0.9146
vn 0.9891 -0.1404 0.0447
vn 0.5208 0.2906 -0.8027
vn 0.2339 0.8188 -0.5243
vn 1.0000 0.0026 -0.0058
vn -0.1400 -0.0982 0.9853
vn -0.9970 0.0050 -0.0771
vn -0.0000 1.0000 -0.0001
vn -0.2073 0.1072 -0.9724
vn -0.1552 -0.0810 0.9845
vn 0.7412 0.5370 0.4028
vn 0.1084 -0.2141 -0.9708
vn 0.7218 0.1117 -0.6831
vn 0.4764 0.8792 -0.0029
vn 0.2458 0.1507 -0.9575
vn 0.9990 0.0124 -0.0438
vn 0.2667 -0.0549 0.9622
vn -0.8335 -0.0195 0.5522
vn -0.0000 1.0000 0.0001
vn -0.8305 0.0869 -0.5502
vn 0.9311 -0.2743 -0.2405
vn -1.0000 -0.0000 -0.0000
vn -0.9858 -0.1405 -0.0920
vn -0.4330 -0.8997 0.0544
vn -0.8509 -0.1107 0.5136
vn -0.9941 -0.0878 0.0638
vn 0.5811 0.2534 0.7734
vn 0.5627 -0.3497 0.7490
vn 0.6003 -0.0352 0.7990
vn -0.5034 -0.3803 0.7759
vn -0.4168 -0.6788 0.6045
vn -0.4603 -0.5624 0.6869
vn 0.9147 -0.1945 -0.3541
vn 0.9148 -0.1945 -0.3541
vn 0.8342 -0.1946 -0.5159
vn 0.8342 -0.1945 -0.5160
vn 0.8344 -0.1944 -0.5157
vn 0.8343 -0.1946 -0.5159
vn 0.3279 -0.9293 -0.1701
vn 0.1161 -0.9877 0.1045
vn 0.2692 -0.2205 0.9375
vn 0.2372 -0.2670 0.9341
vn 0.8821 -0.0302 -0.4700
vn 0.3109 0.9067 -0.2851
vn 0.2357 -0.2700 -0.9336
vn -0.6842 -0.1933 0.7032
vn 0.8817 0.4331 -0.1870
vn -0.1644 0.9855 0.0416
vn -0.2467 0.0751 -0.9662
vn -0.5830 0.8124 0.0126
vn -0.6856 0.0019 -0.7280
vn -0.7359 -0.6331 -0.2402
vn 0.2767 0.7132 -0.6440
vn 0.2461 0.8519 -0.4623
vn 0.7971 -0.3095 -0.5185
vn 0.8769 -0.3416 -0.3381
vn 0.3079 -0.9178 0.2506
vn 0.5235 0.8458 0.1024
vn 0.2073 0.8005 0.5623
vn -0.0686 -0.2253 0.9719
vn -0.4939 0.8393 0.2272
vn -0.3092 -0.9449 -0.1078
vn -0.7330 -0.0184 -0.6800
vn -0.4520 0.8798 -0.1470
vn -0.0637 -0.5966 -0.8000
vn 0.9817 0.0689 0.1773
vn 0.2619 0.0820 0.9616
vn -0.1527 -0.5441 0.8250
vn -0.8067 0.3611 0.4678
vn -0.6128 -0.7235 0.3179
vn -0.9976 -0.0631 0.0270
vn -0.6544 0.2452 -0.7153
vn -0.5654 0.7936 0.2248
vn 0.4285 0.8693 0.2462
vn 0.9968 0.0765 0.0217
vn 0.5653 -0.7937 -0.2248
vn 0.9028 0.4012 -0.1547
vn -0.0000 -0.0000 1.0000
vn 0.9647 -0.2050 -0.1654
vn -0.4285 -0.8693 -0.2462
vn -0.9969 -0.0763 -0.0216
vn -0.0000 0.3599 -0.9330
vn -0.0000 0.3598 -0.9330
vn -0.0001 0.3599 -0.9330
vn 0.9815 0.1356 -0.1352
vn 0.9028 -0.4012 -0.1548
vn -0.0000 -0.0000 -1.0000
vn 0.9647 0.2050 -0.1652
vn 0.8238 -0.5289 0.2039
vn 0.9332 0.2751 0.2311
vn 0.0789 0.9301 -0.3588
vn 0.1779 -0.5625 -0.8074
vn 0.0790 -0.9301 -0.3587
vn 0.1780 0.5625 -0.8074
vn 0.8238 0.5289 0.2041
vn 0.9332 -0.2751 0.2312
vn -0.0000 -0.3598 0.9330
vn -0.0000 -0.3599 0.9330
vn -0.5577 0.8208 0.1237
vn -0.5577 0.8207 0.1237
vn -0.5575 0.8209 0.1237
vn -0.9658 -0.1605 0.2034
vn -0.9658 -0.1607 0.2034
vn 0.5486 -0.8345 -0.0514
vn 0.3993 0.9157 -0.0445
vn -0.3881 -0.9152 0.1088
vn 0.3270 0.7138 0.6193
vn -0.6112 0.7455 0.2659
vn -0.6111 0.7455 0.2659
vn -0.6114 0.7454 0.2658
vn -0.4222 -0.7582 -0.4969
vn -0.6178 0.7038 0.3507
vn 0.9457 -0.0438 0.3222
vn -0.9738 -0.0551 -0.2207
vn 0.5658 -0.7900 -0.2362
vn -0.1362 -0.3597 0.9231
vn -0.1361 -0.3597 0.9231
vn -0.9885 -0.0952 -0.1175
vn -0.9885 -0.0951 -0.1175
vn 0.5947 -0.7890 -0.1544
vn 0.3690 0.8191 0.4392
vn 0.3689 0.8192 0.4392
vn 0.3692 0.8190 0.4392
vn -0.3855 -0.8625 -0.3277
vn -0.3853 -0.8626 -0.3277
vn 0.9720 0.0520 0.2291
vn 0.9720 0.0520 0.2292
vn 0.9721 0.0517 0.2290
vn 0.9968 0.0764 0.0217
vn 0.0001 0.3598 -0.9330
vn -0.0000 0.3600 -0.9330
vn -0.0001 0.3598 -0.9330
vn 0.9815 0.1355 -0.1352
vn 0.9332 -0.2752 0.2312
vn 0.8237 0.5290 0.2039
vn 0.0791 -0.9301 -0.3587
vn 0.9332 0.2752 0.2311
vn 0.8239 -0.5288 0.2039
vn -0.0001 -0.3598 0.9330
vn -0.0001 -0.3599 0.9330
vn 0.3992 0.9158 -0.0444
vn 0.4071 0.6811 0.6086
vn -0.3558 -0.7851 -0.5069
vn -0.5649 0.7351 0.3748
vn 0.9397 0.0058 0.3419
vn -0.9797 -0.0059 -0.2004
vn 0.6052 -0.7655 -0.2184
vn -0.1362 -0.3596 0.9231
vn -0.1366 -0.3597 0.9230
vn -0.1360 -0.3597 0.9231
vn -0.3853 -0.8626 -0.3278
s 1
usemtl white
f 157//1 139//1 159//1
f 139//2 146//2 159//2
f 140//3 142//3 144//3
f 140//4 144//4 146//4
f 144//5 143//5 145//5
f 144//6 147//6 146//6
f 145//7 167//8 166//9
f 146//10 177//11 164//12
f 150//13 163//13 168//14
f 149//15 151//15 159//15
f 151//16 150//16 152//16
f 151//17 153//17 159//17
f 155//18 157//18 159//18
f 139//19 140//19 146//19
f 143//20 144//20 142//20
f 144//21 166//22 161//23
f 186//24 180//25 206//26
f 149//27 159//27 146//27
f 150//28 151//28 149//28
f 192//29 209//30 205//31
f 186//24 192//29 184//32
f 149//32 164//33 184//32
f 208//34 206//35 180//34
f 147//36 198//37 169//38
f 202//39 171//40 148//41
f 172//30 148//42 168//43
f 205//31 172//30 168//43
f 182//44 173//32 168//43
f 167//8 162//45 194//36
f 167//8 175//46 166//9
f 166//9 175//46 189//9
f 181//47 169//48 191//42
f 177//30 147//49 178//26
f 164//50 181//47 179//42
f 189//9 190//46 161//9
f 196//51 169//38 198//37
f 196//51 198//37 197//52
f 197//52 198//37 170//53
f 196//51 208//34 191//54
f 170//53 161//9 190//46
f 187//55 172//30 205//31
f 207//56 165//57 187//55
f 185//58 207//56 209//30
f 228//59 210//59 230//59
f 210//60 217//60 230//60
f 211//61 213//61 215//61
f 211//62 215//62 217//62
f 215//63 214//63 216//63
f 215//64 218//64 217//64
f 216//65 238//66 237//67
f 217//68 248//69 235//68
f 221//70 234//71 239//70
f 220//72 222//72 230//72
f 222//73 221//73 223//73
f 222//74 224//74 230//74
f 226//75 228//75 230//75
f 210//76 211//76 217//76
f 214//77 215//77 213//77
f 215//78 237//79 241//80
f 257//81 251//82 277//83
f 220//84 230//84 217//84
f 221//85 222//85 220//85
f 263//86 280//87 276//88
f 255//89 256//90 244//87
f 220//91 235//92 255//89
f 279//93 277//94 251//95
f 218//96 269//97 240//98
f 273//99 242//100 219//101
f 243//102 219//90 239//88
f 276//88 243//102 239//88
f 253//89 244//87 239//88
f 238//66 233//103 265//103
f 238//66 246//104 237//67
f 237//67 246//104 260//101
f 252//105 240//106 262//107
f 248//108 218//87 249//109
f 235//92 252//105 254//110
f 260//101 261//111 232//112
f 267//93 240//98 269//97
f 267//93 269//97 268//113
f 268//113 269//97 241//104
f 267//93 279//93 262//114
f 241//104 232//112 261//111
f 258//82 243//102 276//88
f 278//115 236//116 258//82
f 278//115 280//87 263//86
f 353//117 358//117 352//117
f 351//118 356//118 353//118
f 356//119 372//119 355//119
f 353//120 359//120 357//120
f 357//121 360//121 358//121
f 356//122 355//122 362//122
f 357//123 359//123 360//123
f 359//124 362//124 363//124
f 360//125 363//125 364//125
f 372//126 368//126 355//126
f 361//127 364//127 370//127
f 364//128 363//128 367//128
f 362//129 366//129 363//129
f 365//130 370//130 375//130
f 367//131 369//131 374//131
f 368//132 371//132 366//132
f 369//133 373//133 374//133
f 374//134 375//134 370//134
f 369//135 371//135 373//135
f 368//136 372//136 379//136
f 371//137 379//137 378//137
f 371//138 378//138 376//138
f 373//139 377//139 374//139
f 374//140 384//140 375//140
f 373//141 376//141 377//141
f 365//142 375//142 384//142
f 376//143 378//143 380//143
f 377//144 380//145 381//146
f 381//147 383//147 377//147
f 372//148 387//148 379//148
f 385//149 386//149 380//149
f 380//150 382//150 381//150
f 383//151 388//151 352//151
f 384//152 352//152 354//152
f 386//153 388//153 382//153
f 384//154 354//154 365//154
f 387//155 351//155 385//155
f 385//156 351//156 386//156
f 351//157 353//157 388//157
f 372//158 356//158 387//158
f 388//159 353//159 352//159
f 352//160 358//160 354//160
f 353//161 357//161 358//161
f 353//162 356//162 359//162
f 354//163 358//163 361//163
f 354//164 361//164 365//164
f 358//165 360//165 361//165
f 359//166 356//166 362//166
f 360//167 359//167 363//167
f 365//168 361//168 370//168
f 361//169 360//169 364//169
f 355//170 368//170 362//170
f 370//171 364//171 367//171
f 362//172 368//172 366//172
f 367//173 363//173 366//173
f 367//174 366//174 369//174
f 370//175 367//175 374//175
f 366//176 371//176 369//176
f 371//177 368//177 379//177
f 373//178 371//178 376//178
f 374//179 377//179 384//179
f 377//144 376//180 380//145
f 378//181 379//181 385//181
f 377//182 383//182 384//182
f 380//183 378//183 385//183
f 379//184 387//184 385//184
f 383//185 381//185 382//185
f 380//186 386//186 382//186
f 383//187 382//187 388//187
f 384//188 383//188 352//188
f 386//189 351//189 388//189
f 387//190 356//190 351//190
f 389//191 390//191 391//191
f 390//192 389//192 394//192
f 389//193 391//193 392//193
f 389//194 392//194 393//194
f 389//195 393//195 394//195
f 390//196 394//196 399//196
f 391//197 390//197 395//197
f 392//198 391//198 396//198
f 393//199 392//199 397//199
f 394//200 393//200 398//200
f 390//201 399//201 395//201
f 391//202 395//202 396//202
f 392//203 396//203 397//203
f 393//204 397//204 398//204
f 394//205 398//205 399//205
f 395//206 399//206 400//206
f 396//207 395//207 400//207
f 397//208 396//208 400//208
f 398//209 397//209 400//209
f 399//210 398//210 400//210
f 401//211 402//211 403//211
f 402//212 401//212 406//212
f 401//213 403//213 404//213
f 401//214 404//214 405//214
f 401//215 405//215 406//215
f 402//216 406//216 411//216
f 403//217 402//217 407//217
f 404//218 403//218 408//218
f 405//219 404//219 409//219
f 406//220 405//220 410//220
f 402//221 411//221 407//221
f 403//222 407//222 408//222
f 404//223 408//223 409//223
f 405//224 409//224 410//224
f 406//225 410//225 411//225
f 407//226 411//226 412//226
f 408//227 407//227 412//227
f 409//228 408//228 412//228
f 410//229 409//229 412//229
f 411//230 410//230 412//230
f 413//231 414//231 415//231
f 414//232 413//232 418//232
f 413//233 415//233 416//233
f 413//234 416//234 417//234
f 413//235 417//235 418//235
f 414//236 418//236 423//236
f 415//237 414//237 419//237
f 416//238 415//238 420//238
f 417//239 416//239 421//239
f 418//240 417//240 422//240
f 414//241 423//241 419//241
f 415//242 419//242 420//242
f 416//243 420//243 421//243
f 417//244 421//244 422//244
f 418//245 422//245 423//245
f 419//246 423//246 424//246
f 420//247 419//247 424//247
f 421//248 420//248 424//248
f 422//249 421//249 424//249
f 423//250 422//250 424//250
f 425//251 426//251 427//251
f 426//252 425//252 430//252
f 425//253 427//253 428//253
f 425//254 428//254 429//254
f 425//255 429//255 430//255
f 426//256 430//256 435//256
f 427//257 426//257 431//257
f 428//258 427//258 432//258
f 429//259 428//259 433//259
f 430//260 429//260 434//260
f 426//261 435//261 431//261
f 427//262 431//262 432//262
f 428//263 432//263 433//263
f 429//264 433//264 434//264
f 430//265 434//265 435//265
f 431//266 435//266 436//266
f 432//267 431//267 436//267
f 433//268 432//268 436//268
f 434//269 433//269 436//269
f 435//270 434//270 436//270
f 437//271 438//271 439//271
f 438//272 437//272 442//272
f 437//273 439//273 440//273
f 437//274 440//274 441//274
f 437//275 441//275 442//275
f 438//276 442//276 447//276
f 439//277 438//277 443//277
f 440//278 439//278 444//278
f 441//279 440//279 445//279
f 442//280 441//280 446//280
f 438//281 447//281 443//281
f 439//282 443//282 444//282
f 440//283 444//283 445//283
f 441//284 445//284 446//284
f 442//285 446//285 447//285
f 443//286 447//286 448//286
f 444//287 443//287 448//287
f 445//288 444//288 448//288
f 446//289 445//289 448//289
f 447//290 446//290 448//290
f 449//291 450//291 451//291
f 450//292 449//292 454//292
f 449//293 451//293 452//293
f 449//294 452//294 453//294
f 449//295 453//295 454//295
f 450//296 454//296 459//296
f 451//297 450//297 455//297
f 452//298 451//298 456//298
f 453//299 452//299 457//299
f 454//300 453//300 458//300
f 450//301 459//301 455//301
f 451//302 455//302 456//302
f 452//303 456//303 457//303
f 453//304 457//304 458//304
f 454//305 458//305 459//305
f 455//306 459//306 460//306
f 456//307 455//307 460//307
f 457//308 456//308 460//308
f 458//309 457//309 460//309
f 459//310 458//310 460//310
f 177//11 146//10 147//11
f 146//10 164//12 149//10
f 163//13 150//13 149//311
f 150//13 168//14 148//14
f 144//21 170//23 147//23
f 144//21 161//23 170//23
f 166//22 144//21 145//312
f 180//25 179//42 181//47
f 186//24 206//26 165//57
f 180//25 186//24 179//42
f 192//29 205//31 173//32
f 207//56 186//24 165//57
f 186//313 183//314 179//315
f 183//316 184//32 164//33
f 184//32 182//44 163//316
f 185//58 186//24 207//56
f 186//24 184//32 183//316
f 184//32 173//32 182//44
f 192//29 186//24 185//58
f 184//32 192//29 173//32
f 149//32 184//32 163//316
f 208//34 180//34 191//54
f 198//37 147//36 170//53
f 147//317 169//318 178//319
f 202//39 148//41 172//51
f 205//31 168//43 173//32
f 182//44 168//43 163//316
f 167//8 194//36 175//46
f 166//9 189//9 161//9
f 169//48 181//47 178//26
f 181//47 191//42 180//25
f 177//30 178//26 181//47
f 181//47 164//50 177//30
f 164//320 179//321 183//322
f 196//51 191//54 169//38
f 170//53 190//46 197//52
f 187//55 205//31 209//30
f 207//56 187//55 209//30
f 185//58 209//30 192//29
f 248//69 217//68 218//68
f 217//68 235//68 220//323
f 234//71 221//70 220//324
f 221//70 239//70 219//325
f 215//78 241//80 218//326
f 241//327 237//328 232//329
f 237//79 215//78 216//330
f 251//82 250//331 252//105
f 257//81 277//83 236//116
f 251//82 257//81 250//331
f 263//86 276//88 244//87
f 278//115 257//81 236//116
f 278//115 250//331 257//81
f 256//90 250//331 278//115
f 254//110 255//89 235//92
f 256//90 254//110 250//331
f 255//89 253//89 234//88
f 256//90 255//89 254//110
f 244//332 256//333 263//334
f 255//89 244//87 253//89
f 220//91 255//89 234//88
f 279//93 251//95 262//114
f 269//97 218//96 241//104
f 218//335 240//336 249//337
f 273//99 219//101 243//338
f 276//88 239//88 244//87
f 253//89 239//88 234//88
f 238//66 265//103 246//104
f 237//67 260//101 232//112
f 240//106 252//105 249//109
f 252//105 262//107 251//82
f 248//108 249//109 252//105
f 252//105 235//92 248//108
f 254//110 252//105 250//331
f 267//93 262//114 240//98
f 241//104 261//111 268//113
f 258//82 276//88 280//87
f 278//115 258//82 280//87
f 278//339 263//340 256//341
usemtl darkbrown
f 72//342 71//343 61//344
f 59//345 60//345 74//345
f 65//346 68//346 66//346
f 70//347 68//347 72//347
f 73//348 58//348 62//348
f 73//349 61//349 71//349
f 59//350 74//350 69//350
f 73//351 74//351 60//351
f 61//352 60//352 59//352
f 58//353 63//353 62//353
f 67//354 74//354 62//354
f 58//355 71//355 64//355
f 71//343 72//342 65//356
f 72//357 68//357 65//357
f 66//358 67//358 63//358
f 65//359 66//359 63//359
f 65//360 63//360 64//360
f 73//361 71//361 58//361
f 70//362 59//362 69//362
f 70//363 72//363 59//363
f 73//364 62//364 74//364
f 61//365 73//365 60//365
f 59//366 72//366 61//366
f 63//367 67//367 62//367
f 58//368 64//368 63//368
f 71//369 65//369 64//369
f 69//370 66//370 70//370
f 70//371 66//371 68//371
f 74//372 67//372 69//372
f 66//373 69//373 67//373
f 89//374 78//375 88//376
f 76//377 91//377 77//377
f 82//378 83//378 85//378
f 87//379 89//379 85//379
f 90//380 79//380 75//380
f 90//381 88//381 78//381
f 76//382 86//382 91//382
f 90//383 77//383 91//383
f 78//384 76//384 77//384
f 75//385 79//385 80//385
f 84//386 79//386 91//386
f 75//387 81//387 88//387
f 88//376 82//388 89//374
f 89//389 82//389 85//389
f 83//390 80//390 84//390
f 82//391 80//391 83//391
f 82//392 81//392 80//392
f 90//393 75//393 88//393
f 87//394 86//394 76//394
f 87//395 76//395 89//395
f 90//396 91//396 79//396
f 78//397 77//397 90//397
f 76//398 78//398 89//398
f 80//399 79//399 84//399
f 75//400 80//400 81//400
f 88//401 81//401 82//401
f 86//402 87//402 83//402
f 87//403 85//403 83//403
f 91//404 86//404 84//404
f 83//405 84//405 86//405
f 92//406 101//406 100//406
f 93//407 101//407 103//407
f 92//408 100//408 104//408
f 93//409 103//409 106//409
f 94//410 102//410 107//410
f 95//411 105//411 109//411
f 93//412 106//412 108//412
f 94//413 107//413 110//413
f 96//414 111//414 114//414
f 97//415 112//415 116//415
f 106//416 103//416 98//416
f 116//417 99//417 113//417
f 101//418 92//418 103//418
f 109//419 113//419 95//419
f 113//420 97//420 116//420
f 116//421 114//421 99//421
f 116//422 112//422 114//422
f 112//423 96//423 114//423
f 114//424 115//424 99//424
f 114//425 111//425 115//425
f 111//426 98//426 115//426
f 109//427 97//427 113//427
f 110//428 112//428 97//428
f 110//429 107//429 112//429
f 107//430 96//430 112//430
f 108//431 111//431 96//431
f 108//432 106//432 111//432
f 106//433 98//433 111//433
f 109//434 110//434 97//434
f 109//435 105//435 110//435
f 105//436 94//436 110//436
f 107//437 108//437 96//437
f 107//438 102//438 108//438
f 102//439 93//439 108//439
f 104//440 105//440 95//440
f 104//441 100//441 105//441
f 100//442 94//442 105//442
f 100//443 102//443 94//443
f 100//444 101//444 102//444
f 101//445 93//445 102//445
f 98//446 95//446 99//446
f 135//447 137//447 117//447
f 117//448 137//448 124//448
f 118//449 122//449 120//449
f 118//450 124//450 122//450
f 122//451 123//451 121//451
f 122//452 124//452 125//452
f 123//453 125//453 126//453
f 125//454 124//454 127//454
f 127//455 128//455 126//455
f 127//456 137//456 129//456
f 129//457 130//457 128//457
f 129//458 137//458 131//458
f 126//459 130//459 138//459
f 133//460 137//460 135//461
f 117//462 124//462 118//462
f 121//463 120//463 122//463
f 122//464 125//464 123//464
f 125//465 127//465 126//465
f 127//466 124//466 137//466
f 128//467 127//467 129//467
f 138//459 119//459 121//459
f 123//459 126//459 121//459
f 130//459 132//459 134//459
f 134//459 136//459 138//459
f 126//459 128//459 130//459
f 130//459 134//459 138//459
f 138//459 121//459 126//459
f 148//468 160//468 152//468
f 160//468 143//468 141//468
f 167//468 143//468 171//468
f 152//468 156//468 154//468
f 156//468 160//468 158//468
f 148//468 152//468 150//468
f 152//468 160//468 156//468
f 160//468 148//468 143//468
f 219//468 231//468 223//468
f 231//468 214//468 212//468
f 238//468 214//468 242//468
f 223//468 227//468 225//468
f 227//468 231//468 229//468
f 219//468 223//468 221//468
f 223//468 231//468 227//468
f 231//468 219//468 214//468
f 299//469 301//469 281//469
f 281//470 301//470 288//470
f 282//471 286//471 284//471
f 282//472 288//472 286//472
f 286//473 287//473 285//473
f 286//474 288//474 289//474
f 287//475 289//475 290//475
f 289//476 288//476 291//476
f 291//477 292//477 290//477
f 291//478 301//478 293//478
f 293//479 294//479 292//479
f 293//480 301//480 295//480
f 290//459 294//459 302//459
f 297//481 301//481 299//481
f 281//482 288//482 282//482
f 285//483 284//483 286//483
f 286//484 289//484 287//484
f 289//485 291//485 290//485
f 291//486 288//486 301//486
f 292//487 291//487 293//487
f 302//459 283//459 285//459
f 287//459 290//459 285//459
f 294//459 296//459 298//459
f 298//459 300//459 302//459
f 290//459 292//459 294//459
f 294//459 298//459 302//459
f 302//459 285//459 290//459
f 305//488 304//488 303//488
f 304//489 306//489 312//489
f 306//490 308//490 312//490
f 306//491 309//491 308//491
f 309//492 307//492 310//492
f 307//493 303//493 310//493
f 314//494 309//459 310//495
f 312//496 314//496 311//496
f 303//497 313//497 310//497
f 311//498 314//498 313//498
f 303//499 307//499 305//499
f 304//500 305//500 306//500
f 306//501 307//501 309//501
f 306//502 305//502 307//502
f 304//503 312//503 311//503
f 314//494 308//504 309//459
f 312//505 308//505 314//505
f 303//506 311//506 313//506
f 314//494 310//495 313//507
f 304//508 311//508 303//508
f 315//509 318//509 317//509
f 318//510 324//510 317//510
f 319//511 320//511 324//511
f 319//512 321//512 320//512
f 318//502 316//502 319//502
f 321//513 316//513 322//513
f 316//514 315//514 322//514
f 326//494 321//459 322//495
f 324//515 326//515 323//515
f 315//516 325//516 322//516
f 323//517 326//517 325//517
f 315//518 316//518 318//518
f 318//519 319//519 324//519
f 321//520 319//520 316//520
f 317//521 324//521 323//521
f 326//494 320//504 321//459
f 324//522 320//522 326//522
f 315//523 323//523 325//523
f 326//494 322//495 325//507
f 317//524 323//524 315//524
f 330//525 329//525 327//525
f 329//526 331//526 336//526
f 331//527 333//527 336//527
f 332//528 334//528 333//528
f 330//529 328//529 332//529
f 328//530 327//530 334//530
f 329//531 336//531 335//531
f 338//459 333//532 334//459
f 336//533 338//533 335//533
f 327//534 337//534 334//534
f 327//535 328//535 330//535
f 329//536 330//536 331//536
f 331//537 332//537 333//537
f 331//529 330//529 332//529
f 334//538 332//538 328//538
f 336//539 333//539 338//539
f 335//540 338//540 337//540
f 327//541 335//541 337//541
f 338//459 334//459 337//459
f 329//542 335//542 327//542
f 339//543 342//543 348//543
f 343//544 345//544 348//544
f 344//545 346//545 345//545
f 341//468 340//546 344//468
f 340//547 339//547 346//547
f 349//459 345//459 346//459
f 345//548 350//548 348//548
f 348//549 350//549 347//549
f 339//550 349//550 346//550
f 347//551 349//551 339//551
f 348//552 347//552 339//552
f 339//553 340//553 341//553
f 339//554 341//554 342//554
f 342//555 343//555 348//555
f 343//556 344//556 345//556
f 344//468 343//557 342//468
f 342//468 341//468 344//468
f 346//558 344//558 340//558
f 349//459 350//459 345//459
f 347//559 350//559 349//559
f 95//560 92//560 104//560
f 92//561 98//561 103//561
f 98//562 99//562 115//562
f 99//563 95//563 113//563
f 95//564 98//564 92//564
f 143//468 167//468 145//468
s 0
f 167//565 171//566 162//567
s 1
f 171//468 143//468 148//468
f 214//468 238//468 216//468
f 238//568 242//569 233//570
f 242//468 214//468 219//468
usemtl black
f 193//8 203//8 174//9
f 162//45 193//8 194//36
f 190//46 176//9 197//52
f 176//9 196//51 197//52
f 174//9 188//35 199//35
f 174//9 199//35 200//9
f 175//46 201//35 189//9
f 171//40 202//39 203//8
f 174//9 204//36 188//35
f 461//571 172//51 187//572
f 204//36 187//35 188//35
f 188//35 187//35 165//35
f 202//39 172//51 461//571
f 202//39 204//36 203//8
f 203//8 204//36 174//9
f 201//35 176//9 190//46
f 201//35 190//46 189//9
f 199//35 176//9 201//35
f 199//35 201//35 200//9
f 200//9 201//35 175//46
f 188//35 165//35 195//34
f 188//35 195//34 199//35
f 199//35 195//34 176//9
f 195//34 165//35 206//35
f 196//51 176//9 195//34
f 193//8 174//9 200//9
f 193//8 200//9 194//36
f 194//36 200//9 175//46
f 193//8 162//45 171//45
f 264//97 274//573 245//97
f 233//103 264//97 265//103
f 261//111 247//574 268//113
f 247//574 267//93 268//113
f 245//97 259//97 270//111
f 245//97 270//111 271//97
f 246//104 272//100 260//101
f 242//100 273//99 274//573
f 245//97 275//111 259//97
f 275//111 243//338 258//575
f 275//111 258//575 259//97
f 259//97 258//575 236//338
f 273//99 243//338 275//111
f 273//99 275//111 274//573
f 274//573 275//111 245//97
f 272//100 247//574 261//111
f 272//100 261//111 260//101
f 270//111 247//574 272//100
f 270//111 272//100 271//97
f 271//97 272//100 246//104
f 259//97 236//338 266//576
f 259//97 266//576 270//111
f 270//111 266//576 247//574
f 266//576 236//338 277//94
f 267//93 247//574 266//576
f 264//97 245//97 271//97
f 264//97 271//97 265//103
f 265//103 271//97 246//104
f 264//97 233//103 242//100
f 195//34 206//35 208//34
f 196//51 195//34 208//34
f 193//8 171//40 203//8
f 266//576 277//94 279//93
f 267//93 266//576 279//93
f 264//97 242//100 274//573
usemtl green
f 1//577 3//577 2//577
f 1//578 9//578 3//578
f 2//579 3//579 4//579
f 3//580 5//580 4//580
f 3//581 9//581 6//581
f 5//582 6//582 7//582
f 9//583 1//583 6//583
f 8//584 2//584 4//584
f 3//585 6//585 5//585
f 4//586 5//586 7//586
f 7//587 6//587 1//587
f 4//588 7//588 8//588
f 7//589 1//589 8//589
f 1//590 2//590 8//590
f 10//591 12//591 11//591
f 10//592 21//592 12//592
f 11//593 12//593 13//593
f 12//594 15//594 13//594
f 13//595 15//595 16//595
f 21//596 14//596 12//596
f 14//597 21//597 17//597
f 15//598 17//598 18//598
f 21//599 19//599 17//599
f 16//600 20//600 13//600
f 19//601 10//601 11//601
f 19//602 21//602 10//602
f 20//603 11//603 13//603
f 15//604 12//604 14//604
f 14//605 17//605 15//605
f 16//606 15//606 18//606
f 18//607 17//607 19//607
f 16//608 18//608 20//608
f 18//609 19//609 20//609
f 19//610 11//610 20//610
usemtl brown
f 24//611 22//611 23//611
f 24//612 25//612 27//612
f 26//613 27//613 29//613
f 28//614 29//614 31//614
s 0
f 27//615 25//616 34//617
s 1
f 32//618 30//618 31//618
f 22//619 32//619 33//619
f 32//620 24//621 28//622
f 43//623 37//623 36//623
s 0
f 33//624 31//625 38//626
f 25//627 23//616 35//628
f 29//629 27//625 36//630
f 23//631 33//625 39//632
f 31//633 29//616 37//634
s 1
f 42//635 41//636 44//635
f 34//637 35//638 41//639
f 35//640 39//640 45//641
f 44//642 38//642 37//642
f 42//643 36//643 34//643
f 39//644 38//644 44//644
f 25//645 46//645 48//645
f 46//646 47//647 53//648
f 33//649 31//649 50//649
f 23//650 47//650 46//650
f 29//651 27//651 48//651
f 33//652 51//652 47//652
f 31//653 29//653 49//653
f 54//654 53//655 56//655
f 51//656 57//657 53//656
f 49//658 55//658 56//658
f 48//659 46//660 52//661
f 51//662 50//662 56//663
f 48//664 54//665 55//666
f 24//611 23//611 25//611
f 24//612 27//612 26//612
f 26//667 29//667 28//667
f 28//614 31//614 30//614
s 0
f 27//626 34//624 36//625
s 1
f 32//618 31//618 33//618
f 22//619 33//619 23//619
f 24//621 32//620 22//668
f 32//620 28//622 30//669
f 28//622 24//621 26//670
f 43//671 36//671 42//671
s 0
f 33//617 38//615 39//616
f 25//672 35//673 34//625
f 29//632 36//674 37//625
f 23//630 39//629 35//625
f 31//675 37//676 38//616
s 1
f 41//636 42//635 40//635
f 42//635 44//635 43//677
f 44//635 41//636 45//678
f 34//637 41//639 40//639
f 35//640 45//641 41//641
f 44//642 37//642 43//642
f 42//679 34//679 40//679
f 39//644 44//644 45//644
f 25//680 48//680 27//680
f 46//646 53//648 52//648
f 33//681 50//681 51//681
f 23//682 46//682 25//682
f 29//683 48//683 49//683
f 33//684 47//684 23//684
f 31//685 49//685 50//685
f 53//655 54//654 52//686
f 54//654 56//655 55//687
f 56//655 53//655 57//688
f 51//656 53//656 47//656
f 49//658 56//658 50//658
f 48//659 52//661 54//661
f 51//662 56//663 57//689
f 48//664 55//666 49//664
