# Blender 5.1.0
# www.blender.org
mtllib terrain.mtl
o land
v 8.071235 1.259186 -7.574322 0.8902 1.0000 0.2392
v -7.928229 1.259186 -7.705498 0.8902 1.0000 0.2392
v 7.940051 0.069889 8.425142 0.8902 1.0000 0.2392
v -8.059404 0.069889 8.293966 0.8902 1.0000 0.2392
v 0.071499 3.030273 -7.639906 0.8902 1.0000 0.2392
v -7.993821 0.143489 0.294230 0.8902 1.0000 0.2392
v -0.059677 0.072905 8.359550 0.8902 1.0000 0.2392
v 8.038444 0.333057 -3.574450 0.8902 1.0000 0.2392
v -3.928365 1.625818 -7.672706 0.8902 1.0000 0.2392
v 3.940188 0.072905 8.392350 0.8902 1.0000 0.2392
v 7.972852 0.072905 4.425278 0.8902 1.0000 0.2392
v 4.071372 2.378769 -7.607114 0.8902 1.0000 0.2392
v -7.961021 0.728673 -3.705635 0.8902 1.0000 0.2392
v -4.059541 0.069889 8.326757 0.8902 1.0000 0.2392
v -0.124757 1.644409 4.426262 0.8902 1.0000 0.2392
v -0.109245 3.110209 -4.311946 0.8902 1.0000 0.2392
v -4.333252 1.137897 -4.056330 0.8902 1.0000 0.2392
v 4.394156 1.857353 -3.133186 0.8902 1.0000 0.2392
v 4.375290 1.338809 4.712774 0.8902 1.0000 0.2392
v -3.625349 0.775641 4.124014 0.8902 1.0000 0.2392
v 8.054835 0.919113 -5.574386 0.8902 1.0000 0.2392
v -5.928293 1.259186 -7.689097 0.8902 1.0000 0.2392
v -8.043013 0.069889 6.294030 0.8902 1.0000 0.2392
v 5.940123 0.069889 8.408750 0.8902 1.0000 0.2392
v 7.989244 0.072905 2.425342 0.8902 1.0000 0.2392
v 2.071434 3.030273 -7.623514 0.8902 1.0000 0.2392
v -7.977421 0.755465 -1.705698 0.8902 1.0000 0.2392
v -2.059613 0.069889 8.343158 0.8902 1.0000 0.2392
v 0.259762 0.513241 6.448654 0.8902 1.0000 0.2392
v -1.928429 2.378769 -7.656306 0.8902 1.0000 0.2392
v 1.940259 0.072905 8.375950 0.8902 1.0000 0.2392
v 7.956452 0.069889 6.425214 0.8902 1.0000 0.2392
v 6.071299 1.625818 -7.590714 0.8902 1.0000 0.2392
v -7.944629 1.064377 -5.705562 0.8902 1.0000 0.2392
v -6.059476 0.069889 8.310358 0.8902 1.0000 0.2392
v 0.122387 3.344969 -5.583874 0.8902 1.0000 0.2392
v -4.097957 1.593601 -1.807050 0.8902 1.0000 0.2392
v -3.938125 1.472065 -5.556306 0.8902 1.0000 0.2392
v -2.135316 2.144410 -4.368650 0.8902 1.0000 0.2392
v -6.013149 0.726505 -3.710098 0.8902 1.0000 0.2392
v 4.065804 2.394802 -5.597122 0.8902 1.0000 0.2392
v 5.950827 0.583185 -3.677931 0.8902 1.0000 0.2392
v 2.154475 2.873722 -3.342938 0.8902 1.0000 0.2392
v 3.909396 0.507689 6.013862 0.8902 1.0000 0.2392
v 3.958666 1.306937 1.927206 0.8902 1.0000 0.2392
v 5.689547 1.016649 4.272590 0.8902 1.0000 0.2392
v 2.314827 1.716473 4.524534 0.8902 1.0000 0.2392
v -3.716853 0.290009 5.973550 0.8902 1.0000 0.2392
v -2.259884 1.039553 4.614422 0.8902 1.0000 0.2392
v -6.026677 0.267673 4.310494 0.8902 1.0000 0.2392
v -1.534437 0.059385 6.525030 0.8902 1.0000 0.2392
v 2.058123 1.790281 2.462558 0.8902 1.0000 0.2392
v 5.805140 0.708649 2.353910 0.8902 1.0000 0.2392
v 5.443091 0.642329 5.823550 0.8902 1.0000 0.2392
v 2.095562 3.423841 -5.679322 0.8902 1.0000 0.2392
v 6.034235 1.279017 -5.595410 0.8902 1.0000 0.2392
v -5.494189 1.430362 -5.900979 0.8902 1.0000 0.2392
v -1.869133 2.651177 -5.696858 0.8902 1.0000 0.2392
v -1.977621 1.550273 -1.656506 0.8902 1.0000 0.2392
v -6.276221 0.868753 -1.848426 0.8902 1.0000 0.2392
v 1.960066 0.941681 6.356966 0.8902 1.0000 0.2392
v -5.746949 0.163513 5.948606 0.8902 1.0000 0.2392
v -2.968541 1.327225 -1.477730 0.8902 1.0000 0.2392
v -3.985085 0.931105 -0.753994 0.8902 1.0000 0.2392
v -3.733765 0.585137 2.836782 0.8902 1.0000 0.2392
v -2.940588 0.840513 2.335734 0.8902 1.0000 0.2392
v -8.022348 0.150769 3.773614 0.8902 1.0000 0.2392
v -7.089797 0.241425 3.961558 0.8902 1.0000 0.2392
v -5.313877 0.381369 3.655462 0.8902 1.0000 0.2392
v -4.375253 0.433889 3.363254 0.8902 1.0000 0.2392
v -5.996189 0.501777 0.591494 0.8902 1.0000 0.2392
v -7.086997 0.340617 0.972350 0.8902 1.0000 0.2392
v -1.946053 1.027921 2.249382 0.8902 1.0000 0.2392
v -0.911437 1.220697 1.687342 0.8902 1.0000 0.2392
v 3.539971 1.001473 0.850846 0.8902 1.0000 0.2392
v 1.999947 1.145913 1.095910 0.8902 1.0000 0.2392
v 0.312027 1.418393 1.811326 0.8902 1.0000 0.2392
v 8.000052 -0.071959 1.107278 0.8902 1.0000 0.2392
v 5.515803 0.360841 0.521214 0.8902 1.0000 0.2392
v 6.662980 0.333281 -2.221362 0.8902 1.0000 0.2392
v 8.024468 0.333057 -1.870682 0.8902 1.0000 0.2392
v 4.222363 1.312089 -2.291562 0.8902 1.0000 0.2392
v 5.379603 0.498873 -2.711170 0.8902 1.0000 0.2392
v 0.028683 2.467978 -2.417794 0.8902 1.0000 0.2392
v -4.796117 0.606993 0.138686 0.8902 1.0000 0.2392
v 2.865771 1.979041 -2.453522 0.8902 1.0000 0.2392
v 2.162915 2.555354 -2.663474 0.8902 1.0000 0.2392
v 8.071235 -1.575767 -7.574322 0.8902 1.0000 0.2392
v -7.928229 -1.575767 -7.705498 0.8902 1.0000 0.2392
v 7.940051 -1.575767 8.425142 0.8902 1.0000 0.2392
v -8.059404 -1.575767 8.293966 0.8902 1.0000 0.2392
v 0.071499 -1.575767 -7.639906 0.8902 1.0000 0.2392
v -8.091692 -1.575767 0.360806 0.8902 1.0000 0.2392
v -0.059677 -1.575767 8.359550 0.8902 1.0000 0.2392
v 8.038444 -1.575767 -3.574450 0.8902 1.0000 0.2392
v -3.928365 -1.575767 -7.672706 0.8902 1.0000 0.2392
v 3.940188 -1.575767 8.392350 0.8902 1.0000 0.2392
v 7.972852 -1.575767 4.425278 0.8902 1.0000 0.2392
v 4.071372 -1.575767 -7.607114 0.8902 1.0000 0.2392
v -7.961021 -1.575767 -3.705635 0.8902 1.0000 0.2392
v -4.059541 -1.575767 8.326757 0.8902 1.0000 0.2392
v 8.054835 -1.575767 -5.574386 0.8902 1.0000 0.2392
v -5.928293 -1.575767 -7.689097 0.8902 1.0000 0.2392
v -8.043013 -1.575767 6.294030 0.8902 1.0000 0.2392
v 5.940123 -1.575767 8.408750 0.8902 1.0000 0.2392
v 7.989244 -1.575767 2.425342 0.8902 1.0000 0.2392
v 2.071434 -1.575767 -7.623514 0.8902 1.0000 0.2392
v -7.977421 -1.575767 -1.705698 0.8902 1.0000 0.2392
v -2.059613 -1.575767 8.343158 0.8902 1.0000 0.2392
v -1.928429 -1.575767 -7.656306 0.8902 1.0000 0.2392
v 1.940259 -1.575767 8.375950 0.8902 1.0000 0.2392
v 7.956452 -1.575767 6.425214 0.8902 1.0000 0.2392
v 6.071299 -1.575767 -7.590714 0.8902 1.0000 0.2392
v -7.944629 -1.575767 -5.705562 0.8902 1.0000 0.2392
v -6.059476 -1.575767 8.310358 0.8902 1.0000 0.2392
v -6.124548 -1.575767 4.377070 0.8902 1.0000 0.2392
v -2.125573 -1.575767 -2.328410 0.8902 1.0000 0.2392
v -3.340637 -1.575767 -1.861226 0.8902 1.0000 0.2392
v -3.629508 -1.575767 -0.279930 0.8902 1.0000 0.2392
v -3.881717 -1.575767 2.164878 0.8902 1.0000 0.2392
v -3.312685 -1.575767 1.952238 0.8902 1.0000 0.2392
v -8.027685 -1.575767 4.244718 0.8902 1.0000 0.2392
v -6.687485 -1.575767 4.281846 0.8902 1.0000 0.2392
v -4.912485 -1.575767 3.452574 0.8902 1.0000 0.2392
v -4.072205 -1.575767 3.452294 0.8902 1.0000 0.2392
v -5.593876 -1.575767 0.911774 0.8902 1.0000 0.2392
v -6.685605 -1.575767 0.769470 0.8902 1.0000 0.2392
v -1.878773 -1.575767 2.305478 0.8902 1.0000 0.2392
v -1.031837 -1.575767 1.553198 0.8902 1.0000 0.2392
v 3.546603 -1.575767 0.967310 0.8902 1.0000 0.2392
v 1.825852 -1.575767 0.383702 0.8902 1.0000 0.2392
v 0.259963 -1.575767 1.790462 0.8902 1.0000 0.2392
v 8.010884 -1.575767 1.117334 0.8902 1.0000 0.2392
v 5.428124 -1.575767 0.434134 0.8902 1.0000 0.2392
v 6.966027 -1.575767 -2.132330 0.8902 1.0000 0.2392
v 8.091748 -1.575767 -1.814586 0.8902 1.0000 0.2392
v 4.101971 -1.575767 -2.425706 0.8902 1.0000 0.2392
v 5.386235 -1.575767 -2.594706 0.8902 1.0000 0.2392
v -0.145404 -1.575767 -3.130010 0.8902 1.0000 0.2392
v -4.848173 -1.575767 0.117822 0.8902 1.0000 0.2392
v 2.876595 -1.575767 -2.443458 0.8902 1.0000 0.2392
v 2.075236 -1.575767 -2.750562 0.8902 1.0000 0.2392
v -8.059404 -2.054646 8.293966 0.8902 1.0000 0.2392
v -8.043013 -2.054646 6.294030 0.8902 1.0000 0.2392
v -6.059476 -2.054646 8.310358 0.8902 1.0000 0.2392
v -0.059677 -2.054646 8.359550 0.8902 1.0000 0.2392
v 1.940259 -2.054646 8.375950 0.8902 1.0000 0.2392
v -8.091692 -2.054646 0.360806 0.8902 1.0000 0.2392
v -7.977421 -2.054646 -1.705698 0.8902 1.0000 0.2392
v -7.961021 -2.054646 -3.705635 0.8902 1.0000 0.2392
v -7.944629 -2.054646 -5.705562 0.8902 1.0000 0.2392
v 3.940188 -2.054646 8.392350 0.8902 1.0000 0.2392
v 5.940123 -2.054646 8.408750 0.8902 1.0000 0.2392
v -4.059541 -2.054646 8.326757 0.8902 1.0000 0.2392
v -2.059613 -2.054646 8.343158 0.8902 1.0000 0.2392
v -3.881717 -2.054646 2.164878 0.8902 1.0000 0.2392
v -3.312685 -2.054646 1.952238 0.8902 1.0000 0.2392
v -4.912485 -2.054646 3.452574 0.8902 1.0000 0.2392
v -4.072205 -2.054646 3.452294 0.8902 1.0000 0.2392
v -5.593876 -2.054646 0.911774 0.8902 1.0000 0.2392
v -6.685605 -2.054646 0.769470 0.8902 1.0000 0.2392
v 4.101971 -2.054646 -2.425706 0.8902 1.0000 0.2392
v 5.386235 -2.054646 -2.594706 0.8902 1.0000 0.2392
v 7.972852 -2.054646 4.425278 0.8902 1.0000 0.2392
v 7.989244 -2.054646 2.425342 0.8902 1.0000 0.2392
v 8.010884 -2.054646 1.117334 0.8902 1.0000 0.2392
v 7.940051 -2.054646 8.425142 0.8902 1.0000 0.2392
v 7.956452 -2.054646 6.425214 0.8902 1.0000 0.2392
v 4.071372 -2.054646 -7.607114 0.8902 1.0000 0.2392
v 2.071434 -2.054646 -7.623514 0.8902 1.0000 0.2392
v 0.071499 -2.054646 -7.639906 0.8902 1.0000 0.2392
v 8.038444 -2.054646 -3.574450 0.8902 1.0000 0.2392
v 8.054835 -2.054646 -5.574386 0.8902 1.0000 0.2392
v 8.071235 -2.054646 -7.574322 0.8902 1.0000 0.2392
v 6.071299 -2.054646 -7.590714 0.8902 1.0000 0.2392
v 8.091748 -2.054646 -1.814586 0.8902 1.0000 0.2392
v -3.928365 -2.054646 -7.672706 0.8902 1.0000 0.2392
v -5.928293 -2.054646 -7.689097 0.8902 1.0000 0.2392
v -7.928229 -2.054646 -7.705498 0.8902 1.0000 0.2392
v -1.928429 -2.054646 -7.656306 0.8902 1.0000 0.2392
v -3.629508 -2.054646 -0.279930 0.8902 1.0000 0.2392
v -4.848173 -2.054646 0.117822 0.8902 1.0000 0.2392
v 2.876595 -2.054646 -2.443458 0.8902 1.0000 0.2392
v 2.075236 -2.054646 -2.750562 0.8902 1.0000 0.2392
v 1.825852 -2.054646 0.383702 0.8902 1.0000 0.2392
v 0.259963 -2.054646 1.790462 0.8902 1.0000 0.2392
v -3.340637 -2.054646 -1.861226 0.8902 1.0000 0.2392
v -2.125573 -2.054646 -2.328410 0.8902 1.0000 0.2392
v -1.878773 -2.054646 2.305478 0.8902 1.0000 0.2392
v -6.687485 -2.054646 4.281846 0.8902 1.0000 0.2392
v -6.124548 -2.054646 4.377070 0.8902 1.0000 0.2392
v -8.027685 -2.054646 4.244718 0.8902 1.0000 0.2392
v -1.031837 -2.054646 1.553198 0.8902 1.0000 0.2392
v 3.546603 -2.054646 0.967310 0.8902 1.0000 0.2392
v 5.428124 -2.054646 0.434134 0.8902 1.0000 0.2392
v 6.966027 -2.054646 -2.132330 0.8902 1.0000 0.2392
v -0.145404 -2.054646 -3.130010 0.8902 1.0000 0.2392
v -6.338132 -0.225663 7.407582 0.8902 1.0000 0.2392
v -7.455605 0.445385 6.689462 0.8902 1.0000 0.2392
v -8.051212 0.069889 7.293998 0.8902 1.0000 0.2392
v -7.059445 0.069889 8.302166 0.8902 1.0000 0.2392
v 1.997939 0.398457 7.258494 0.8902 1.0000 0.2392
v 0.866187 1.048089 6.610926 0.8902 1.0000 0.2392
v -0.095821 0.505985 7.280022 0.8902 1.0000 0.2392
v 0.940291 0.072905 8.367750 0.8902 1.0000 0.2392
v -6.572876 0.743737 -1.765314 0.8902 1.0000 0.2392
v -7.985621 0.449481 -0.705730 0.8902 1.0000 0.2392
v -2.938964 1.200449 -1.946194 0.8902 1.0000 0.2392
v -3.980253 1.103401 -1.213290 0.8902 1.0000 0.2392
v -2.401669 2.692634 -4.199634 0.8902 1.0000 0.2392
v -2.951341 1.995777 -5.674410 0.8902 1.0000 0.2392
v -4.196117 0.906369 -4.980466 0.8902 1.0000 0.2392
v -3.469621 1.832833 -3.304034 0.8902 1.0000 0.2392
v -6.433373 1.234529 -5.006691 0.8902 1.0000 0.2392
v -7.198541 1.370497 -5.761458 0.8902 1.0000 0.2392
v -7.952821 0.896521 -4.705602 0.8902 1.0000 0.2392
v -6.569693 0.780433 -3.470114 0.8902 1.0000 0.2392
v 6.337946 1.253681 -4.762138 0.8902 1.0000 0.2392
v 5.049963 1.978281 -5.591370 0.8902 1.0000 0.2392
v 3.539788 2.356617 -4.655458 0.8902 1.0000 0.2392
v 4.766644 1.385833 -4.010722 0.8902 1.0000 0.2392
v 2.136635 3.625673 -4.461138 0.8902 1.0000 0.2392
v 0.751956 2.956537 -5.989066 0.8902 1.0000 0.2392
v -0.425350 3.109489 -4.699514 0.8902 1.0000 0.2392
v 1.019244 2.972281 -2.938802 0.8902 1.0000 0.2392
v 5.993939 0.787025 6.919566 0.8902 1.0000 0.2392
v 4.934786 0.729961 6.297238 0.8902 1.0000 0.2392
v 4.317442 0.627105 7.531158 0.8902 1.0000 0.2392
v 4.940156 0.071393 8.400550 0.8902 1.0000 0.2392
v 6.004788 0.922593 3.420918 0.8902 1.0000 0.2392
v 5.111355 0.921865 2.166470 0.8902 1.0000 0.2392
v 3.997868 1.367345 2.993934 0.8902 1.0000 0.2392
v 4.502211 1.746393 4.633590 0.8902 1.0000 0.2392
v 1.561434 1.496113 3.377550 0.8902 1.0000 0.2392
v 0.716700 1.136953 4.399854 0.8902 1.0000 0.2392
v -2.581469 0.518153 7.092582 0.8902 1.0000 0.2392
v -2.707605 0.315289 6.606806 0.8902 1.0000 0.2392
v -4.089461 0.171745 7.467686 0.8902 1.0000 0.2392
v -3.059573 0.069889 8.334958 0.8902 1.0000 0.2392
v -3.281637 0.567593 4.733046 0.8902 1.0000 0.2392
v -3.337181 0.712825 2.586254 0.8902 1.0000 0.2392
v -5.147877 0.594345 4.585342 0.8902 1.0000 0.2392
v -4.844565 0.407625 3.509358 0.8902 1.0000 0.2392
v -6.541597 0.421201 0.781918 0.8902 1.0000 0.2392
v -1.391301 1.245785 4.794582 0.8902 1.0000 0.2392
v -1.354669 0.505929 6.654526 0.8902 1.0000 0.2392
v -1.059645 0.071393 8.351358 0.8902 1.0000 0.2392
v -0.043357 0.774001 4.935158 0.8902 1.0000 0.2392
v -2.302853 0.775921 5.483854 0.8902 1.0000 0.2392
v -4.104637 0.378777 5.043006 0.8902 1.0000 0.2392
v 3.233147 1.775890 2.304118 0.8902 1.0000 0.2392
v 3.012795 1.573257 4.965342 0.8902 1.0000 0.2392
v 2.392188 1.368129 1.760550 0.8902 1.0000 0.2392
v 4.800988 0.905481 -2.501362 0.8902 1.0000 0.2392
v 7.981051 0.072905 3.425310 0.8902 1.0000 0.2392
v 7.226986 1.077305 2.702094 0.8902 1.0000 0.2392
v 7.304675 0.659025 4.148326 0.8902 1.0000 0.2392
v 7.994651 0.000473 1.766310 0.8902 1.0000 0.2392
v 7.948251 0.069889 7.425174 0.8902 1.0000 0.2392
v 6.886139 0.508777 6.730318 0.8902 1.0000 0.2392
v 6.940083 0.069889 8.416942 0.8902 1.0000 0.2392
v 7.964652 0.071393 5.425246 0.8902 1.0000 0.2392
v 5.841731 0.526753 4.857646 0.8902 1.0000 0.2392
v 3.925284 1.307865 5.374550 0.8902 1.0000 0.2392
v 2.366156 3.033113 -5.314130 0.8902 1.0000 0.2392
v 2.960324 2.485489 -3.576842 0.8902 1.0000 0.2392
v 4.353196 2.118554 -6.849106 0.8902 1.0000 0.2392
v 3.071404 2.704522 -7.615314 0.8902 1.0000 0.2392
v 2.726771 3.170121 -6.950954 0.8902 1.0000 0.2392
v 1.071467 3.030273 -7.631706 0.8902 1.0000 0.2392
v 0.040324 2.829849 -6.398818 0.8902 1.0000 0.2392
v 8.046636 0.626081 -4.574419 0.8902 1.0000 0.2392
v 6.539540 1.183017 -6.186154 0.8902 1.0000 0.2392
v 6.951684 0.608353 -3.767226 0.8902 1.0000 0.2392
v 8.063035 1.089145 -6.574354 0.8902 1.0000 0.2392
v 7.071267 1.442506 -7.582514 0.8902 1.0000 0.2392
v 5.768427 1.475817 -6.344290 0.8902 1.0000 0.2392
v 5.071339 2.002298 -7.598914 0.8902 1.0000 0.2392
v 8.031451 0.333057 -2.722570 0.8902 1.0000 0.2392
v -4.848037 1.353194 -5.745370 0.8902 1.0000 0.2392
v -5.140341 0.947937 -3.004722 0.8902 1.0000 0.2392
v -3.964525 1.602473 -6.540555 0.8902 1.0000 0.2392
v -4.928333 1.442506 -7.680898 0.8902 1.0000 0.2392
v -5.760589 1.077529 -6.679562 0.8902 1.0000 0.2392
v -6.928261 1.259186 -7.697298 0.8902 1.0000 0.2392
v -7.936429 1.161777 -6.705530 0.8902 1.0000 0.2392
v -0.964981 2.882889 -5.436122 0.8902 1.0000 0.2392
v -0.959069 2.684233 -3.874635 0.8902 1.0000 0.2392
v -0.928461 2.704522 -7.648106 0.8902 1.0000 0.2392
v -1.965013 2.283642 -7.203386 0.8902 1.0000 0.2392
v -2.928397 2.002298 -7.664506 0.8902 1.0000 0.2392
v 0.230610 2.599105 -3.266314 0.8902 1.0000 0.2392
v -1.823660 2.171865 -2.868330 0.8902 1.0000 0.2392
v -4.039196 0.608113 -2.543650 0.8902 1.0000 0.2392
v -4.390604 0.769049 -0.307650 0.8902 1.0000 0.2392
v -4.779748 1.326169 -2.069442 0.8902 1.0000 0.2392
v -6.387197 1.148553 -3.014987 0.8902 1.0000 0.2392
v -7.969221 0.742065 -2.705666 0.8902 1.0000 0.2392
v 2.514340 2.267201 -2.558498 0.8902 1.0000 0.2392
v 3.094731 0.972529 6.289230 0.8902 1.0000 0.2392
v 2.940218 0.072905 8.384150 0.8902 1.0000 0.2392
v 1.530571 1.140345 5.579126 0.8902 1.0000 0.2392
v -4.850269 0.175729 6.340134 0.8902 1.0000 0.2392
v -5.059509 0.069889 8.318558 0.8902 1.0000 0.2392
v -6.063781 0.163217 5.674982 0.8902 1.0000 0.2392
v 1.155987 1.282153 1.453622 0.8902 1.0000 0.2392
v -5.832341 1.142561 -0.830538 0.8902 1.0000 0.2392
v -6.971997 0.466337 0.431910 0.8902 1.0000 0.2392
v -3.476813 1.129161 -1.115866 0.8902 1.0000 0.2392
v -2.473085 1.438745 -1.567122 0.8902 1.0000 0.2392
v 1.197299 1.372737 2.101406 0.8902 1.0000 0.2392
v 0.403243 1.232801 2.872238 0.8902 1.0000 0.2392
v -4.335461 0.364017 3.451070 0.8902 1.0000 0.2392
v -2.524013 1.154153 3.538638 0.8902 1.0000 0.2392
v -2.443325 0.934217 2.292558 0.8902 1.0000 0.2392
v -6.935645 0.393737 4.053838 0.8902 1.0000 0.2392
v -6.558237 0.254553 4.136022 0.8902 1.0000 0.2392
v -7.556069 0.196097 3.867582 0.8902 1.0000 0.2392
v -5.670277 0.324521 3.982982 0.8902 1.0000 0.2392
v -4.054509 0.509513 3.100022 0.8902 1.0000 0.2392
v -5.396149 0.554385 0.365086 0.8902 1.0000 0.2392
v -7.540405 0.242057 0.633294 0.8902 1.0000 0.2392
v -0.583116 0.848849 1.749918 0.8902 1.0000 0.2392
v -0.299701 1.319545 1.749334 0.8902 1.0000 0.2392
v -1.428741 1.124313 1.968358 0.8902 1.0000 0.2392
v 2.769955 1.073689 0.973382 0.8902 1.0000 0.2392
v 3.705523 1.427249 1.337502 0.8902 1.0000 0.2392
v 6.757931 0.144441 0.814246 0.8902 1.0000 0.2392
v 5.661427 0.476689 0.973478 0.8902 1.0000 0.2392
v 4.527892 0.681153 0.686030 0.8902 1.0000 0.2392
v 6.266564 0.474153 -2.859866 0.8902 1.0000 0.2392
v 7.343724 0.333169 -2.046026 0.8902 1.0000 0.2392
v 6.021290 0.416073 -2.466266 0.8902 1.0000 0.2392
v 4.230443 1.521857 -3.040834 0.8902 1.0000 0.2392
v -0.974469 2.009121 -2.037154 0.8902 1.0000 0.2392
v 2.542563 2.749465 -3.338810 0.8902 1.0000 0.2392
v 3.544068 1.645569 -2.372538 0.8902 1.0000 0.2392
v 1.095795 2.511665 -2.540634 0.8902 1.0000 0.2392
v -8.032677 0.110329 5.033822 0.8902 1.0000 0.2392
v -1.006005 2.196385 -2.877826 0.8902 1.0000 0.2392
v 4.807116 1.022785 1.654854 0.8902 1.0000 0.2392
v -3.128877 1.124817 -1.583146 0.8902 1.0000 0.2392
v -7.038837 0.260313 5.160374 0.8902 1.0000 0.2392
v -4.995492 0.330793 5.344302 0.8902 1.0000 0.2392
v -5.389501 0.771225 7.322238 0.8902 1.0000 0.2392
v 0.830235 1.473033 5.359486 0.8902 1.0000 0.2392
v 2.879363 1.497137 5.397806 0.8902 1.0000 0.2392
v 3.130036 0.744457 7.460198 0.8902 1.0000 0.2392
v 0.620955 2.758009 -2.752650 0.8902 1.0000 0.2392
v -6.918693 0.777177 -2.810282 0.8902 1.0000 0.2392
v -5.605469 1.078601 -3.145762 0.8902 1.0000 0.2392
v -2.659309 1.543369 -2.457418 0.8902 1.0000 0.2392
v -3.174749 1.546841 -6.359251 0.8902 1.0000 0.2392
v -0.453948 2.481713 -6.736778 0.8902 1.0000 0.2392
v -0.921517 2.729794 -4.627458 0.8902 1.0000 0.2392
v -7.000412 1.196313 -6.691322 0.8902 1.0000 0.2392
v -5.038317 1.394242 -6.521210 0.8902 1.0000 0.2392
v -5.021525 1.014305 -4.591618 0.8902 1.0000 0.2392
v 7.239003 0.441977 -2.804090 0.8902 1.0000 0.2392
v 5.603604 1.846194 -6.801106 0.8902 1.0000 0.2392
v 7.121275 0.973145 -6.373978 0.8902 1.0000 0.2392
v 6.854002 0.739897 -4.471363 0.8902 1.0000 0.2392
v 1.013243 3.035033 -6.592250 0.8902 1.0000 0.2392
v 3.016284 2.782425 -6.706754 0.8902 1.0000 0.2392
v 3.771979 2.714970 -4.476314 0.8902 1.0000 0.2392
v 4.907027 1.004289 4.842950 0.8902 1.0000 0.2392
v 7.344500 0.430201 4.730870 0.8902 1.0000 0.2392
v 6.943099 0.744009 6.913230 0.8902 1.0000 0.2392
v 6.778460 0.020569 1.306798 0.8902 1.0000 0.2392
v 7.174643 0.556705 3.644398 0.8902 1.0000 0.2392
v 2.308419 1.449329 1.890566 0.8902 1.0000 0.2392
v 3.035523 1.594961 3.304470 0.8902 1.0000 0.2392
v -3.062748 0.531177 5.292734 0.8902 1.0000 0.2392
v -1.046109 0.892033 5.343302 0.8902 1.0000 0.2392
v -1.183717 0.385105 7.321814 0.8902 1.0000 0.2392
v -0.413644 1.492193 2.883270 0.8902 1.0000 0.2392
v -3.104301 0.563993 7.787854 0.8902 1.0000 0.2392
v 0.987467 1.500713 3.079054 0.8902 1.0000 0.2392
v 4.889355 1.283345 3.488462 0.8902 1.0000 0.2392
v 4.971123 0.176001 7.398118 0.8902 1.0000 0.2392
v 0.711506 3.298393 -4.565274 0.8902 1.0000 0.2392
v 5.104556 1.536161 -4.280146 0.8902 1.0000 0.2392
v -6.430125 0.758474 -4.134819 0.8902 1.0000 0.2392
v -2.637228 1.314185 -4.936850 0.8902 1.0000 0.2392
v -7.583181 0.505561 -0.741106 0.8902 1.0000 0.2392
v 0.917683 0.561209 7.226326 0.8902 1.0000 0.2392
v -7.056309 0.230377 7.395862 0.8902 1.0000 0.2392
vn 0.2734 0.9554 0.1119
vn -0.5985 0.5444 0.5876
vn 0.0876 0.6863 0.7220
vn -0.0366 0.9793 0.1990
vn 0.0088 0.5666 0.8239
vn -0.0333 0.9071 0.4196
vn -0.1857 0.9604 0.2077
vn -0.7797 0.4799 0.4021
vn -0.2324 0.9276 0.2924
vn -0.7369 0.6601 0.1459
vn -0.2581 0.9642 -0.0607
vn -0.5248 0.8314 0.1826
vn -0.1669 0.9505 0.2619
vn -0.7310 0.6816 0.0327
vn -0.1527 0.9620 -0.2264
vn 0.7400 0.6726 -0.0005
vn 0.4757 0.7958 0.3747
vn 0.3438 0.8026 0.4876
vn -0.1116 0.9890 0.0968
vn -0.2761 0.9204 0.2769
vn 0.0687 0.7369 0.6725
vn 0.2142 0.9390 0.2690
vn 0.0791 0.6031 0.7937
vn 0.1734 0.9320 0.3183
vn 0.2204 0.9637 -0.1507
vn -0.0089 0.9279 0.3727
vn -0.3606 0.8827 0.3015
vn 0.0354 0.9992 0.0164
vn -0.0402 0.9908 0.1296
vn -0.3011 0.9518 0.0576
vn -0.0706 0.9757 0.2076
vn -0.0946 0.6065 0.7894
vn -0.0075 0.4059 0.9139
vn -0.2491 0.9638 0.0956
vn -0.2769 0.9600 -0.0406
vn -0.1851 0.6567 -0.7311
vn -0.5442 0.4240 -0.7239
vn 0.1213 0.8109 -0.5725
vn 0.1676 0.1074 -0.9800
vn -0.0902 0.9887 0.1196
vn -0.1330 0.8310 -0.5402
vn -0.5480 0.5965 -0.5864
vn 0.1591 0.6484 0.7445
vn 0.0852 0.6636 0.7432
vn -0.0927 0.9343 0.3442
vn -0.0355 0.9858 -0.1639
vn -0.2784 0.6581 -0.6996
vn -0.0975 0.8321 0.5459
vn -0.3727 0.9259 -0.0623
vn -0.0329 0.9673 0.2516
vn 0.0431 0.5613 0.8265
vn -0.0219 0.5839 0.8115
vn -0.2195 0.9122 0.3460
vn -0.2413 0.9631 0.1196
vn 0.0959 0.9332 0.3464
vn -0.2738 0.9401 0.2033
vn -0.1002 0.9867 0.1283
vn -0.0435 0.9990 -0.0115
vn 0.1178 0.9896 0.0820
vn -0.1026 0.9890 0.1065
vn 0.1520 0.9795 0.1321
vn 0.1718 0.9797 -0.1033
vn 0.1789 0.9026 -0.3915
vn -0.7574 0.2398 0.6074
vn -0.1686 0.7976 -0.5792
vn -0.1243 0.9791 -0.1611
vn -0.2587 0.6946 -0.6713
vn 0.1741 0.9837 -0.0451
vn 0.3998 0.9133 0.0774
vn 0.4128 0.9093 0.0522
vn 0.3260 0.9409 -0.0918
vn 0.8251 0.5308 -0.1936
vn 0.2120 0.9656 -0.1508
vn -0.0221 0.9914 0.1288
vn 0.0630 0.5781 0.8135
vn 0.3395 0.8969 -0.2835
vn 0.2555 0.9290 0.2677
vn 0.3257 0.8646 -0.3826
vn 0.3340 0.9291 0.1590
vn 0.2374 0.8865 0.3971
vn 0.0190 0.9766 0.2142
vn 0.4265 0.7721 0.4712
vn 0.1761 0.9715 0.1585
vn 0.4946 0.7676 0.4077
vn 0.9779 0.2093 -0.0024
vn 0.5639 0.8245 0.0465
vn 0.2593 0.9624 -0.0812
vn 0.6429 0.7582 -0.1085
vn -0.2980 0.9348 -0.1933
vn -0.0843 0.9784 -0.1885
vn -0.1563 0.9875 -0.0200
vn 0.2378 0.9294 0.2824
vn 0.3526 0.9095 0.2201
vn 0.0832 0.9817 0.1711
vn 0.5511 0.8170 0.1697
vn 0.3055 0.9509 0.0485
vn 0.1538 0.9839 0.0915
vn 0.3527 0.9351 0.0347
vn 0.4536 0.8810 0.1342
vn 0.5090 0.8518 0.1239
vn 0.1299 0.9697 0.2068
vn 0.0873 0.9883 0.1254
vn 0.5229 0.6643 0.5341
vn 0.1673 0.3596 0.9180
vn 0.0034 0.9901 0.1401
vn -0.0724 0.9927 -0.0966
vn 0.1108 0.9867 0.1193
vn -0.2283 0.9732 -0.0268
vn -0.0292 0.9995 -0.0090
vn -0.0202 0.9694 0.2448
vn -0.7474 0.6644 0.0038
vn -0.1415 0.9872 0.0733
vn 0.0262 0.9988 -0.0409
vn -0.3803 0.9091 0.1699
vn 0.0829 0.6574 0.7489
vn -0.3121 0.9208 0.2340
vn -0.3381 0.9409 -0.0196
vn -0.2923 0.9422 -0.1639
vn -0.3348 0.9373 -0.0973
vn -0.3507 0.9345 -0.0619
vn -0.2289 0.8916 0.3907
vn -0.6471 0.7604 0.0558
vn -0.1349 0.9797 -0.1481
vn -0.2957 0.9540 0.0504
vn -0.4253 0.7866 0.4476
vn 0.1616 0.9040 -0.3958
vn -0.3251 0.9453 0.0288
vn -0.0079 0.9828 -0.1843
vn -0.2282 0.9735 0.0128
vn -0.6781 0.7289 0.0948
vn -0.2448 0.9691 0.0318
vn 0.1069 0.4720 0.8751
vn 0.2037 0.5129 0.8340
vn -0.3819 0.8660 0.3228
vn -0.1782 0.8880 0.4239
vn -0.0452 0.9119 0.4078
vn -0.0619 0.5003 0.8636
vn -0.0756 0.9418 0.3276
vn 0.0256 0.9336 0.3574
vn 0.0285 0.9032 0.4282
vn 0.2109 0.8828 0.4198
vn -0.0951 0.9954 -0.0068
vn -0.2953 0.9315 0.2126
vn -0.2445 0.8554 0.4567
vn -0.1148 0.9925 0.0419
vn -0.1975 0.6427 0.7402
vn 0.0670 0.5197 0.8517
vn -0.0296 0.9710 0.2370
vn -0.0637 0.9979 0.0093
vn 0.0836 0.9928 -0.0857
vn -0.0437 0.9987 0.0254
vn -0.8406 0.5383 -0.0599
vn -0.1312 0.9882 0.0794
vn -0.0546 0.9150 0.3997
vn 0.4078 0.7295 0.5491
vn -0.1588 0.9870 -0.0243
vn 0.3746 0.9112 -0.1712
vn 0.4140 0.9099 -0.0259
vn 0.3433 0.9284 -0.1420
vn -0.2506 0.9226 0.2933
vn -0.1394 0.9426 0.3035
vn 0.2922 0.5937 0.7497
vn 0.3911 0.6557 0.6458
vn 0.5475 0.4448 0.7088
vn 0.0618 -0.0184 0.9979
vn -0.0661 0.0183 0.9976
vn -0.1814 0.6568 0.7319
vn -0.2807 0.0136 0.9597
vn 0.9137 0.4038 0.0454
vn 1.0000 -0.0000 0.0082
vn 0.9999 0.0007 0.0118
vn -0.0082 -0.0000 1.0000
vn 0.1301 0.5216 0.8432
vn 0.3596 -0.1945 0.9126
vn 0.1366 -0.1530 0.9787
vn 0.7277 0.0944 0.6794
vn 0.7266 -0.1214 0.6763
vn -0.1611 0.7110 -0.6845
vn 0.0082 -0.0000 -1.0000
vn -0.0640 0.7272 0.6835
vn 0.9632 0.0035 -0.2687
vn -0.1931 -0.0109 0.9811
vn 0.0056 0.7288 -0.6847
vn -0.7013 -0.0000 -0.7129
vn 0.8157 0.5741 0.0714
vn 0.7013 -0.0000 0.7129
vn 0.1130 0.4187 0.9011
vn -0.2384 -0.0442 0.9702
vn -0.7387 0.6491 0.1817
vn -0.9996 0.0041 -0.0283
vn -0.9693 -0.0007 0.2458
vn -1.0000 -0.0000 -0.0082
vn -0.7664 0.6418 0.0273
vn -0.9519 -0.0681 -0.2987
vn -1.0000 0.0001 -0.0079
vn 0.8493 0.5272 0.0264
vn -0.2496 0.0279 -0.9680
vn -0.1169 0.1706 -0.9784
vn -0.2184 0.7850 -0.5797
vn 0.2978 0.0923 -0.9502
vn -0.2179 -0.0553 -0.9744
vn 0.1348 -0.1382 -0.9812
vn -0.2842 0.7316 -0.6197
vn -0.3052 0.0057 -0.9523
vn -0.4997 0.7040 -0.5047
vn -0.7170 0.1701 -0.6760
vn -0.4788 0.8675 -0.1347
vn -0.6631 -0.0143 -0.7484
vn 0.2722 0.5789 -0.7686
vn -0.7384 0.6531 0.1682
vn 0.3624 0.0951 0.9271
vn 0.5353 0.0901 0.8399
vn -0.5138 0.5602 0.6498
vn -0.1823 -0.0413 0.9824
vn 0.0058 0.7055 -0.7087
vn 0.4928 0.8695 -0.0339
vn -0.2405 0.0652 -0.9684
vn -0.2678 0.0262 -0.9631
vn -0.7192 0.6946 -0.0152
vn 0.7532 0.6334 0.1776
vn 1.0000 0.0031 -0.0085
vn -0.0722 0.5621 -0.8239
vn -0.0056 0.0303 -0.9995
vn -0.2058 0.1550 -0.9663
vn 0.7050 0.6881 0.1719
vn 0.7129 -0.0000 -0.7013
vn 0.3485 0.7227 -0.5969
vn -0.0033 0.0182 -0.9998
vn 0.1123 0.8017 -0.5870
vn 0.0574 0.5093 -0.8587
vn 0.2171 0.6938 -0.6867
vn -0.7997 0.5973 0.0614
vn -0.7129 -0.0000 0.7013
vn 0.7354 0.6772 0.0223
vn 0.9477 0.0117 0.3191
vn -0.1562 0.6801 0.7163
vn 0.7071 0.7071 0.0058
vn -0.0058 0.7071 0.7071
vn 0.5726 0.5774 0.5820
vn -0.0000 1.0000 -0.0000
vn 0.0058 0.7072 -0.7070
vn 0.0058 0.7071 -0.7071
vn -0.7044 0.7098 0.0032
vn -0.7149 0.6991 -0.0139
vn -0.7014 0.7124 -0.0223
vn 0.7135 0.7007 -0.0010
vn -0.7071 0.7071 -0.0058
vn 0.5820 0.5774 -0.5726
vn 0.0059 -0.7071 -0.7070
vn 0.7026 0.7115 -0.0078
vn -0.5725 0.5774 -0.5821
vn 0.7060 0.7081 0.0087
vn 0.7057 0.7084 0.0156
vn -0.5820 0.5774 0.5726
vn -0.7070 0.7072 -0.0055
vn 0.0226 0.4454 0.8951
vn -0.0672 0.6244 0.7782
vn 0.3118 0.9187 -0.2425
vn 0.1749 0.9436 -0.2810
vn 0.1474 0.5381 -0.8299
vn -0.0534 0.9369 0.3456
vn -0.0800 0.9966 -0.0198
vn 0.0033 0.9997 0.0225
vn -0.2611 0.7951 -0.5474
vn -0.0488 0.9671 0.2498
vn -0.1494 0.9879 0.0427
vn -0.0274 0.9985 0.0470
vn 0.0217 0.9751 0.2208
vn -0.0977 0.8873 0.4507
vn 0.1073 0.8848 0.4535
vn 0.0024 0.4694 0.8830
vn 0.4202 0.9047 0.0701
vn 0.1224 0.6481 0.7517
vn 0.2364 0.8144 0.5300
vn -0.2556 0.9577 -0.1321
vn -0.3314 0.9419 0.0552
vn -0.2483 0.7270 -0.6402
vn -0.1366 0.7070 -0.6939
vn -0.0496 0.9679 -0.2464
vn -0.1997 0.7674 -0.6093
vn -0.4093 0.8863 0.2166
vn -0.1337 0.9875 -0.0835
vn -0.0327 0.7398 -0.6720
vn -0.5713 0.6005 -0.5596
vn -0.0643 0.9956 0.0684
vn -0.0922 0.9763 0.1960
vn -0.2072 0.6158 0.7602
vn 0.4922 0.5820 0.6473
vn 0.7993 0.5927 0.0990
vn 0.3437 0.9379 0.0472
vn 0.2837 0.6898 -0.6661
vn 0.7162 0.6854 0.1316
vn 0.6216 0.5682 -0.5392
vn 0.4409 0.8674 0.2308
vn 0.4297 0.8966 -0.1065
vn 0.0259 0.6732 -0.7390
vn 0.3949 0.9148 0.0845
vn 0.2964 0.6900 -0.6603
vn 0.6034 0.4807 0.6363
vn 0.2285 0.9735 -0.0099
vn 0.3599 0.8905 0.2784
vn 0.8309 0.5564 0.0073
vn 0.8900 0.4540 0.0417
vn 0.5726 0.5774 0.5821
vn 0.6621 0.5344 -0.5254
vn 0.9431 0.3322 -0.0137
vn -0.9725 0.1778 0.1504
vn -0.1405 0.6581 -0.7397
vn -0.1264 0.9794 -0.1572
vn -0.0619 0.4139 -0.9082
vn 0.2772 0.9603 -0.0327
vn -0.5515 0.8340 -0.0157
vn -0.2900 0.9293 0.2287
vn -0.2465 0.9197 0.3056
vn 0.1507 0.9145 0.3755
vn -0.0072 0.5603 0.8282
vn -0.0301 0.9878 -0.1530
vn -0.2289 0.6623 -0.7135
vn -0.2263 0.5721 0.7883
vn 0.0862 0.8314 -0.5490
vn -0.1499 0.9776 0.1475
vn -0.0596 0.5663 0.8221
vn -0.1208 0.9284 0.3515
vn -0.2757 0.7452 0.6072
vn -0.0871 0.9804 0.1765
vn -0.0066 0.6002 0.7998
vn -0.1109 0.9933 0.0332
vn -0.5243 0.7519 -0.3997
vn -0.3346 0.7702 -0.5429
vn -0.2917 0.8981 -0.3290
vn -0.4179 0.7053 -0.5727
vn 0.3311 0.4862 0.8087
vn -0.8219 0.5654 0.0698
vn -0.0664 0.2320 0.9704
vn 0.3123 0.6915 0.6514
vn 0.4311 0.4888 0.7584
vn 0.7058 0.7083 0.0156
vn 0.7061 0.7080 0.0087
vn -0.5726 0.5774 -0.5820
vn 0.7027 0.7114 -0.0078
s 1
usemtl Material.001
f 387//1 4//2 201//3
f 204//4 205//5 386//6
f 385//7 6//8 308//9
f 384//10 17//11 213//12
f 383//13 13//14 217//15
f 220//16 221//17 382//18
f 381//19 16//20 225//21
f 228//22 229//23 380//24
f 379//25 19//26 233//27
f 312//28 235//29 378//30
f 377//31 14//32 239//33
f 20//34 314//35 315//36
f 67//37 316//38 318//39
f 313//40 243//41 319//42
f 71//43 308//9 244//44
f 314//35 245//45 376//46
f 73//47 323//48 325//49
f 375//50 28//51 247//52
f 249//53 246//54 374//55
f 373//56 48//57 237//58
f 372//59 47//60 252//61
f 251//62 327//63 371//64
f 77//65 311//66 306//67
f 230//68 257//69 370//70
f 256//71 258//72 369//73
f 226//74 261//75 368//76
f 263//77 260//78 367//79
f 264//80 227//81 366//82
f 222//83 266//84 365//85
f 364//86 55//87 265//88
f 271//89 223//90 363//91
f 362//92 42//93 274//94
f 277//95 273//96 361//97
f 267//98 219//99 360//100
f 274//94 331//101 359//102
f 331//101 334//103 83//104
f 358//105 40//106 281//107
f 357//108 57//109 280//110
f 286//111 215//112 356//113
f 355//114 39//115 288//116
f 354//117 58//118 287//119
f 353//120 38//121 211//122
f 294//123 208//124 352//125
f 351//126 60//127 296//128
f 350//129 27//130 206//131
f 266//84 299//132 337//133
f 225//21 292//134 349//135
f 202//136 301//137 348//138
f 347//139 61//140 300//141
f 346//142 29//143 203//144
f 345//145 35//146 304//147
f 344//148 62//149 303//150
f 343//151 23//152 199//153
f 209//154 309//155 342//156
f 341//157 45//158 231//159
f 288//116 293//160 340//161
f 296//128 321//162 295//163
f 254//164 137//165 138//166
f 333//167 138//166 135//168
f 255//169 98//170 106//171
f 229//23 97//172 105//172
f 335//173 117//174 139//175
f 309//155 119//176 118//177
f 283//178 96//179 103//179
f 205//5 94//172 111//172
f 310//180 118//177 117//174
f 258//72 106//171 133//181
f 337//133 141//182 137//165
f 285//183 103//179 89//184
f 259//185 90//186 112//170
f 338//187 139//175 142//188
f 207//189 108//190 93//191
f 286//111 89//184 114//192
f 339//193 122//194 104//195
f 261//75 105//172 90//186
f 262//196 112//170 98//170
f 315//36 128//197 121//198
f 289//199 92//179 110//179
f 317//200 116//201 123//202
f 291//203 110//179 96//179
f 239//33 101//172 109//172
f 318//39 123//202 122//194
f 319//42 124//204 116//201
f 241//205 121//198 120//206
f 320//207 120//206 125//208
f 268//209 99//179 107//179
f 216//210 114//192 100//192
f 321//162 126//211 140//212
f 295//163 140//212 119//176
f 243//41 125//208 124//204
f 322//213 93//191 127//214
f 270//215 107//179 92//179
f 244//44 127//214 126//211
f 324//216 132//217 129//218
f 298//219 100//192 108//190
f 272//220 95//221 102//170
f 325//49 129//218 128//197
f 299//132 142//188 141//182
f 247//52 109//172 94//172
f 326//222 130//223 131//224
f 301//137 111//172 97//172
f 275//225 102//170 88//226
f 328//227 133//181 134//228
f 276//229 88//226 113//179
f 330//230 134//228 130//223
f 304//147 115//172 101//172
f 278//231 113//179 99//179
f 200//232 104//195 91//233
f 279//234 136//235 95//221
f 201//3 91//233 115//172
f 332//236 135//168 136//235
f 306//67 131//224 132//217
f 112//170 164//237 98//170
f 94//172 147//238 111//172
f 105//172 167//239 90//186
f 159//240 153//238 168//237
f 170//241 163//240 175//242
f 181//240 195//240 196//240
f 93//191 192//243 122//194
f 108//190 148//244 93//191
f 100//192 149//245 108//190
f 99//179 170//241 107//179
f 133//181 176//246 136//235
f 114//192 150//247 100//192
f 107//179 171//242 92//179
f 97//172 153//238 105//172
f 111//172 152//238 97//172
f 95//221 173//237 102//170
f 101//172 155//238 109//172
f 115//172 154//238 101//172
f 102//170 174//248 88//226
f 88//226 175//242 113//179
f 113//179 169//249 99//179
f 136//235 172//250 95//221
f 109//172 146//238 94//172
f 96//179 178//242 103//179
f 103//179 179//251 89//184
f 98//170 165//252 106//171
f 89//184 151//247 114//192
f 106//171 166//253 133//181
f 104//195 143//254 91//233
f 92//179 180//242 110//179
f 122//194 144//255 104//195
f 90//186 168//237 112//170
f 91//233 145//238 115//172
f 110//179 177//242 96//179
f 335//173 293//160 59//256
f 84//257 340//161 335//173
f 292//134 288//116 340//161
f 329//258 231//159 53//259
f 330//230 329//258 79//260
f 330//230 327//63 341//157
f 342//156 63//261 310//180
f 208//124 310//180 59//256
f 37//262 342//156 208//124
f 305//263 199//153 62//149
f 50//264 343//151 305//263
f 316//38 339//193 343//151
f 344//148 48//57 250//265
f 242//266 250//265 20//34
f 242//266 305//263 344//148
f 238//267 304//147 14//32
f 303//150 238//267 48//57
f 62//149 345//145 303//150
f 302//268 203//144 61//140
f 235//29 302//268 47//60
f 235//29 248//269 346//142
f 264//80 300//141 44//270
f 252//61 264//80 19//26
f 47//60 347//139 252//61
f 348//138 10//271 228//22
f 44//270 348//138 228//22
f 300//141 202//136 348//138
f 349//135 84//257 338//187
f 336//272 338//187 87//273
f 43//274 349//135 336//272
f 350//129 60//127 297//275
f 217//15 297//275 40//106
f 13//14 350//129 217//15
f 294//123 296//128 37//262
f 281//107 294//123 17//11
f 40//106 351//126 281//107
f 352//125 59//256 293//160
f 213//12 293//160 39//115
f 213//12 294//123 352//125
f 290//276 211//122 58//118
f 291//203 290//276 30//277
f 9//278 353//120 291//203
f 271//89 287//119 36//279
f 5//280 354//117 271//89
f 289//199 290//276 354//117
f 355//114 16//20 224//281
f 287//119 224//281 36//279
f 58//118 355//114 287//119
f 284//282 215//112 57//109
f 22//283 356//113 284//282
f 2//284 356//113 285//183
f 282//285 280//110 38//121
f 283//178 282//285 9//278
f 283//178 284//282 357//108
f 358//105 17//11 212//286
f 280//110 212//286 38//121
f 57//109 358//105 280//110
f 359//102 80//287 332//236
f 279//234 332//236 81//288
f 8//289 359//102 279//234
f 277//95 219//99 56//290
f 33//291 360//100 277//95
f 278//231 267//98 360//100
f 361//97 21//292 275//225
f 276//229 275//225 1//293
f 33//291 361//97 276//229
f 272//220 274//94 8//289
f 21//292 362//92 272//220
f 273//96 218//294 362//92
f 363//91 55//87 269//295
f 26//296 363//91 269//295
f 5//280 363//91 270//215
f 364//86 41//297 267//98
f 12//298 364//86 267//98
f 268//209 269//295 364//86
f 220//16 266//84 18//299
f 265//88 220//16 41//297
f 265//88 222//83 365//85
f 366//82 54//300 263//77
f 46//301 366//82 263//77
f 19//26 366//82 233//27
f 262//196 260//78 32//302
f 11//303 367//79 262//196
f 257//69 263//77 367//79
f 259//185 261//75 3//304
f 260//78 259//185 32//302
f 260//78 226//74 368//76
f 369//73 78//305 328//227
f 329//258 328//227 79//260
f 53//259 369//73 329//258
f 255//169 257//69 11//303
f 256//71 255//169 25//306
f 256//71 230//68 370//70
f 306//67 253//307 76//308
f 306//67 311//66 253//307
f 311//66 52//309 253//307
f 326//222 327//63 75//310
f 76//308 371//64 326//222
f 253//307 251//62 371//64
f 372//59 19//26 232//311
f 251//62 232//311 45//158
f 52//309 372//59 251//62
f 249//53 237//58 51//312
f 49//313 373//56 249//53
f 240//314 250//265 373//56
f 374//55 29//143 248//269
f 245//45 248//269 15//315
f 245//45 249//53 374//55
f 204//4 247//52 7//316
f 246//54 204//4 29//143
f 246//54 236//317 375//50
f 325//49 324//216 74//318
f 325//49 323//48 324//216
f 323//48 77//65 324//216
f 376//46 15//315 312//28
f 77//65 376//46 312//28
f 73//47 376//46 323//48
f 244//44 322//213 72//319
f 244//44 308//9 322//213
f 308//9 6//8 322//213
f 318//39 317//200 68//320
f 318//39 316//38 317//200
f 316//38 50//264 317//200
f 377//31 28//51 236//317
f 237//58 236//317 51//312
f 237//58 238//267 377//31
f 234//321 235//29 47//60
f 52//309 378//30 234//321
f 311//66 312//28 378//30
f 379//25 46//301 230//68
f 53//259 379//25 230//68
f 231//159 232//311 379//25
f 380//24 24//322 226//74
f 227//81 226//74 54//300
f 227//81 228//22 380//24
f 381//19 43//274 222//83
f 55//87 381//19 222//83
f 36//279 381//19 223//90
f 382//18 42//93 218//294
f 56//290 382//18 218//294
f 41//297 382//18 219//99
f 383//13 40//106 214//323
f 215//112 214//323 57//109
f 215//112 216//210 383//13
f 210//324 213//12 39//115
f 211//122 210//324 58//118
f 38//121 384//10 211//122
f 307//325 308//9 71//43
f 206//131 307//325 60//127
f 27//130 385//7 206//131
f 202//136 205//5 31//326
f 61//140 386//6 202//136
f 29//143 386//6 203//144
f 198//327 201//3 35//146
f 199//153 198//327 62//149
f 199//153 200//232 387//1
f 387//1 200//232 4//2
f 204//4 7//316 205//5
f 385//7 207//189 6//8
f 384//10 212//286 17//11
f 383//13 216//210 13//14
f 220//16 18//299 221//17
f 381//19 224//281 16//20
f 228//22 10//271 229//23
f 379//25 232//311 19//26
f 312//28 15//315 235//29
f 377//31 238//267 14//32
f 241//205 65//328 313//40
f 20//34 240//314 49//313
f 241//205 313//40 20//34
f 315//36 66//329 241//205
f 314//35 73//47 315//36
f 20//34 49//313 314//35
f 315//36 241//205 20//34
f 319//42 50//264 242//266
f 242//266 20//34 313//40
f 313//40 65//328 320//207
f 313//40 320//207 70//330
f 319//42 242//266 313//40
f 243//41 69//331 319//42
f 313//40 70//330 243//41
f 314//35 49//313 245//45
f 375//50 236//317 28//51
f 249//53 51//312 246//54
f 373//56 250//265 48//57
f 372//59 234//321 47//60
f 251//62 45//158 327//63
f 230//68 46//301 257//69
f 256//71 25//306 258//72
f 226//74 24//322 261//75
f 263//77 54//300 260//78
f 264//80 44//270 227//81
f 222//83 43//274 266//84
f 364//86 269//295 55//87
f 271//89 36//279 223//90
f 362//92 218//294 42//93
f 277//95 56//290 273//96
f 267//98 41//297 219//99
f 274//94 42//93 331//101
f 333//167 80//287 331//101
f 331//101 42//93 221//17
f 221//17 18//299 334//103
f 334//103 82//332 254//164
f 83//104 333//167 331//101
f 334//103 254//164 83//104
f 331//101 221//17 334//103
f 358//105 214//323 40//106
f 357//108 284//282 57//109
f 286//111 34//333 215//112
f 355//114 210//324 39//115
f 354//117 290//276 58//118
f 353//120 282//285 38//121
f 294//123 37//262 208//124
f 351//126 297//275 60//127
f 350//129 298//219 27//130
f 337//133 82//332 334//103
f 334//103 18//299 266//84
f 266//84 43//274 336//272
f 336//272 87//273 299//132
f 299//132 86//334 337//133
f 337//133 334//103 266//84
f 266//84 336//272 299//132
f 225//21 16//20 292//134
f 202//136 31//326 301//137
f 347//139 302//268 61//140
f 346//142 248//269 29//143
f 345//145 198//327 35//146
f 344//148 305//263 62//149
f 343//151 339//193 23//152
f 209//154 64//335 309//155
f 341//157 327//63 45//158
f 288//116 39//115 293//160
f 295//163 64//335 209//154
f 209//154 37//262 296//128
f 296//128 60//127 307//325
f 307//325 71//43 321//162
f 321//162 85//336 295//163
f 295//163 209//154 296//128
f 296//128 307//325 321//162
f 138//166 83//104 254//164
f 254//164 82//332 137//165
f 135//168 80//287 333//167
f 333//167 83//104 138//166
f 106//171 25//306 255//169
f 255//169 11//303 98//170
f 105//172 24//322 229//23
f 229//23 10//271 97//172
f 139//175 84//257 335//173
f 335//173 59//256 117//174
f 118//177 63//261 309//155
f 309//155 64//335 119//176
f 103//179 22//283 283//178
f 283//178 9//278 96//179
f 111//172 31//326 205//5
f 205//5 7//316 94//172
f 117//174 59//256 310//180
f 310//180 63//261 118//177
f 133//181 78//305 258//72
f 258//72 25//306 106//171
f 137//165 82//332 337//133
f 337//133 86//334 141//182
f 89//184 2//284 285//183
f 285//183 22//283 103//179
f 112//170 32//302 259//185
f 259//185 3//304 90//186
f 142//188 87//273 338//187
f 338//187 84//257 139//175
f 93//191 6//8 207//189
f 207//189 27//130 108//190
f 114//192 34//333 286//111
f 286//111 2//284 89//184
f 104//195 23//152 339//193
f 339//193 67//37 122//194
f 90//186 3//304 261//75
f 261//75 24//322 105//172
f 98//170 11//303 262//196
f 262//196 32//302 112//170
f 121//198 66//329 315//36
f 315//36 73//47 128//197
f 110//179 30//277 289//199
f 289//199 5//280 92//179
f 123//202 68//320 317//200
f 317//200 50//264 116//201
f 96//179 9//278 291//203
f 291//203 30//277 110//179
f 109//172 28//51 239//33
f 239//33 14//32 101//172
f 122//194 67//37 318//39
f 318//39 68//320 123//202
f 116//201 50//264 319//42
f 319//42 69//331 124//204
f 120//206 65//328 241//205
f 241//205 66//329 121//198
f 125//208 70//330 320//207
f 320//207 65//328 120//206
f 107//179 26//296 268//209
f 268//209 12//298 99//179
f 100//192 13//14 216//210
f 216//210 34//333 114//192
f 140//212 85//336 321//162
f 321//162 71//43 126//211
f 119//176 64//335 295//163
f 295//163 85//336 140//212
f 124//204 69//331 243//41
f 243//41 70//330 125//208
f 127//214 72//319 322//213
f 322//213 6//8 93//191
f 92//179 5//280 270//215
f 270//215 26//296 107//179
f 126//211 71//43 244//44
f 244//44 72//319 127//214
f 129//218 74//318 324//216
f 324//216 77//65 132//217
f 108//190 27//130 298//219
f 298//219 13//14 100//192
f 102//170 21//292 272//220
f 272//220 8//289 95//221
f 128//197 73//47 325//49
f 325//49 74//318 129//218
f 141//182 86//334 299//132
f 299//132 87//273 142//188
f 94//172 7//316 247//52
f 247//52 28//51 109//172
f 131//224 76//308 326//222
f 326//222 75//310 130//223
f 97//172 10//271 301//137
f 301//137 31//326 111//172
f 88//226 1//293 275//225
f 275//225 21//292 102//170
f 134//228 79//260 328//227
f 328//227 78//305 133//181
f 113//179 33//291 276//229
f 276//229 1//293 88//226
f 130//223 75//310 330//230
f 330//230 79//260 134//228
f 101//172 14//32 304//147
f 304//147 35//146 115//172
f 99//179 12//298 278//231
f 278//231 33//291 113//179
f 91//233 4//2 200//232
f 200//232 23//152 104//195
f 95//221 8//289 279//234
f 279//234 81//288 136//235
f 115//172 35//146 201//3
f 201//3 4//2 91//233
f 136//235 81//288 332//236
f 332//236 80//287 135//168
f 132//217 77//65 306//67
f 306//67 76//308 131//224
f 112//170 168//237 164//237
f 94//172 146//238 147//238
f 105//172 153//238 167//239
f 144//255 190//240 192//243
f 191//240 159//240 158//240
f 144//255 191//240 190//240
f 145//238 144//255 143//254
f 154//238 144//255 145//238
f 144//255 159//240 191//240
f 159//240 157//240 156//240
f 189//240 186//240 193//240
f 159//240 189//240 157//240
f 154//238 159//240 144//255
f 155//238 159//240 154//238
f 159//240 186//240 189//240
f 186//240 194//240 185//240
f 194//240 166//337 195//240
f 194//240 165//338 166//337
f 159//240 194//240 186//240
f 146//238 159//240 155//238
f 147//238 159//240 146//238
f 159//240 165//338 194//240
f 159//240 164//237 165//338
f 152//238 159//240 147//238
f 168//237 153//238 167//239
f 153//238 159//240 152//238
f 159//240 168//237 164//237
f 161//240 149//245 148//244
f 161//240 150//247 149//245
f 182//240 161//240 160//240
f 187//240 182//240 181//240
f 197//240 187//240 188//240
f 162//240 184//240 183//240
f 162//240 197//240 184//240
f 176//246 163//240 196//240
f 163//240 197//240 162//240
f 187//240 161//240 182//240
f 187//240 150//247 161//240
f 151//247 178//242 179//339
f 187//240 151//247 150//247
f 197//240 151//247 187//240
f 151//247 177//242 178//242
f 180//242 171//242 170//241
f 151//247 180//242 177//242
f 163//240 151//247 197//240
f 172//340 163//240 176//246
f 175//242 173//237 174//248
f 173//237 163//240 172//340
f 163//240 180//242 151//247
f 170//241 169//249 175//242
f 163//240 170//241 180//242
f 175//242 163//240 173//237
f 156//240 158//240 159//240
f 158//240 190//240 191//240
f 190//240 148//244 192//243
f 190//240 161//240 148//244
f 156//240 190//240 158//240
f 193//240 157//240 189//240
f 156//240 161//240 190//240
f 157//240 161//240 156//240
f 160//240 181//240 182//240
f 157//240 160//240 161//240
f 185//240 193//240 186//240
f 193//240 160//240 157//240
f 181//240 188//240 187//240
f 193//240 181//240 160//240
f 195//240 185//240 194//240
f 185//240 181//240 193//240
f 181//240 197//240 188//240
f 197//240 183//240 184//240
f 162//240 196//240 163//240
f 181//240 183//240 197//240
f 183//240 196//240 162//240
f 196//240 166//337 176//246
f 195//240 181//240 185//240
f 196//240 195//240 166//337
f 181//240 196//240 183//240
f 93//191 148//244 192//243
f 108//190 149//245 148//244
f 100//192 150//247 149//245
f 99//179 169//249 170//241
f 133//181 166//253 176//246
f 114//192 151//247 150//247
f 107//179 170//241 171//242
f 97//172 152//238 153//238
f 111//172 147//238 152//238
f 95//221 172//250 173//237
f 101//172 154//238 155//238
f 115//172 145//238 154//238
f 102//170 173//237 174//248
f 88//226 174//248 175//242
f 113//179 175//242 169//249
f 136//235 176//246 172//250
f 109//172 155//238 146//238
f 96//179 177//242 178//242
f 103//179 178//242 179//251
f 98//170 164//237 165//252
f 89//184 179//251 151//247
f 106//171 165//252 166//253
f 104//195 144//255 143//254
f 92//179 171//242 180//242
f 122//194 192//243 144//255
f 90//186 167//239 168//237
f 91//233 143//254 145//238
f 110//179 180//242 177//242
f 335//173 340//161 293//160
f 84//257 292//134 340//161
f 292//134 16//20 288//116
f 329//258 341//157 231//159
f 330//230 341//157 329//258
f 330//230 75//310 327//63
f 342//156 309//155 63//261
f 208//124 342//156 310//180
f 37//262 209//154 342//156
f 305//263 343//151 199//153
f 50//264 316//38 343//151
f 316//38 67//37 339//193
f 344//148 303//150 48//57
f 242//266 344//148 250//265
f 242//266 50//264 305//263
f 238//267 345//145 304//147
f 303//150 345//145 238//267
f 62//149 198//327 345//145
f 302//268 346//142 203//144
f 235//29 346//142 302//268
f 235//29 15//315 248//269
f 264//80 347//139 300//141
f 252//61 347//139 264//80
f 47//60 302//268 347//139
f 348//138 301//137 10//271
f 44//270 300//141 348//138
f 300//141 61//140 202//136
f 349//135 292//134 84//257
f 336//272 349//135 338//187
f 43//274 225//21 349//135
f 350//129 206//131 60//127
f 217//15 350//129 297//275
f 13//14 298//219 350//129
f 294//123 351//126 296//128
f 281//107 351//126 294//123
f 40//106 297//275 351//126
f 352//125 208//124 59//256
f 213//12 352//125 293//160
f 213//12 17//11 294//123
f 290//276 353//120 211//122
f 291//203 353//120 290//276
f 9//278 282//285 353//120
f 271//89 354//117 287//119
f 5//280 289//199 354//117
f 289//199 30//277 290//276
f 355//114 288//116 16//20
f 287//119 355//114 224//281
f 58//118 210//324 355//114
f 284//282 356//113 215//112
f 22//283 285//183 356//113
f 2//284 286//111 356//113
f 282//285 357//108 280//110
f 283//178 357//108 282//285
f 283//178 22//283 284//282
f 358//105 281//107 17//11
f 280//110 358//105 212//286
f 57//109 214//323 358//105
f 359//102 331//101 80//287
f 279//234 359//102 332//236
f 8//289 274//94 359//102
f 277//95 360//100 219//99
f 33//291 278//231 360//100
f 278//231 12//298 267//98
f 361//97 273//96 21//292
f 276//229 361//97 275//225
f 33//291 277//95 361//97
f 272//220 362//92 274//94
f 21//292 273//96 362//92
f 273//96 56//290 218//294
f 363//91 223//90 55//87
f 26//296 270//215 363//91
f 5//280 271//89 363//91
f 364//86 265//88 41//297
f 12//298 268//209 364//86
f 268//209 26//296 269//295
f 220//16 365//85 266//84
f 265//88 365//85 220//16
f 265//88 55//87 222//83
f 366//82 227//81 54//300
f 46//301 233//27 366//82
f 19//26 264//80 366//82
f 262//196 367//79 260//78
f 11//303 257//69 367//79
f 257//69 46//301 263//77
f 259//185 368//76 261//75
f 260//78 368//76 259//185
f 260//78 54//300 226//74
f 369//73 258//72 78//305
f 329//258 369//73 328//227
f 53//259 256//71 369//73
f 255//169 370//70 257//69
f 256//71 370//70 255//169
f 256//71 53//259 230//68
f 326//222 371//64 327//63
f 76//308 253//307 371//64
f 253//307 52//309 251//62
f 372//59 252//61 19//26
f 251//62 372//59 232//311
f 52//309 234//321 372//59
f 249//53 373//56 237//58
f 49//313 240//314 373//56
f 240//314 20//34 250//265
f 374//55 246//54 29//143
f 245//45 374//55 248//269
f 245//45 49//313 249//53
f 204//4 375//50 247//52
f 246//54 375//50 204//4
f 246//54 51//312 236//317
f 376//46 245//45 15//315
f 77//65 323//48 376//46
f 73//47 314//35 376//46
f 377//31 239//33 28//51
f 237//58 377//31 236//317
f 237//58 48//57 238//267
f 234//321 378//30 235//29
f 52//309 311//66 378//30
f 311//66 77//65 312//28
f 379//25 233//27 46//301
f 53//259 231//159 379//25
f 231//159 45//158 232//311
f 380//24 229//23 24//322
f 227//81 380//24 226//74
f 227//81 44//270 228//22
f 381//19 225//21 43//274
f 55//87 223//90 381//19
f 36//279 224//281 381//19
f 382//18 221//17 42//93
f 56//290 219//99 382//18
f 41//297 220//16 382//18
f 383//13 217//15 40//106
f 215//112 383//13 214//323
f 215//112 34//333 216//210
f 210//324 384//10 213//12
f 211//122 384//10 210//324
f 38//121 212//286 384//10
f 307//325 385//7 308//9
f 206//131 385//7 307//325
f 27//130 207//189 385//7
f 202//136 386//6 205//5
f 61//140 203//144 386//6
f 29//143 204//4 386//6
f 198//327 387//1 201//3
f 199//153 387//1 198//327
f 199//153 23//152 200//232
