# Blender 5.1.0
# www.blender.org
mtllib tree1.mtl
o tree.001
v 0.213733 0.382383 0.061314 0.5451 0.3647 0.1490
v 0.050780 0.232671 0.182426 0.5451 0.3647 0.1490
v 0.193612 0.382383 -0.000622 0.5451 0.3647 0.1490
v 0.038300 0.038423 0.196634 0.5451 0.3647 0.1490
v -0.027389 0.032303 0.029618 0.5451 0.3647 0.1490
v 0.046285 0.027199 -0.002270 0.5451 0.3647 0.1490
v 0.174661 0.001391 0.167594 0.5451 0.3647 0.1490
v 0.239909 0.001391 0.039514 0.5451 0.3647 0.1490
v 0.248404 0.220535 0.124506 0.5451 0.3647 0.1490
v 0.174012 -0.533153 0.196210 0.5451 0.3647 0.1490
v 0.196259 -0.957041 0.199290 0.5451 0.3647 0.1490
v 0.271340 -0.917017 0.045658 0.5451 0.3647 0.1490
v 0.212972 -0.867145 -0.077550 0.5451 0.3647 0.1490
v -0.061019 -0.923329 0.038938 0.5451 0.3647 0.1490
v 0.035220 -0.926881 0.163530 0.5451 0.3647 0.1490
v 0.077428 0.382383 0.000010 0.5451 0.3647 0.1490
v -0.009540 0.226407 0.013418 0.5451 0.3647 0.1490
v -0.061019 -0.923313 0.038938 0.5451 0.3647 0.1490
v 0.030724 -0.183049 0.208250 0.5451 0.3647 0.1490
v -0.073052 -0.366465 0.009082 0.5451 0.3647 0.1490
v 0.010501 -0.547441 -0.054062 0.5451 0.3647 0.1490
v -0.026107 -0.930257 0.149498 0.5451 0.3647 0.1490
v 0.054757 -0.941785 0.235154 0.5451 0.3647 0.1490
v 0.284429 -0.540297 -0.018614 0.5451 0.3647 0.1490
v 0.184428 -0.322857 -0.023494 0.5451 0.3647 0.1490
v 0.181668 -0.130273 -0.007086 0.5451 0.3647 0.1490
v 0.221787 -0.329265 0.078818 0.5451 0.3647 0.1490
v 1.103932 0.725375 -0.604894 0.1804 0.5451 0.2157
v 0.435397 0.279191 -1.235333 0.1804 0.5451 0.2157
v 1.057820 1.290079 -1.426542 0.1804 0.5451 0.2157
v -0.190477 0.515903 -0.305038 0.1804 0.5451 0.2157
v -0.609187 0.736551 -1.348678 0.1804 0.5451 0.2157
v -0.789811 0.320807 0.275706 0.1804 0.5451 0.2157
v 0.296773 0.165015 0.601586 0.1804 0.5451 0.2157
v -1.992091 0.803735 0.709250 0.1804 0.5451 0.2157
v -2.356580 1.830615 -0.114974 0.1804 0.5451 0.2157
v -0.484901 1.857743 -1.550326 0.1804 0.5451 0.2157
v -1.379581 1.982311 -1.057886 0.1804 0.5451 0.2157
v -0.840123 1.164535 1.349146 0.1804 0.5451 0.2157
v 0.539893 1.102207 1.819650 0.1804 0.5451 0.2157
v -0.032701 2.505703 1.468322 0.1804 0.5451 0.2157
v 1.169284 2.676495 0.116530 0.1804 0.5451 0.2157
v -0.598548 1.048415 0.931090 0.1804 0.5451 0.2157
v -0.325915 0.819111 0.341050 0.1804 0.5451 0.2157
v -0.197963 2.259575 -0.350934 0.1804 0.5451 0.2157
v -0.608644 1.509399 1.101618 0.1804 0.5451 0.2157
v -0.427068 2.396735 0.589170 0.1804 0.5451 0.2157
v -0.394435 2.243031 0.840194 0.1804 0.5451 0.2157
v 0.859204 0.683119 -0.449374 0.1804 0.5451 0.2157
v 0.536733 0.668679 -0.312366 0.1804 0.5451 0.2157
v 0.523524 2.119567 -0.952518 0.1804 0.5451 0.2157
v 0.080909 2.247983 -0.572406 0.1804 0.5451 0.2157
v -0.484187 0.908903 -0.606062 0.1804 0.5451 0.2157
v -0.677636 1.600447 -0.812230 0.1804 0.5451 0.2157
v -1.922555 2.296831 -0.053838 0.1804 0.5451 0.2157
v 0.339452 2.030919 -1.558638 0.1804 0.5451 0.2157
v 1.713532 2.097319 0.436530 0.1804 0.5451 0.2157
v 0.850612 2.353327 1.409242 0.1804 0.5451 0.2157
v 1.092637 1.760103 1.557738 0.1804 0.5451 0.2157
v 0.269677 2.607759 0.475298 0.1804 0.5451 0.2157
v -0.197995 2.259591 -0.350870 0.1804 0.5451 0.2157
v 0.970517 1.841919 -0.677526 0.1804 0.5451 0.2157
v 1.430268 1.846415 -0.191286 0.1804 0.5451 0.2157
v 1.590140 1.281639 0.016722 0.1804 0.5451 0.2157
v -2.059859 1.975159 0.546882 0.1804 0.5451 0.2157
v -1.892676 1.504143 0.924938 0.1804 0.5451 0.2157
v -1.364276 1.669623 1.218450 0.1804 0.5451 0.2157
v -1.605020 2.369847 0.484578 0.1804 0.5451 0.2157
v -1.045341 2.313063 0.738986 0.1804 0.5451 0.2157
v -0.633468 2.426991 0.126570 0.1804 0.5451 0.2157
v -1.030212 2.392135 0.048626 0.1804 0.5451 0.2157
v -1.823947 0.758527 -0.139806 0.1804 0.5451 0.2157
v -2.098228 1.379967 -0.325982 0.1804 0.5451 0.2157
v -1.232539 0.802663 -0.619974 0.1804 0.5451 0.2157
v 1.311349 2.494895 0.575346 0.1804 0.5451 0.2157
v 0.310725 2.515079 -0.264222 0.1804 0.5451 0.2157
v 0.732324 2.688567 0.898498 0.1804 0.5451 0.2157
v 1.705348 1.250495 0.692610 0.1804 0.5451 0.2157
v 1.343924 1.361495 1.257234 0.1804 0.5451 0.2157
v 1.271653 0.602503 0.760378 0.1804 0.5451 0.2157
v 1.518420 0.773823 0.391514 0.1804 0.5451 0.2157
v 0.579509 1.182103 -1.770486 0.1804 0.5451 0.2157
v 0.318269 0.812999 -1.730734 0.1804 0.5451 0.2157
v -0.053931 0.975959 -1.771117 0.1804 0.5451 0.2157
v -0.155116 1.523079 -1.753390 0.1804 0.5451 0.2157
v 0.054652 0.366063 0.187178 0.5451 0.3647 0.1490
v 0.069804 0.332847 0.185202 0.5451 0.3647 0.1490
v 0.070756 0.327783 0.181034 0.5451 0.3647 0.1490
v 0.038939 0.350695 0.121834 0.5451 0.3647 0.1490
v 0.025573 0.375263 0.066914 0.5451 0.3647 0.1490
v 0.026029 0.374527 0.068578 0.5451 0.3647 0.1490
v 0.036260 0.382383 0.056994 0.5451 0.3647 0.1490
v 0.029179 0.370135 0.078714 0.5451 0.3647 0.1490
v 0.027564 0.372599 0.073090 0.5451 0.3647 0.1490
v 0.078547 0.417839 0.003138 0.5451 0.3647 0.1490
v 0.212581 0.414919 0.064274 0.5451 0.3647 0.1490
v 0.080077 0.337407 0.165522 0.5451 0.3647 0.1490
v 0.086789 0.420711 0.000746 0.5451 0.3647 0.1490
v 0.190133 0.441967 0.000618 0.5451 0.3647 0.1490
vn -0.8600 -0.4104 0.3034
vn -0.8600 -0.4103 0.3034
vn -0.8599 -0.4107 0.3032
vn -0.4140 0.5869 0.6958
vn -0.8575 -0.4503 0.2488
vn -0.5794 -0.2939 0.7602
vn 0.8728 0.4237 0.2423
vn -0.5879 -0.1160 -0.8006
vn 0.5113 0.4822 -0.7114
vn -0.7925 -0.5511 0.2613
vn 0.4463 0.2719 -0.8526
vn -0.4225 0.7056 -0.5689
vn -0.0944 -0.7848 0.6125
vn 0.5929 -0.6194 0.5146
vn 0.8299 -0.1775 0.5289
vn 0.3344 -0.8993 0.2819
vn 0.1951 -0.9111 0.3631
vn -0.3977 -0.9169 -0.0343
vn 0.1021 0.2680 -0.9580
vn -0.5419 -0.4515 -0.7089
vn -0.9708 0.0662 -0.2304
vn -0.4379 -0.6682 0.6015
vn 0.1273 0.9752 -0.1813
vn -0.2010 0.9443 -0.2605
vn -0.5929 0.6194 -0.5146
vn -0.7117 -0.7002 -0.0568
vn 0.7313 -0.6566 -0.1845
vn 0.0513 0.8727 -0.4856
vn -0.6625 0.7441 0.0864
vn 0.1127 0.2843 0.9521
vn -0.2251 0.8131 -0.5368
vn -0.2883 0.9575 0.0106
vn -0.8628 0.3734 0.3408
vn -0.8628 0.3733 0.3408
vn 0.9492 -0.2624 -0.1739
vn 0.7647 0.0496 -0.6425
vn 0.5275 0.0078 -0.8495
vn 0.6522 0.4352 -0.6207
vn -0.0971 0.9923 -0.0773
vn -0.9128 0.0038 0.4084
vn -0.4232 -0.2112 0.8810
vn 0.1346 0.3768 0.9164
vn -0.7313 0.6566 0.1845
vn 0.0692 0.9714 0.2272
vn 0.0485 0.9922 0.1147
vn -0.0628 0.9422 -0.3291
vn -0.2562 0.6560 0.7100
vn -0.0151 0.9392 -0.3431
vn 0.2922 0.9539 -0.0680
vn -0.0563 0.6143 0.7870
vn -0.5041 -0.3551 -0.7872
vn -0.3807 -0.9243 -0.0262
vn 0.0657 -0.3401 -0.9381
vn -0.8865 -0.4369 -0.1523
vn -0.6888 -0.0565 -0.7228
vn 0.1296 -0.8451 -0.5187
vn -0.1054 0.9917 -0.0742
vn 0.1792 0.8410 0.5105
vn -0.3497 0.8328 -0.4292
vn -0.3497 0.8328 -0.4291
vn -0.3498 0.8329 -0.4289
vn -0.2055 0.9779 0.0379
vn 0.6070 0.6030 0.5175
vn -0.1271 0.9833 -0.1303
vn 0.7499 0.4241 -0.5078
vn 0.7217 -0.4259 0.5457
vn 0.8628 -0.3734 -0.3408
vn 0.4237 -0.8960 -0.1327
vn 0.6019 -0.4767 0.6407
vn 0.8460 0.1468 0.5126
vn 0.9835 -0.0610 -0.1704
vn 0.6041 -0.2006 0.7712
vn -0.0090 0.0307 -0.9995
vn 0.4973 0.3399 -0.7982
vn 0.5807 -0.4817 -0.6563
vn -0.2269 -0.6888 -0.6886
vn -0.5811 -0.0812 -0.8098
vn -0.1016 0.4409 -0.8918
vn 0.9492 0.0618 -0.3084
vn 0.9492 0.0617 -0.3084
vn 0.9493 0.0617 -0.3084
vn -0.9523 0.0365 0.3030
vn 0.2852 0.0916 0.9541
vn 0.8710 0.3940 -0.2934
vn 0.2194 0.0708 -0.9731
vn -0.0536 -0.9804 -0.1894
vn -0.9657 -0.0214 0.2589
vn 0.8805 -0.1093 -0.4614
vn -0.7522 0.3727 -0.5434
vn -0.7523 0.3726 -0.5434
vn -0.7522 0.3726 -0.5434
vn -0.9344 0.0954 0.3432
vn -0.9376 0.0933 0.3349
vn -0.9388 0.0921 0.3318
vn -0.0417 0.0891 -0.9951
vn -0.1929 0.0232 -0.9810
vn 0.8719 -0.2061 0.4442
vn -0.3584 -0.1594 -0.9199
vn -0.6739 -0.0541 -0.7368
vn -0.3902 0.0919 -0.9161
vn -0.2195 -0.0599 0.9738
vn -0.4275 -0.1664 -0.8885
vn -0.4569 -0.1581 -0.8754
vn -0.4279 -0.1677 -0.8881
vn 0.1784 0.0416 0.9831
vn -0.9731 0.0201 0.2293
vn 0.6770 -0.1316 0.7241
vn 0.9393 0.0425 -0.3403
vn 0.8915 0.0503 0.4502
vn 0.8896 0.0473 0.4544
vn 0.8888 0.0532 0.4552
vn 0.8910 0.0051 0.4539
vn 0.1273 0.0363 -0.9912
vn 0.0642 0.0856 -0.9943
vn 0.2345 0.2305 -0.9444
vn -0.7346 -0.6760 0.0587
vn -0.8600 -0.4104 0.3033
vn -0.8600 -0.4103 0.3033
vn -0.5376 0.4035 0.7404
vn -0.5313 -0.0047 0.8472
vn 0.1806 -0.8807 -0.4379
vn 0.1807 -0.8807 -0.4379
vn 0.1809 -0.8809 -0.4374
vn 0.1804 -0.8806 -0.4383
vn 0.1809 -0.8807 -0.4378
vn 0.1805 -0.8807 -0.4379
vn 0.1808 -0.8809 -0.4373
vn 0.1807 -0.8806 -0.4380
vn -0.1792 -0.8410 -0.5105
vn -0.3332 -0.4449 -0.8312
vn 0.1963 -0.9555 -0.2203
vn 0.0900 -0.9116 -0.4012
vn 0.0550 -0.9118 -0.4069
vn 0.6888 0.0564 0.7228
vn 0.7409 -0.5334 -0.4082
vn 0.7098 0.6334 -0.3082
vn -0.3336 0.8212 -0.4630
vn -0.3148 0.9252 -0.2117
vn 0.8062 -0.5079 0.3035
vn 0.7260 -0.0472 -0.6860
vn -0.6123 0.7467 0.2599
vn -0.1086 0.9879 0.1108
vn 0.1722 0.9382 -0.3002
vn 0.1694 0.9363 -0.3078
vn 0.1748 0.9400 -0.2931
vn -0.7985 0.4616 0.3865
vn -0.2325 -0.8998 -0.3691
vn 0.4175 0.8817 0.2197
vn -0.4261 0.8944 -0.1357
vn 0.5356 0.2614 0.8030
vn 0.9216 0.3860 0.0399
vn 0.7117 0.7002 0.0567
vn 0.2638 -0.7892 0.5546
vn 0.8936 0.0911 -0.4396
vn 0.0463 -0.1393 -0.9892
vn -0.2269 -0.6888 -0.6885
vn 0.9492 0.0618 -0.3085
vn -0.9308 0.0493 0.3623
vn -0.9300 0.0509 0.3639
vn -0.9333 0.0437 0.3563
vn -0.6109 0.0292 0.7911
vn -0.9463 -0.1420 0.2903
vn -0.9336 0.0430 0.3556
vn 0.2803 0.4006 0.8723
vn 0.2227 0.0569 0.9732
vn 0.2214 0.0525 0.9738
vn 0.2224 0.0561 0.9733
vn 0.8852 -0.3658 -0.2876
vn 0.9478 0.0827 -0.3081
vn 0.0743 -0.9935 -0.0857
vn 0.0253 -0.9224 -0.3854
vn -0.1837 -0.9256 -0.3309
vn 0.0199 -0.9988 -0.0438
vn 0.1230 0.1500 -0.9810
vn -0.8082 0.0770 -0.5839
vn -0.9453 0.1124 0.3061
vn -0.9258 0.1152 0.3599
vn -0.9477 0.0834 0.3080
vn -0.1808 0.8783 0.4427
vn -0.1807 0.8783 0.4426
vn -0.9343 0.0966 0.3431
vn -0.0054 0.0205 -0.9998
vn -0.0051 0.0077 -1.0000
vn -0.0054 0.0177 -0.9998
vn -0.0054 0.0069 -1.0000
vn -0.3992 -0.0397 -0.9160
vn -0.4403 0.1078 -0.8914
vn 0.2495 0.0422 0.9675
vn 0.2477 0.0200 0.9686
vn 0.2215 0.0519 0.9738
vn -0.9732 0.0201 0.2293
vn 0.0491 -0.0370 0.9981
vn 0.6243 -0.0488 0.7796
vn 0.8888 -0.1805 0.4212
vn 0.7681 -0.1169 -0.6296
vn 0.8888 0.0537 0.4551
vn 0.8921 0.0501 0.4490
vn 0.9130 0.0207 0.4075
s 1
usemtl Material.006
f 34//1 86//2 87//3
f 65//4 67//4 68//4
f 32//5 31//5 53//5
f 40//6 46//6 43//6
f 28//7 30//7 51//7
f 49//8 88//8 96//8
f 54//9 32//9 38//9
f 32//10 53//10 38//10
f 38//11 45//11 54//11
f 54//12 45//12 52//12
f 39//13 35//13 33//13
f 43//14 33//14 44//14
f 46//15 39//15 43//15
f 29//16 28//16 49//16
f 50//17 29//17 49//17
f 31//18 32//18 29//18
f 56//19 82//19 85//19
f 74//20 72//20 73//20
f 54//21 37//21 32//21
f 43//22 34//22 40//22
f 51//23 56//23 52//23
f 37//24 52//24 56//24
f 38//25 36//25 55//25
f 44//26 34//26 43//26
f 44//27 33//27 53//27
f 51//28 76//28 42//28
f 37//29 54//29 52//29
f 40//30 58//30 41//30
f 52//31 76//31 51//31
f 60//32 47//32 41//32
f 48//33 41//33 47//34
f 78//35 81//35 64//35
f 62//36 64//36 28//36
f 51//37 62//37 28//37
f 62//38 42//38 63//38
f 55//39 68//39 71//39
f 35//40 65//40 36//40
f 66//41 39//41 67//41
f 67//42 39//42 48//42
f 65//43 55//43 36//43
f 69//44 48//44 70//44
f 69//45 71//45 68//45
f 38//46 55//46 71//46
f 68//47 67//47 69//47
f 71//48 45//48 38//48
f 47//49 61//49 70//49
f 48//50 69//50 67//50
f 74//51 73//51 38//51
f 72//52 33//52 35//52
f 74//53 38//53 53//53
f 73//54 35//54 36//54
f 38//55 73//55 36//55
f 74//56 53//56 33//56
f 77//57 42//57 60//57
f 58//58 77//58 41//58
f 61//59 76//60 45//61
f 60//62 41//62 77//62
f 77//63 59//63 57//63
f 76//64 60//64 42//64
f 42//65 57//65 63//65
f 78//66 79//66 80//66
f 28//67 64//67 81//67
f 28//68 80//68 34//68
f 40//69 80//69 79//69
f 79//70 57//70 59//70
f 64//71 57//71 78//71
f 40//72 79//72 59//72
f 82//73 84//73 85//73
f 82//74 56//74 30//74
f 30//75 83//75 82//75
f 32//76 83//76 29//76
f 32//77 85//77 84//77
f 56//78 85//78 37//78
f 3//79 96//80 1//81
f 5//82 18//82 22//82
f 2//83 7//83 9//83
f 24//84 25//84 27//84
f 1//85 8//85 6//85
f 15//86 12//86 23//86
f 23//87 19//87 15//87
f 13//88 24//88 12//88
f 16//89 90//90 92//91
f 91//92 4//93 93//94
f 99//95 16//95 95//95
f 6//96 17//96 16//96
f 9//97 7//97 8//97
f 14//98 21//98 13//98
f 18//99 20//99 21//99
f 6//100 20//100 5//100
f 19//101 22//101 15//101
f 18//102 21//103 14//104
f 23//105 10//105 4//105
f 2//106 89//106 93//106
f 2//107 96//107 88//107
f 26//108 27//108 25//108
f 10//109 12//110 24//111
f 7//112 27//112 8//112
f 21//113 25//113 24//113
f 6//114 25//114 21//114
f 6//115 8//115 26//115
f 34//116 44//116 53//116
f 53//2 31//2 89//117
f 53//2 89//117 86//2
f 87//3 88//118 34//1
f 34//1 53//2 86//2
f 65//119 66//119 67//119
f 40//120 41//120 46//120
f 93//121 89//122 31//121
f 94//123 93//121 31//121
f 91//124 94//123 31//121
f 90//125 91//124 31//121
f 95//126 92//127 90//125
f 95//126 90//125 31//121
f 95//126 31//121 50//121
f 98//128 95//126 50//121
f 49//129 28//129 34//129
f 98//130 50//130 49//130
f 99//131 98//131 49//131
f 49//132 34//132 88//132
f 88//121 97//121 96//121
f 96//133 99//133 49//133
f 43//14 39//14 33//14
f 46//134 48//134 39//134
f 29//135 30//135 28//135
f 50//17 31//17 29//17
f 51//136 30//136 56//136
f 40//30 59//30 58//30
f 52//137 45//137 76//137
f 60//138 61//138 47//138
f 48//33 46//33 41//33
f 78//139 80//139 81//139
f 62//140 63//140 64//140
f 62//38 51//38 42//38
f 35//40 66//40 65//40
f 66//41 35//41 39//41
f 65//141 68//141 55//141
f 69//142 70//142 71//142
f 71//48 70//48 45//48
f 61//143 45//144 70//145
f 70//146 48//146 47//146
f 72//147 74//147 33//147
f 73//54 72//54 35//54
f 77//148 75//148 42//148
f 61//149 60//149 76//149
f 57//150 75//150 77//150
f 77//151 58//151 59//151
f 42//152 75//152 57//152
f 28//68 81//68 80//68
f 40//153 34//153 80//153
f 79//70 78//70 57//70
f 64//154 63//154 57//154
f 82//155 83//155 84//155
f 30//75 29//75 83//75
f 32//76 84//156 83//76
f 32//77 37//77 85//77
f 3//79 99//157 96//80
f 19//158 4//159 5//160
f 5//161 20//161 18//161
f 18//162 14//162 22//162
f 22//163 19//158 5//160
f 9//164 1//164 2//164
f 2//165 4//166 7//167
f 6//168 3//168 1//168
f 1//169 9//169 8//169
f 15//170 22//170 14//170
f 14//171 13//171 12//171
f 12//172 11//172 23//172
f 15//173 14//173 12//173
f 13//174 21//174 24//174
f 92//175 95//175 16//175
f 16//89 17//89 90//90
f 91//176 90//176 17//176
f 17//177 5//177 4//177
f 4//178 2//178 93//178
f 93//179 94//179 91//180
f 91//92 17//181 4//93
f 95//126 98//128 99//128
f 99//182 3//183 16//184
f 16//184 3//183 6//185
f 6//186 5//186 17//186
f 6//187 21//187 20//187
f 4//188 19//188 23//188
f 23//189 11//189 10//189
f 10//190 7//167 4//166
f 2//106 86//191 89//106
f 87//192 86//192 2//192
f 2//193 1//193 96//193
f 88//194 87//194 2//194
f 26//195 8//195 27//195
f 24//111 27//196 10//109
f 10//109 11//197 12//110
f 7//198 10//198 27//198
f 6//114 26//114 25//114
