# Blender 5.1.0
# www.blender.org
mtllib sheep.mtl
o Icosphere.003
v 0.267127 0.100882 0.103037 0.1608 0.8862 0.1216
v 0.263432 0.094360 0.131543 0.1608 0.8862 0.1216
v 0.294620 0.106484 0.125438 0.1608 0.8862 0.1216
v 0.262381 0.127617 0.139665 0.1608 0.8862 0.1216
v 0.284406 0.131481 0.135177 0.1608 0.8862 0.1216
v 0.282026 0.121497 0.100836 0.1608 0.8862 0.1216
v 0.264014 0.129310 0.106043 0.1608 0.8862 0.1216
v 0.247140 0.116955 0.121902 0.1608 0.8862 0.1216
v 0.284543 0.103320 0.106729 0.1608 0.8862 0.1216
v 0.246523 0.093909 0.123845 0.1608 0.8862 0.1216
v 0.250735 0.088311 0.119456 0.1608 0.8862 0.1216
v 0.257080 0.092435 0.126749 0.1608 0.8862 0.1216
v 0.251635 0.078522 0.126684 0.1608 0.8862 0.1216
v 0.255731 0.092362 0.134245 0.1608 0.8862 0.1216
v 0.256308 0.082344 0.134942 0.1608 0.8862 0.1216
v 0.248943 0.078877 0.131292 0.1608 0.8862 0.1216
v 0.246427 0.093031 0.136722 0.1608 0.8862 0.1216
v 0.242230 0.086115 0.134823 0.1608 0.8862 0.1216
v 0.241684 0.092302 0.129105 0.1608 0.8862 0.1216
v 0.242237 0.081790 0.124995 0.1608 0.8862 0.1216
v 0.249618 0.096604 0.130459 0.1608 0.8862 0.1216
v 0.254661 0.125281 0.049620 0.3019 0.2118 0.0627
v 0.254661 0.116206 0.081662 0.3019 0.2118 0.0627
v 0.260231 0.128858 0.051000 0.3019 0.2118 0.0627
v 0.260231 0.119783 0.083042 0.3019 0.2118 0.0627
v 0.266336 0.126145 0.049953 0.3019 0.2118 0.0627
v 0.266336 0.117070 0.081995 0.3019 0.2118 0.0627
v 0.266871 0.119856 0.047528 0.3019 0.2118 0.0627
v 0.266871 0.110781 0.079570 0.3019 0.2118 0.0627
v 0.261300 0.116279 0.046148 0.3019 0.2118 0.0627
v 0.261300 0.107204 0.078190 0.3019 0.2118 0.0627
v 0.255195 0.118992 0.047195 0.3019 0.2118 0.0627
v 0.255195 0.109917 0.079237 0.3019 0.2118 0.0627
v 0.260231 0.119783 0.083042 0.3019 0.2118 0.0627
v 0.254661 0.116206 0.081662 0.3019 0.2118 0.0627
v 0.266336 0.117070 0.081995 0.3019 0.2118 0.0627
v 0.266871 0.110781 0.079570 0.3019 0.2118 0.0627
v 0.261300 0.107204 0.078190 0.3019 0.2118 0.0627
v 0.255195 0.109917 0.079237 0.3019 0.2118 0.0627
v 0.268073 0.118494 0.126935 0.3019 0.2118 0.0627
v 0.264036 0.115903 0.125936 0.3019 0.2118 0.0627
v 0.272496 0.116529 0.126177 0.3019 0.2118 0.0627
v 0.272883 0.111972 0.124420 0.3019 0.2118 0.0627
v 0.268847 0.109380 0.123420 0.3019 0.2118 0.0627
v 0.264424 0.111346 0.124178 0.3019 0.2118 0.0627
v 0.251239 0.097152 0.113878 0.3019 0.2118 0.0627
v 0.248433 0.095262 0.112728 0.3019 0.2118 0.0627
v 0.254511 0.095719 0.113802 0.3019 0.2118 0.0627
v 0.254978 0.092395 0.112575 0.3019 0.2118 0.0627
v 0.252172 0.090505 0.111425 0.3019 0.2118 0.0627
v 0.248899 0.091939 0.111501 0.3019 0.2118 0.0627
v 0.248926 0.089419 0.130245 0.3019 0.2118 0.0627
v 0.247119 0.088201 0.129504 0.3019 0.2118 0.0627
v 0.251034 0.088495 0.130196 0.3019 0.2118 0.0627
v 0.251334 0.086354 0.129406 0.3019 0.2118 0.0627
v 0.249527 0.085137 0.128665 0.3019 0.2118 0.0627
v 0.247419 0.086060 0.128714 0.3019 0.2118 0.0627
v 0.216516 0.305304 0.113600 0.1647 0.0980 0.0510
v 0.233375 0.257566 0.150638 0.1647 0.0980 0.0510
v 0.219503 0.296089 0.166135 0.1647 0.0980 0.0510
v 0.234275 0.290574 0.162861 0.1647 0.0980 0.0510
v 0.198584 0.311218 0.080804 0.1647 0.0980 0.0510
v 0.215472 0.328835 0.072309 0.1647 0.0980 0.0510
v 0.239663 0.323744 0.075646 0.1647 0.0980 0.0510
v 0.247195 0.300339 0.073650 0.1647 0.0980 0.0510
v 0.213965 0.280006 0.074470 0.1647 0.0980 0.0510
v 0.196164 0.303999 0.074943 0.1647 0.0980 0.0510
v 0.244473 0.285053 0.077549 0.1647 0.0980 0.0510
v 0.211689 0.254936 0.140542 0.1647 0.0980 0.0510
v 0.230291 0.259741 0.112269 0.1647 0.0980 0.0510
v 0.240691 0.300606 0.109417 0.1647 0.0980 0.0510
v 0.244278 0.269452 0.137011 0.1647 0.0980 0.0510
v 0.223911 0.292824 0.153718 0.1647 0.0980 0.0510
v 0.206316 0.273093 0.154117 0.1647 0.0980 0.0510
v 0.216516 0.305304 -0.126241 0.1647 0.0980 0.0510
v 0.233375 0.257566 -0.163278 0.1647 0.0980 0.0510
v 0.219503 0.296089 -0.178775 0.1647 0.0980 0.0510
v 0.234275 0.290574 -0.175501 0.1647 0.0980 0.0510
v 0.198584 0.311218 -0.093444 0.1647 0.0980 0.0510
v 0.215472 0.328835 -0.084949 0.1647 0.0980 0.0510
v 0.239663 0.323744 -0.088287 0.1647 0.0980 0.0510
v 0.247195 0.300339 -0.086291 0.1647 0.0980 0.0510
v 0.213965 0.280006 -0.087111 0.1647 0.0980 0.0510
v 0.196164 0.303999 -0.087584 0.1647 0.0980 0.0510
v 0.244473 0.285053 -0.090190 0.1647 0.0980 0.0510
v 0.211689 0.254936 -0.153182 0.1647 0.0980 0.0510
v 0.230291 0.259741 -0.124910 0.1647 0.0980 0.0510
v 0.240690 0.300606 -0.122057 0.1647 0.0980 0.0510
v 0.244278 0.269452 -0.149652 0.1647 0.0980 0.0510
v 0.223911 0.292824 -0.166359 0.1647 0.0980 0.0510
v 0.206316 0.273093 -0.166758 0.1647 0.0980 0.0510
v 0.184189 0.063365 -0.006320 0.1647 0.0980 0.0510
v 0.249450 0.131984 -0.096146 0.1647 0.0980 0.0510
v 0.289785 0.131984 0.027989 0.1647 0.0980 0.0510
v 0.184189 0.131985 0.088185 0.1647 0.0980 0.0510
v 0.289785 0.338086 -0.040630 0.1647 0.0980 0.0510
v 0.249450 0.338086 0.083505 0.1647 0.0980 0.0510
v 0.153852 0.338085 -0.100826 0.1647 0.0980 0.0510
v 0.095969 0.371655 -0.006320 0.1647 0.0980 0.0510
v 0.246256 0.081904 0.013846 0.1647 0.0980 0.0510
v 0.222548 0.081904 -0.059118 0.1647 0.0980 0.0510
v 0.284616 0.122237 -0.038952 0.1647 0.0980 0.0510
v 0.184189 0.122238 -0.096200 0.1647 0.0980 0.0510
v 0.184189 0.081904 0.058942 0.1647 0.0980 0.0510
v 0.246256 0.122238 0.079108 0.1647 0.0980 0.0510
v 0.222548 0.306782 -0.106809 0.1647 0.0980 0.0510
v 0.308325 0.306782 -0.006320 0.1647 0.0980 0.0510
v 0.284617 0.306782 -0.079285 0.1647 0.0980 0.0510
v 0.222548 0.306782 0.094169 0.1647 0.0980 0.0510
v 0.284617 0.306782 0.066645 0.1647 0.0980 0.0510
v 0.202455 0.349861 -0.091749 0.1647 0.0980 0.0510
v 0.284616 0.349861 0.026311 0.1647 0.0980 0.0510
v 0.153852 0.343708 0.083559 0.1647 0.0980 0.0510
v 0.202455 0.386173 -0.026487 0.1647 0.0980 0.0510
v 0.095969 0.367711 -0.071582 0.1647 0.0980 0.0510
v 0.178747 0.367711 0.046477 0.1647 0.0980 0.0510
v 0.288421 0.279871 0.027680 0.1647 0.0980 0.0510
v 0.280449 0.272313 0.022332 0.1647 0.0980 0.0510
v 0.280396 0.265795 0.022454 0.1647 0.0980 0.0510
v 0.285293 0.271475 0.019097 0.1647 0.0980 0.0510
v 0.284670 0.265795 0.017936 0.1647 0.0980 0.0510
v 0.294841 0.275006 0.017805 0.1647 0.0980 0.0510
v 0.304670 0.265795 0.019378 0.1647 0.0980 0.0510
v 0.296275 0.280760 0.026499 0.1647 0.0980 0.0510
v 0.305823 0.274812 0.027308 0.1647 0.0980 0.0510
v 0.309065 0.265795 0.030736 0.1647 0.0980 0.0510
v 0.304638 0.275299 0.037142 0.1647 0.0980 0.0510
v 0.301906 0.265795 0.045071 0.1647 0.0980 0.0510
v 0.291407 0.276772 0.041911 0.1647 0.0980 0.0510
v 0.290462 0.265795 0.046156 0.1647 0.0980 0.0510
v 0.287409 0.276508 0.040113 0.1647 0.0980 0.0510
v 0.284929 0.265795 0.043920 0.1647 0.0980 0.0510
v 0.288499 0.279871 0.034277 0.1647 0.0980 0.0510
v 0.280599 0.265795 0.039691 0.1647 0.0980 0.0510
v 0.287387 0.279704 0.030991 0.1647 0.0980 0.0510
v 0.278217 0.265795 0.034126 0.1647 0.0980 0.0510
v 0.290175 0.280970 0.036150 0.1647 0.0980 0.0510
v 0.278145 0.265795 0.028073 0.1647 0.0980 0.0510
v 0.288932 0.254111 0.028013 1.0000 1.0000 1.0000
v 0.281778 0.260893 0.023214 1.0000 1.0000 1.0000
v 0.281731 0.266742 0.023323 1.0000 1.0000 1.0000
v 0.286125 0.261645 0.020311 1.0000 1.0000 1.0000
v 0.285566 0.266742 0.019269 1.0000 1.0000 1.0000
v 0.294692 0.258477 0.019152 1.0000 1.0000 1.0000
v 0.303512 0.266742 0.020564 1.0000 1.0000 1.0000
v 0.295980 0.253313 0.026953 1.0000 1.0000 1.0000
v 0.304546 0.258651 0.027679 1.0000 1.0000 1.0000
v 0.307456 0.266742 0.030755 1.0000 1.0000 1.0000
v 0.303483 0.258213 0.036503 1.0000 1.0000 1.0000
v 0.301032 0.266742 0.043618 1.0000 1.0000 1.0000
v 0.291611 0.256892 0.040782 1.0000 1.0000 1.0000
v 0.290763 0.266742 0.044591 1.0000 1.0000 1.0000
v 0.288024 0.257128 0.039169 1.0000 1.0000 1.0000
v 0.285799 0.266742 0.042585 1.0000 1.0000 1.0000
v 0.289002 0.254111 0.033932 1.0000 1.0000 1.0000
v 0.281913 0.266742 0.038790 1.0000 1.0000 1.0000
v 0.288005 0.254261 0.030984 1.0000 1.0000 1.0000
v 0.279775 0.266742 0.033797 1.0000 1.0000 1.0000
v 0.290505 0.253125 0.035613 1.0000 1.0000 1.0000
v 0.279712 0.266742 0.028365 1.0000 1.0000 1.0000
v 0.304029 0.262696 0.024121 0.1647 0.0980 0.0510
v 0.305484 0.266742 0.025659 1.0000 1.0000 1.0000
v 0.305470 0.262478 0.033629 1.0000 1.0000 1.0000
v 0.304015 0.258432 0.032091 1.0000 1.0000 1.0000
v 0.306001 0.262696 0.029217 0.1647 0.0980 0.0510
v 0.303771 0.264719 0.022342 1.0000 1.0000 1.0000
v 0.304498 0.266742 0.023111 1.0000 1.0000 1.0000
v 0.306463 0.264610 0.032192 1.0000 1.0000 1.0000
v 0.305274 0.260674 0.028448 0.1647 0.0980 0.0510
v 0.304288 0.260674 0.025900 0.1647 0.0980 0.0510
v 0.306470 0.266742 0.028207 1.0000 1.0000 1.0000
v 0.306729 0.264719 0.029986 0.1647 0.0980 0.0510
v 0.305735 0.262587 0.031423 0.1647 0.0980 0.0510
v 0.305743 0.264719 0.027438 0.1647 0.0980 0.0510
v 0.304757 0.264719 0.024890 0.1647 0.0980 0.0510
v 0.305015 0.262696 0.026669 0.1647 0.0980 0.0510
v 0.304281 0.258541 0.029885 1.0000 1.0000 1.0000
v 0.304910 0.259662 0.028064 0.1647 0.0980 0.0510
v 0.305008 0.260564 0.030654 0.1647 0.0980 0.0510
v 0.305637 0.261685 0.028833 0.1647 0.0980 0.0510
v 0.304959 0.260113 0.029359 0.1647 0.0980 0.0510
v 0.305602 0.262532 0.032526 1.0000 1.0000 1.0000
v 0.304511 0.259498 0.031372 0.1647 0.0980 0.0510
v 0.304742 0.260455 0.032860 1.0000 1.0000 1.0000
v 0.305868 0.262642 0.030320 0.1647 0.0980 0.0510
v 0.305505 0.261630 0.029935 0.1647 0.0980 0.0510
v 0.306365 0.263708 0.029602 0.1647 0.0980 0.0510
v 0.305872 0.263708 0.028328 0.1647 0.0980 0.0510
v 0.304393 0.263708 0.024506 0.1647 0.0980 0.0510
v 0.304522 0.262696 0.025395 0.1647 0.0980 0.0510
v 0.305456 0.261179 0.028640 0.1647 0.0980 0.0510
v 0.305802 0.262614 0.030871 0.1647 0.0980 0.0510
v 0.305613 0.265730 0.026549 0.1647 0.0980 0.0510
v 0.305120 0.265730 0.025275 0.1647 0.0980 0.0510
v 0.305508 0.262696 0.027943 0.1647 0.0980 0.0510
v 0.305144 0.261685 0.027559 0.1647 0.0980 0.0510
v 0.304651 0.261685 0.026285 0.1647 0.0980 0.0510
v 0.304781 0.260673 0.027174 0.1647 0.0980 0.0510
v 0.305379 0.263708 0.027054 0.1647 0.0980 0.0510
v 0.305250 0.264719 0.026164 0.1647 0.0980 0.0510
v 0.304886 0.263708 0.025780 0.1647 0.0980 0.0510
v 0.306599 0.265730 0.029097 0.1647 0.0980 0.0510
v 0.306106 0.265730 0.027823 0.1647 0.0980 0.0510
v 0.306236 0.264719 0.028712 1.0000 1.0000 1.0000
v 0.306232 0.263653 0.030705 0.1647 0.0980 0.0510
v 0.305819 0.262191 0.029025 0.1647 0.0980 0.0510
v 0.305935 0.262669 0.029769 0.1647 0.0980 0.0510
v 0.305482 0.261938 0.028292 0.1647 0.0980 0.0510
v 0.306083 0.263161 0.030237 0.1647 0.0980 0.0510
v 0.287873 0.252629 -0.045808 1.0000 1.0000 1.0000
v 0.278995 0.260238 -0.049628 1.0000 1.0000 1.0000
v 0.278965 0.266801 -0.049498 1.0000 1.0000 1.0000
v 0.283192 0.261082 -0.053725 1.0000 1.0000 1.0000
v 0.282360 0.266801 -0.054759 1.0000 1.0000 1.0000
v 0.292402 0.257527 -0.056768 1.0000 1.0000 1.0000
v 0.302421 0.266801 -0.057028 1.0000 1.0000 1.0000
v 0.295429 0.251733 -0.048428 1.0000 1.0000 1.0000
v 0.305027 0.257723 -0.049392 1.0000 1.0000 1.0000
v 0.308870 0.266801 -0.046599 1.0000 1.0000 1.0000
v 0.305672 0.257232 -0.039441 1.0000 1.0000 1.0000
v 0.304434 0.266801 -0.031088 1.0000 1.0000 1.0000
v 0.293458 0.255749 -0.032276 1.0000 1.0000 1.0000
v 0.293307 0.266801 -0.027899 1.0000 1.0000 1.0000
v 0.289169 0.256015 -0.033316 1.0000 1.0000 1.0000
v 0.287418 0.266801 -0.029090 1.0000 1.0000 1.0000
v 0.289169 0.252629 -0.039294 1.0000 1.0000 1.0000
v 0.282351 0.266801 -0.032476 1.0000 1.0000 1.0000
v 0.287462 0.252797 -0.042340 1.0000 1.0000 1.0000
v 0.278965 0.266801 -0.037543 1.0000 1.0000 1.0000
v 0.291174 0.251522 -0.037750 1.0000 1.0000 1.0000
v 0.277776 0.266801 -0.043521 1.0000 1.0000 1.0000
v 0.303724 0.262262 -0.053210 0.1647 0.0980 0.0510
v 0.305645 0.266801 -0.051813 1.0000 1.0000 1.0000
v 0.307271 0.262016 -0.043020 1.0000 1.0000 1.0000
v 0.305350 0.257477 -0.044416 1.0000 1.0000 1.0000
v 0.306949 0.262262 -0.047995 0.1647 0.0980 0.0510
v 0.303073 0.264531 -0.055119 1.0000 1.0000 1.0000
v 0.304033 0.266801 -0.054420 1.0000 1.0000 1.0000
v 0.308070 0.264409 -0.044809 1.0000 1.0000 1.0000
v 0.305988 0.259992 -0.048694 0.1647 0.0980 0.0510
v 0.304376 0.259992 -0.051301 0.1647 0.0980 0.0510
v 0.307258 0.266801 -0.049206 1.0000 1.0000 1.0000
v 0.307909 0.264531 -0.047297 0.1647 0.0980 0.0510
v 0.307110 0.262139 -0.045508 0.1647 0.0980 0.0510
v 0.306297 0.264531 -0.049904 0.1647 0.0980 0.0510
v 0.304685 0.264531 -0.052511 0.1647 0.0980 0.0510
v 0.305336 0.262262 -0.050603 0.1647 0.0980 0.0510
v 0.305188 0.257600 -0.046904 1.0000 1.0000 1.0000
v 0.305508 0.258857 -0.049043 1.0000 1.0000 1.0000
v 0.306149 0.259869 -0.046206 0.1647 0.0980 0.0510
v 0.306468 0.261127 -0.048345 0.1647 0.0980 0.0510
v 0.305828 0.259363 -0.047625 0.1647 0.0980 0.0510
v 0.307190 0.262078 -0.044264 1.0000 1.0000 1.0000
v 0.305749 0.258673 -0.045311 1.0000 1.0000 1.0000
v 0.306310 0.259747 -0.043718 1.0000 1.0000 1.0000
v 0.307029 0.262200 -0.046752 0.1647 0.0980 0.0510
v 0.306549 0.261066 -0.047101 0.1647 0.0980 0.0510
v 0.307429 0.263397 -0.047646 0.1647 0.0980 0.0510
v 0.306623 0.263397 -0.048950 0.1647 0.0980 0.0510
v 0.304204 0.263397 -0.052861 0.1647 0.0980 0.0510
v 0.304530 0.262262 -0.051906 0.1647 0.0980 0.0510
v 0.306228 0.260560 -0.048519 0.1647 0.0980 0.0510
v 0.307069 0.262170 -0.046130 0.1647 0.0980 0.0510
v 0.305971 0.265666 -0.050859 0.1647 0.0980 0.0510
v 0.305165 0.265666 -0.052162 0.1647 0.0980 0.0510
v 0.306143 0.262262 -0.049299 0.1647 0.0980 0.0510
v 0.305662 0.261127 -0.049648 0.1647 0.0980 0.0510
v 0.304856 0.261127 -0.050952 0.1647 0.0980 0.0510
v 0.305182 0.259992 -0.049998 0.1647 0.0980 0.0510
v 0.305817 0.263397 -0.050253 0.1647 0.0980 0.0510
v 0.305491 0.264531 -0.051208 0.1647 0.0980 0.0510
v 0.305011 0.263397 -0.051557 0.1647 0.0980 0.0510
v 0.307584 0.265666 -0.048251 0.1647 0.0980 0.0510
v 0.306777 0.265666 -0.049555 0.1647 0.0980 0.0510
v 0.307103 0.264531 -0.048601 0.1647 0.0980 0.0510
v 0.307510 0.263335 -0.046402 0.1647 0.0980 0.0510
v 0.306708 0.261694 -0.048170 0.1647 0.0980 0.0510
v 0.306989 0.262231 -0.047374 0.1647 0.0980 0.0510
v 0.306185 0.261411 -0.048909 0.1647 0.0980 0.0510
v 0.307249 0.262783 -0.046888 0.1647 0.0980 0.0510
v 0.287241 0.281533 -0.046070 0.1647 0.0980 0.0510
v 0.277346 0.273053 -0.050328 0.1647 0.0980 0.0510
v 0.277313 0.265738 -0.050182 0.1647 0.0980 0.0510
v 0.282024 0.272112 -0.054893 0.1647 0.0980 0.0510
v 0.281097 0.265738 -0.056045 0.1647 0.0980 0.0510
v 0.292288 0.276074 -0.058285 0.1647 0.0980 0.0510
v 0.303454 0.265738 -0.058573 0.1647 0.0980 0.0510
v 0.295661 0.282531 -0.048990 0.1647 0.0980 0.0510
v 0.306359 0.275856 -0.050064 0.1647 0.0980 0.0510
v 0.310641 0.265738 -0.046951 0.1647 0.0980 0.0510
v 0.307077 0.276403 -0.038974 0.1647 0.0980 0.0510
v 0.305697 0.265738 -0.029665 0.1647 0.0980 0.0510
v 0.293466 0.278055 -0.030989 0.1647 0.0980 0.0510
v 0.293297 0.265738 -0.026111 0.1647 0.0980 0.0510
v 0.288686 0.277760 -0.032148 0.1647 0.0980 0.0510
v 0.286734 0.265738 -0.027438 0.1647 0.0980 0.0510
v 0.288685 0.281533 -0.038810 0.1647 0.0980 0.0510
v 0.281087 0.265738 -0.031212 0.1647 0.0980 0.0510
v 0.286783 0.281345 -0.042205 0.1647 0.0980 0.0510
v 0.277313 0.265738 -0.036859 0.1647 0.0980 0.0510
v 0.290920 0.282766 -0.037089 0.1647 0.0980 0.0510
v 0.275988 0.265738 -0.043521 0.1647 0.0980 0.0510
v -0.316531 -0.185909 0.100319 0.1647 0.0980 0.0510
v -0.301625 -0.175168 0.139531 0.1647 0.0980 0.0510
v -0.309100 0.187566 0.081524 0.1647 0.0980 0.0510
v -0.339788 0.187563 0.128945 0.1647 0.0980 0.0510
v -0.367698 0.187560 0.074392 0.1647 0.0980 0.0510
v -0.354044 -0.218574 0.173289 0.1647 0.0980 0.0510
v -0.378287 -0.218582 0.138057 0.1647 0.0980 0.0510
v -0.354052 -0.218576 0.102545 0.1647 0.0980 0.0510
v -0.275929 -0.186089 0.153754 0.1647 0.0980 0.0510
v -0.330343 -0.193898 0.175038 0.1647 0.0980 0.0510
v -0.271417 -0.218869 0.117071 0.1647 0.0980 0.0510
v -0.268473 -0.218577 0.156710 0.1647 0.0980 0.0510
v 0.047069 -0.186737 0.100210 0.1647 0.0980 0.0510
v 0.023447 0.187563 0.077500 0.1647 0.0980 0.0510
v 0.063195 -0.189864 0.138144 0.1647 0.0980 0.0510
v 0.054820 0.187566 0.116133 0.1647 0.0980 0.0510
v 0.001518 0.187559 0.124658 0.1647 0.0980 0.0510
v 0.011891 -0.218574 0.173289 0.1647 0.0980 0.0510
v -0.012353 -0.218582 0.138057 0.1647 0.0980 0.0510
v 0.011883 -0.218576 0.102545 0.1647 0.0980 0.0510
v 0.093872 -0.188538 0.146626 0.1647 0.0980 0.0510
v 0.037728 -0.190717 0.174346 0.1647 0.0980 0.0510
v 0.094518 -0.218869 0.117071 0.1647 0.0980 0.0510
v 0.097461 -0.218577 0.156710 0.1647 0.0980 0.0510
v 0.042763 -0.188339 -0.189877 0.1647 0.0980 0.0510
v 0.013851 0.187575 -0.147232 0.1647 0.0980 0.0510
v 0.064548 -0.170223 -0.151865 0.1647 0.0980 0.0510
v 0.053891 0.187567 -0.131907 0.1647 0.0980 0.0510
v 0.024849 0.187566 -0.087040 0.1647 0.0980 0.0510
v -0.004535 0.187576 -0.119479 0.1647 0.0980 0.0510
v 0.000735 -0.218573 -0.120925 0.1647 0.0980 0.0510
v -0.000295 -0.218577 -0.182524 0.1647 0.0980 0.0510
v 0.096295 -0.179290 -0.151865 0.1647 0.0980 0.0510
v 0.044039 -0.188272 -0.114433 0.1647 0.0980 0.0510
v 0.091501 -0.218577 -0.169200 0.1647 0.0980 0.0510
v 0.089894 -0.218577 -0.133658 0.1647 0.0980 0.0510
v -0.315482 -0.168738 -0.187847 0.1647 0.0980 0.0510
v -0.351274 0.187576 -0.140941 0.1647 0.0980 0.0510
v -0.317478 0.187576 -0.132267 0.1647 0.0980 0.0510
v -0.315870 0.187577 -0.095564 0.1647 0.0980 0.0510
v -0.351274 0.187576 -0.085751 0.1647 0.0980 0.0510
v -0.369555 0.187578 -0.113346 0.1647 0.0980 0.0510
v -0.370374 -0.218578 -0.128938 0.1647 0.0980 0.0510
v -0.366229 -0.218577 -0.182524 0.1647 0.0980 0.0510
v -0.280796 -0.187421 -0.154250 0.1647 0.0980 0.0510
v -0.315064 -0.168729 -0.116113 0.1647 0.0980 0.0510
v -0.295227 -0.218577 -0.174593 0.1647 0.0980 0.0510
v -0.279745 -0.218577 -0.114647 0.1647 0.0980 0.0510
v -0.224728 0.320068 -0.266251 1.0000 1.0000 1.0000
v -0.274070 0.019578 -0.236402 1.0000 1.0000 1.0000
v -0.067544 0.220349 -0.291721 1.0000 1.0000 1.0000
v -0.206350 -0.055128 -0.139604 1.0000 1.0000 1.0000
v 0.007070 0.426442 -0.046521 1.0000 1.0000 1.0000
v -0.056969 0.406851 -0.162557 1.0000 1.0000 1.0000
v 0.165117 0.184371 -0.196593 1.0000 1.0000 1.0000
v 0.041826 0.033265 -0.203275 1.0000 1.0000 1.0000
v 0.172510 0.314907 -0.156641 1.0000 1.0000 1.0000
v 0.207181 0.103868 -0.060423 1.0000 1.0000 1.0000
v 0.086412 -0.026540 -0.055401 1.0000 1.0000 1.0000
v 0.161491 0.365678 -0.004563 1.0000 1.0000 1.0000
v 0.202439 0.242319 0.099716 1.0000 1.0000 1.0000
v 0.193980 0.056725 0.074169 1.0000 1.0000 1.0000
v -0.142667 -0.079716 -0.028167 1.0000 1.0000 1.0000
v 0.092706 0.254417 0.211632 1.0000 1.0000 1.0000
v 0.068254 0.058704 0.196771 1.0000 1.0000 1.0000
v -0.017834 0.411663 0.131048 1.0000 1.0000 1.0000
v -0.109475 0.167874 0.278636 1.0000 1.0000 1.0000
v -0.057569 -0.055332 0.096523 1.0000 1.0000 1.0000
v -0.224728 0.320068 0.253611 1.0000 1.0000 1.0000
v -0.185944 0.459229 -0.006320 1.0000 1.0000 1.0000
v -0.393694 0.134180 0.246475 1.0000 1.0000 1.0000
v -0.274070 0.019578 0.223762 1.0000 1.0000 1.0000
v -0.241636 -0.064851 0.093697 1.0000 1.0000 1.0000
v -0.502206 0.268423 0.170610 1.0000 1.0000 1.0000
v -0.551670 0.076630 0.102767 1.0000 1.0000 1.0000
v -0.458985 0.363165 0.119065 1.0000 1.0000 1.0000
v -0.329306 0.429983 0.085346 1.0000 1.0000 1.0000
v -0.591415 0.261580 -0.006320 1.0000 1.0000 1.0000
v -0.601821 0.134929 -0.006320 1.0000 1.0000 1.0000
v -0.555523 0.135258 -0.135093 1.0000 1.0000 1.0000
v -0.504037 0.018747 -0.071902 1.0000 1.0000 1.0000
v -0.363103 -0.060827 -0.008120 1.0000 1.0000 1.0000
v -0.469477 0.375990 -0.104665 1.0000 1.0000 1.0000
v -0.502206 0.268423 -0.183250 1.0000 1.0000 1.0000
v -0.301242 0.430706 -0.107505 1.0000 1.0000 1.0000
v -0.393694 0.134179 -0.259115 1.0000 1.0000 1.0000
v 0.218098 0.366171 -0.006522 1.0000 1.0000 1.0000
v 0.222042 0.345819 0.015048 1.0000 1.0000 1.0000
v 0.225201 0.375343 0.024520 1.0000 1.0000 1.0000
v 0.225862 0.393233 -0.007988 1.0000 1.0000 1.0000
v 0.227879 0.370306 -0.033532 1.0000 1.0000 1.0000
v 0.227057 0.351138 -0.020967 1.0000 1.0000 1.0000
v 0.255765 0.358958 0.023279 1.0000 1.0000 1.0000
v 0.259340 0.385102 0.012151 1.0000 1.0000 1.0000
v 0.260009 0.383569 -0.027194 1.0000 1.0000 1.0000
v 0.256109 0.355707 -0.034887 1.0000 1.0000 1.0000
v 0.254723 0.341963 -0.004952 1.0000 1.0000 1.0000
v 0.275398 0.363076 -0.006010 1.0000 1.0000 1.0000
v 0.163638 0.367632 -0.044032 1.0000 1.0000 1.0000
v 0.184069 0.339439 -0.015264 1.0000 1.0000 1.0000
v 0.187210 0.379671 -0.000680 1.0000 1.0000 1.0000
v 0.189573 0.401437 -0.045768 1.0000 1.0000 1.0000
v 0.187727 0.374781 -0.088175 1.0000 1.0000 1.0000
v 0.189596 0.344706 -0.064138 1.0000 1.0000 1.0000
v 0.226749 0.358297 -0.008602 1.0000 1.0000 1.0000
v 0.230796 0.387391 -0.021816 1.0000 1.0000 1.0000
v 0.235021 0.390588 -0.071966 1.0000 1.0000 1.0000
v 0.230699 0.351379 -0.084276 1.0000 1.0000 1.0000
v 0.229517 0.328590 -0.041461 1.0000 1.0000 1.0000
v 0.260955 0.362005 -0.043143 1.0000 1.0000 1.0000
v 0.161996 0.367149 0.021317 1.0000 1.0000 1.0000
v 0.182986 0.350623 0.038729 1.0000 1.0000 1.0000
v 0.182563 0.375439 0.052010 1.0000 1.0000 1.0000
v 0.184260 0.390932 0.020119 1.0000 1.0000 1.0000
v 0.186390 0.369693 -0.002705 1.0000 1.0000 1.0000
v 0.181877 0.346729 0.004827 1.0000 1.0000 1.0000
v 0.212246 0.359062 0.049984 1.0000 1.0000 1.0000
v 0.213534 0.381227 0.037199 1.0000 1.0000 1.0000
v 0.216363 0.383237 0.001608 1.0000 1.0000 1.0000
v 0.214150 0.354587 -0.008709 1.0000 1.0000 1.0000
v 0.210547 0.344263 0.022882 1.0000 1.0000 1.0000
v 0.234717 0.362877 0.021985 1.0000 1.0000 1.0000
v 0.101982 0.368215 -0.003563 1.0000 1.0000 1.0000
v 0.131172 0.340004 0.026025 1.0000 1.0000 1.0000
v 0.136813 0.377460 0.036377 1.0000 1.0000 1.0000
v 0.134748 0.406109 -0.005487 1.0000 1.0000 1.0000
v 0.132673 0.376026 -0.053418 1.0000 1.0000 1.0000
v 0.134104 0.341044 -0.026927 1.0000 1.0000 1.0000
v 0.177379 0.357052 0.037757 1.0000 1.0000 1.0000
v 0.182297 0.391744 0.022513 1.0000 1.0000 1.0000
v 0.186130 0.393857 -0.035103 1.0000 1.0000 1.0000
v 0.182577 0.348474 -0.051583 1.0000 1.0000 1.0000
v 0.179918 0.323918 -0.000627 1.0000 1.0000 1.0000
v 0.215435 0.361617 -0.002524 1.0000 1.0000 1.0000
v 0.108403 0.358611 -0.057504 1.0000 1.0000 1.0000
v 0.115267 0.335844 -0.030035 1.0000 1.0000 1.0000
v 0.118094 0.372995 -0.019470 1.0000 1.0000 1.0000
v 0.120232 0.389746 -0.061376 1.0000 1.0000 1.0000
v 0.118560 0.363074 -0.097806 1.0000 1.0000 1.0000
v 0.115554 0.329726 -0.078349 1.0000 1.0000 1.0000
v 0.155571 0.352289 -0.021330 1.0000 1.0000 1.0000
v 0.153072 0.371520 -0.042678 1.0000 1.0000 1.0000
v 0.161171 0.378332 -0.084233 1.0000 1.0000 1.0000
v 0.158344 0.341182 -0.094798 1.0000 1.0000 1.0000
v 0.154300 0.329566 -0.053553 1.0000 1.0000 1.0000
v 0.184544 0.354411 -0.056520 1.0000 1.0000 1.0000
v 0.248912 0.361371 0.029376 1.0000 1.0000 1.0000
v 0.242349 0.353465 0.019944 1.0000 1.0000 1.0000
v 0.241789 0.365675 0.016559 1.0000 1.0000 1.0000
v 0.239807 0.371204 0.029712 1.0000 1.0000 1.0000
v 0.239310 0.362538 0.041208 1.0000 1.0000 1.0000
v 0.240828 0.351538 0.035078 1.0000 1.0000 1.0000
v 0.229366 0.358472 0.014394 1.0000 1.0000 1.0000
v 0.227849 0.369471 0.020523 1.0000 1.0000 1.0000
v 0.226328 0.367545 0.035658 1.0000 1.0000 1.0000
v 0.226888 0.355335 0.039042 1.0000 1.0000 1.0000
v 0.228870 0.349806 0.025889 1.0000 1.0000 1.0000
v 0.219765 0.359638 0.026225 1.0000 1.0000 1.0000
v 0.306236 0.264719 0.028712 0.1647 0.0980 0.0510
vn -0.3277 -0.9432 -0.0545
vn -0.1269 -0.9867 -0.1017
vn -0.3350 -0.6598 -0.6727
vn -0.3067 -0.8162 -0.4896
vn 0.0716 0.0932 -0.9931
vn 0.4781 -0.6941 -0.5383
vn 0.9148 -0.1942 -0.3541
vn 0.9148 -0.1943 -0.3540
vn 0.5274 -0.8494 0.0214
vn 0.5273 -0.8494 0.0215
vn 0.5274 -0.8494 0.0215
vn 0.8887 -0.1149 0.4438
vn 0.8887 -0.1148 0.4438
vn 0.2790 -0.8035 0.5258
vn 0.0883 -0.3526 0.9316
vn -0.3189 -0.7322 0.6018
vn -0.6804 -0.7067 0.1940
vn -0.1834 -0.6893 -0.7008
vn -0.2096 -0.2179 -0.9532
vn 0.5720 -0.4992 -0.6508
vn 0.5720 -0.4992 -0.6509
vn 0.5720 -0.4993 -0.6508
vn 0.9252 -0.3678 0.0934
vn 0.9251 -0.3681 0.0932
vn 0.9251 -0.3682 0.0929
vn 0.3459 -0.9170 0.1987
vn 0.3375 -0.5439 0.7683
vn 0.9251 -0.3680 0.0933
vn 0.9251 -0.3682 0.0932
vn 0.9251 -0.3682 0.0931
vn 0.9148 -0.1944 -0.3540
vn 0.9148 -0.1946 -0.3540
vn 0.9148 -0.1945 -0.3540
vn 0.9148 -0.1945 -0.3541
vn 0.9148 -0.1942 -0.3540
vn 0.9149 -0.1942 -0.3540
vn 0.9148 -0.1948 -0.3539
vn 0.9250 -0.3682 0.0933
vn 0.9251 -0.3680 0.0934
vn 0.9251 -0.3681 0.0933
vn 0.9148 -0.1947 -0.3540
vn 0.9251 -0.3681 0.0929
vn 0.9252 -0.3679 0.0934
vn 0.9251 -0.3681 0.0931
vn 0.9149 -0.1943 -0.3540
vn 0.9148 -0.1944 -0.3541
vn 0.9148 -0.1944 -0.3539
vn 0.9148 -0.1943 -0.3541
vn 0.9251 -0.3681 0.0930
vn 0.9251 -0.3681 0.0934
vn -0.3320 -0.9433 0.0065
vn -0.1435 -0.9867 -0.0767
vn -0.4528 -0.6597 -0.5998
vn -0.3914 -0.8162 -0.4250
vn -0.1119 0.0932 -0.9893
vn 0.3711 -0.6941 -0.6169
vn 0.8344 -0.1943 -0.5158
vn 0.8343 -0.1943 -0.5159
vn 0.5224 -0.8493 -0.0757
vn 0.5224 -0.8493 -0.0758
vn 0.9551 -0.1149 0.2732
vn 0.3708 -0.8035 0.4657
vn 0.2578 -0.3527 0.8995
vn -0.2031 -0.7322 0.6501
vn -0.6331 -0.7068 0.3157
vn -0.3089 -0.6894 -0.6552
vn -0.3810 -0.2180 -0.8985
vn 0.4428 -0.4993 -0.7447
vn 0.4428 -0.4992 -0.7448
vn 0.9265 -0.3680 -0.0783
vn 0.9266 -0.3680 -0.0781
vn 0.9265 -0.3682 -0.0782
vn 0.3765 -0.9170 0.1319
vn 0.4728 -0.5439 0.6933
vn 0.9264 -0.3684 -0.0783
vn 0.9264 -0.3683 -0.0783
vn 0.9265 -0.3681 -0.0781
vn 0.9265 -0.3681 -0.0784
vn 0.9265 -0.3681 -0.0782
vn 0.8343 -0.1945 -0.5158
vn 0.8343 -0.1942 -0.5160
vn 0.8344 -0.1944 -0.5158
vn 0.8343 -0.1944 -0.5158
vn 0.8343 -0.1946 -0.5158
vn 0.9265 -0.3680 -0.0782
vn 0.9265 -0.3680 -0.0781
vn 0.8343 -0.1942 -0.5159
vn 0.8343 -0.1944 -0.5159
vn 0.9264 -0.3682 -0.0784
vn 0.9264 -0.3682 -0.0782
vn 0.9264 -0.3683 -0.0782
vn 0.8343 -0.1945 -0.5159
vn 0.8342 -0.1946 -0.5160
vn 0.9265 -0.3681 -0.0779
vn 0.1127 -0.3700 -0.9221
vn 0.2164 0.5475 -0.8083
vn 0.1168 0.9667 -0.2277
vn 0.3992 0.2476 -0.8828
vn 0.6733 -0.5264 -0.5192
vn 0.4258 0.8238 -0.3741
vn 0.9600 0.0308 -0.2783
vn 0.9557 0.2931 -0.0286
vn 0.9954 -0.0561 0.0780
vn 0.1883 0.9762 0.1076
vn 0.4131 -0.8826 0.2242
vn 0.6912 -0.1294 0.7109
vn 0.5892 0.6267 0.5100
vn 0.0485 -0.9860 0.1597
vn 0.1220 -0.4607 0.8791
vn 0.2218 0.5637 0.7957
vn -0.0766 -0.2702 0.9598
vn 0.0347 -0.8343 0.5502
vn -0.1205 0.0715 0.9901
vn 0.0093 0.9484 0.3171
vn -0.2222 0.7473 0.6262
vn -0.3313 0.5630 0.7571
vn -0.4228 -0.5794 0.6968
vn -0.3887 -0.8141 0.4315
vn -0.6496 -0.0991 0.7538
vn -0.0802 -0.9952 0.0563
vn -0.7583 0.5425 0.3614
vn -0.8908 0.0731 0.4484
vn -0.8908 0.0730 0.4484
vn -0.8907 0.0732 0.4486
vn -0.7634 -0.6458 0.0058
vn -0.2169 0.9758 -0.0279
vn -0.7768 0.5081 -0.3720
vn -0.9383 0.0771 -0.3371
vn -0.4602 -0.6085 -0.6465
vn -0.3253 -0.8450 -0.4245
vn -0.6079 -0.0433 -0.7928
vn -0.0987 -0.9821 -0.1603
vn -0.2494 0.7340 -0.6317
vn -0.3285 0.6203 -0.7123
vn -0.1171 0.0684 -0.9908
vn 0.0259 0.9541 -0.2985
vn -0.0363 -0.2306 -0.9724
vn 0.1009 -0.7522 -0.6511
vn 0.3366 -0.2344 -0.9120
vn 0.2386 0.5437 -0.8046
vn 0.2070 -0.8837 -0.4198
vn 0.1801 -0.9339 -0.3090
vn 0.6483 -0.6176 -0.4453
vn 0.3640 0.8911 -0.2711
vn 0.9888 0.1261 -0.0797
vn 0.2298 -0.9727 0.0334
vn 0.7204 -0.6735 -0.1653
vn 0.3338 0.9344 0.1246
vn 0.3998 -0.8131 0.4231
vn 0.5559 0.6538 0.5133
vn 0.6993 -0.1406 0.7009
vn 0.3565 -0.1149 0.9272
vn 0.1364 -0.7347 0.6646
vn 0.1848 0.2942 0.9377
vn -0.0337 0.8270 0.5612
vn -0.3205 0.2563 0.9119
vn -0.3564 -0.8319 0.4253
vn -0.8917 0.0719 0.4468
vn -0.4420 0.8941 0.0720
vn -0.5320 -0.8364 0.1321
vn -0.6501 0.7563 0.0738
vn -0.3097 0.9499 -0.0415
vn -0.8066 -0.5144 -0.2913
vn -0.8789 0.1944 -0.4356
vn -0.5009 -0.5731 -0.6486
vn -0.2958 -0.8590 -0.4179
vn -0.3205 0.2563 -0.9119
vn -0.0538 0.8069 -0.5883
vn -0.9764 0.0362 0.2127
vn -0.9116 -0.3689 -0.1814
vn -0.9505 0.2800 0.1348
vn -0.9223 0.2486 -0.2959
vn -0.9118 -0.1971 -0.3603
vn -0.2188 -0.9604 -0.1723
vn -0.1179 -0.2919 0.9492
vn -0.0762 0.8742 0.4795
vn -0.1687 0.7269 -0.6657
vn -0.3039 -0.5132 -0.8027
vn 0.2061 -0.8417 0.4991
vn 0.2271 0.3549 0.9069
vn 0.2548 0.9664 -0.0333
vn 0.0852 0.2541 -0.9634
vn -0.0581 -0.9062 -0.4188
vn 0.6750 -0.6429 0.3621
vn 0.8153 0.1288 0.5646
vn 0.8043 0.5942 -0.0095
vn 0.8262 0.0395 -0.5620
vn 0.6788 -0.6788 -0.2802
vn -0.8592 -0.1137 0.4988
vn -0.7185 -0.6782 -0.1543
vn -0.7623 0.5976 0.2485
vn -0.7589 0.5657 -0.3225
vn -0.7591 -0.4345 -0.4846
vn -0.3035 -0.9431 -0.1360
vn 0.0040 -0.3411 0.9400
vn 0.0525 0.8982 0.4364
vn -0.1018 0.8442 -0.5262
vn -0.2656 -0.6119 -0.7450
vn 0.2125 -0.7159 0.6651
vn 0.3597 0.3439 0.8674
vn 0.2771 0.9571 0.0844
vn 0.2309 0.2682 -0.9353
vn -0.0876 -0.8783 -0.4699
vn 0.6199 -0.5554 0.5543
vn 0.6807 0.2223 0.6980
vn 0.6824 0.7236 0.1036
vn 0.7883 0.1035 -0.6066
vn 0.6791 -0.6555 -0.3302
vn -0.7423 -0.3260 0.5854
vn -0.6681 -0.7364 0.1065
vn -0.6925 0.6627 0.2851
vn -0.6154 0.5475 -0.5670
vn -0.6931 -0.0981 -0.7142
vn -0.1585 -0.9803 0.1178
vn -0.1977 -0.4652 0.8629
vn 0.0419 0.8978 0.4384
vn -0.2208 0.7036 -0.6754
vn -0.3264 -0.2361 -0.9153
vn 0.0705 -0.8773 0.4747
vn 0.3112 0.4612 0.8309
vn 0.2736 0.9588 0.0759
vn -0.0183 0.3400 -0.9403
vn 0.1060 -0.9487 -0.2979
vn 0.5769 -0.7316 0.3633
vn 0.7186 0.3157 0.6197
vn 0.6900 0.7175 0.0954
vn 0.8032 0.1459 -0.5776
vn 0.5950 -0.7816 -0.1876
vn -0.7434 -0.0718 0.6650
vn -0.6665 -0.7437 -0.0515
vn -0.6669 0.5992 0.4429
vn -0.7180 0.6032 -0.3475
vn -0.7394 -0.4254 -0.5218
vn -0.3313 -0.9428 -0.0369
vn -0.1541 -0.2416 0.9581
vn -0.0852 0.8203 0.5656
vn -0.1016 0.8446 -0.5257
vn -0.2949 -0.5845 -0.7559
vn 0.1103 -0.7487 0.6536
vn 0.1592 0.3781 0.9120
vn 0.2602 0.9641 0.0527
vn 0.2102 0.3191 -0.9241
vn -0.0845 -0.8959 -0.4361
vn 0.6300 -0.5668 0.5309
vn 0.7005 0.2015 0.6846
vn 0.7004 0.7100 0.0726
vn 0.8032 0.1468 -0.5773
vn 0.6906 -0.6650 -0.2844
vn -0.9694 0.0040 0.2455
vn -0.9656 -0.2585 0.0270
vn -0.9262 0.3641 0.0983
vn -0.9244 0.3267 -0.1968
vn -0.9664 -0.0588 -0.2501
vn -0.0839 -0.9886 0.1247
vn -0.0989 -0.2652 0.9591
vn 0.2818 0.8859 0.3685
vn -0.1020 0.8049 -0.5846
vn -0.1997 -0.4803 -0.8541
vn 0.2072 -0.8033 0.5583
vn 0.4153 0.6995 0.5815
vn 0.3743 0.9007 0.2206
vn 0.2104 0.2526 -0.9444
vn 0.1582 -0.9544 -0.2533
vn 0.5933 -0.6687 0.4482
vn 0.5730 0.6411 0.5105
vn 0.5426 0.8057 0.2378
vn 0.8032 0.1056 -0.5863
vn 0.6177 -0.7707 -0.1565
vn 0.8546 -0.1019 -0.5092
vn 0.7715 -0.6362 -0.0034
vn 0.7195 0.6723 -0.1742
vn 0.6545 0.5899 0.4730
vn 0.7406 -0.2463 0.6253
vn 0.2186 -0.9705 -0.1016
vn 0.3010 -0.2419 -0.9224
vn 0.1468 0.9196 -0.3644
vn 0.0496 0.7965 0.6026
vn 0.1204 -0.4705 0.8741
vn -0.0496 -0.7965 -0.6026
vn -0.1204 0.4705 -0.8741
vn -0.2186 0.9705 0.1015
vn -0.3010 0.2419 0.9224
vn -0.1469 -0.9196 0.3644
vn -0.6544 -0.5899 -0.4730
vn -0.7405 0.2463 -0.6252
vn -0.7715 0.6363 0.0034
vn -0.8546 0.1019 0.5092
vn -0.7195 -0.6723 0.1742
vn 0.5274 -0.8494 0.0213
vn 0.5274 -0.8493 0.0214
vn 0.5720 -0.4991 -0.6509
vn 0.4280 0.7840 -0.4496
vn 0.3905 0.7920 -0.4693
vn 0.4094 0.7882 -0.4595
vn -0.1821 0.7423 -0.6449
vn -0.1694 0.7116 -0.6819
vn -0.1756 0.7266 -0.6643
vn 0.0154 -0.3460 0.9381
vn 0.0576 -0.3609 0.9308
vn 0.0366 -0.3536 0.9347
vn 0.5224 -0.8494 -0.0757
vn 0.4431 -0.4988 -0.7449
vn -0.6608 -0.7118 -0.2380
vn -0.4453 -0.8313 -0.3326
vn -0.5615 -0.7764 -0.2862
vn 0.9265 -0.3681 -0.0780
vn -0.6855 0.1110 -0.7196
vn -0.6856 0.1237 -0.7174
vn -0.6854 0.1174 -0.7186
vn 0.4572 -0.5706 -0.6822
vn 0.4840 -0.5993 -0.6376
vn 0.4705 -0.5849 -0.6607
vn -0.3796 -0.9136 0.1455
vn -0.3992 -0.9064 0.1379
vn -0.3895 -0.9101 0.1417
vn 0.9509 0.2591 0.1690
vn 0.9530 0.2547 0.1638
vn 0.9537 0.2533 0.1620
vn -0.1168 -0.4066 0.9061
vn 0.1406 -0.2681 -0.9531
vn 0.7445 -0.6464 -0.1671
vn -0.3197 0.8864 0.3347
vn 0.0457 0.9808 0.1896
vn -0.2653 -0.6265 0.7329
vn -0.6871 0.6046 -0.4029
vn 0.0771 -0.3481 0.9343
vn -0.5413 0.7246 0.4266
vn -0.9670 0.1697 0.1902
vn 0.2497 0.8023 0.5421
vn 0.9502 0.2607 0.1708
vn 0.9814 -0.1864 -0.0457
vn -0.0824 -0.0415 -0.9957
vn 0.0025 -0.0443 -0.9990
vn 0.1634 0.1359 -0.9771
vn 0.2263 0.9411 0.2510
vn 0.1513 -0.9861 -0.0681
vn 0.6765 -0.7302 -0.0958
vn -0.6825 0.6165 0.3926
vn 0.3207 0.9378 -0.1328
vn 0.8439 -0.2064 0.4952
vn -0.7538 0.5475 -0.3632
vn 0.1144 0.8644 0.4897
vn 0.9423 0.2888 0.1692
vn -0.2986 -0.8888 -0.3475
vn 0.1902 -0.8287 -0.5264
vn -0.9569 -0.2902 0.0094
vn -0.7809 -0.5746 -0.2449
vn 0.9509 0.2591 -0.1690
vn 0.9537 0.2533 -0.1620
vn 0.9530 0.2547 -0.1638
vn -0.1168 -0.4066 -0.9061
vn 0.1406 -0.2681 0.9531
vn 0.7445 -0.6464 0.1671
vn -0.3197 0.8864 -0.3347
vn 0.0457 0.9808 -0.1896
vn -0.2653 -0.6265 -0.7329
vn -0.6871 0.6046 0.4029
vn 0.0772 -0.3481 -0.9343
vn -0.5413 0.7246 -0.4266
vn -0.9670 0.1697 -0.1902
vn 0.2497 0.8023 -0.5421
vn 0.9502 0.2607 -0.1709
vn 0.9814 -0.1864 0.0457
vn -0.0824 -0.0415 0.9957
vn 0.0025 -0.0443 0.9990
vn 0.1634 0.1359 0.9771
vn 0.2263 0.9411 -0.2510
vn 0.1513 -0.9861 0.0681
vn 0.6764 -0.7303 0.0958
vn -0.6825 0.6165 -0.3926
vn 0.3207 0.9378 0.1328
vn 0.8439 -0.2064 -0.4952
vn -0.7538 0.5475 0.3632
vn 0.1144 0.8644 -0.4897
vn 0.9423 0.2888 -0.1692
vn -0.2986 -0.8888 0.3475
vn 0.1902 -0.8287 0.5264
vn -0.9569 -0.2902 -0.0094
vn -0.7809 -0.5746 0.2449
vn 0.3151 -0.9435 -0.1024
vn 0.0938 -0.6240 -0.7758
vn 0.1947 -0.9435 0.2680
vn 0.0097 -0.0594 -0.9982
vn 0.9914 -0.1168 -0.0595
vn 0.1347 -0.0634 0.9889
vn 0.4054 0.0066 -0.9141
vn 0.9503 -0.0402 0.3088
vn 0.3733 0.8107 -0.4510
vn 0.2168 0.9212 0.3230
vn -0.1029 -0.0358 -0.9941
vn -0.2250 0.8799 0.4185
vn -0.3303 -0.7896 -0.5172
vn -0.1528 -0.0003 0.9883
vn 0.0487 0.8232 0.5656
vn -0.0916 0.9720 0.2162
vn 0.2145 0.9280 0.3045
vn 0.4641 0.8778 -0.1186
vn -0.1459 0.9875 -0.0597
vn 0.0543 0.8726 -0.4855
vn -0.0262 0.6759 -0.7366
vn 0.0186 0.3080 0.9512
vn 0.6919 0.4934 0.5270
vn 0.9136 0.2779 0.2968
vn 0.8696 0.4934 -0.0197
vn 0.4411 0.6677 -0.5997
vn 0.3613 0.4534 -0.8148
vn 0.0850 0.3639 -0.9275
vn 0.4051 -0.0369 0.9135
vn 0.4053 -0.0225 0.9139
vn 0.7670 -0.1168 0.6309
vn 0.9279 0.2191 -0.3015
vn 0.9489 -0.0674 -0.3083
vn 0.8370 -0.1168 -0.5346
vn 0.0470 -0.5037 0.8626
vn 0.3568 -0.7947 0.4911
vn 0.6284 -0.6617 0.4090
vn 0.7488 -0.6617 0.0385
vn 0.5773 -0.7947 -0.1876
vn 0.5831 -0.6617 -0.4713
vn -0.8263 -0.4419 -0.3492
vn -0.3276 0.9433 -0.0546
vn -0.1270 0.9867 -0.1017
vn -0.3350 0.6596 -0.6728
vn -0.3067 0.8162 -0.4896
vn 0.0716 -0.0932 -0.9931
vn 0.4781 0.6941 -0.5383
vn 0.9148 0.1944 -0.3540
vn 0.5274 0.8494 0.0214
vn 0.8887 0.1149 0.4438
vn 0.2790 0.8035 0.5259
vn 0.0884 0.3527 0.9316
vn -0.3189 0.7322 0.6018
vn -0.0000 -1.0000 -0.0000
vn -0.6802 0.7069 0.1939
vn -0.6802 0.7070 0.1938
vn -0.1834 0.6894 -0.7008
vn -0.2096 0.2179 -0.9532
vn 0.5720 0.4992 -0.6508
vn 0.9251 0.3681 0.0932
vn 0.3459 0.9170 0.1987
vn 0.3375 0.5439 0.7683
vn -0.0000 1.0000 -0.0000
vn -0.3323 0.9432 0.0066
vn -0.1435 0.9867 -0.0767
vn -0.4528 0.6596 -0.5999
vn -0.3913 0.8162 -0.4250
vn -0.1119 -0.0932 -0.9893
vn 0.3711 0.6941 -0.6168
vn 0.8343 0.1944 -0.5159
vn 0.5223 0.8494 -0.0757
vn 0.9551 0.1149 0.2732
vn 0.3708 0.8035 0.4658
vn 0.2578 0.3527 0.8995
vn -0.2030 0.7322 0.6501
vn -0.6330 0.7070 0.3154
vn -0.6332 0.7068 0.3156
vn -0.3089 0.6894 -0.6553
vn -0.3810 0.2179 -0.8985
vn 0.4428 0.4992 -0.7448
vn 0.9265 0.3681 -0.0781
vn 0.3765 0.9170 0.1319
vn 0.4727 0.5440 0.6933
vn 0.9374 -0.0361 -0.3464
vn 0.7479 0.0978 0.6565
vn -0.1898 0.1131 0.9753
vn -0.8204 0.0904 0.5645
vn -0.8241 -0.0667 -0.5625
vn 0.0010 -0.0691 -0.9976
vn -0.0001 -1.0000 0.0003
vn -0.0038 -1.0000 0.0060
vn 0.3392 0.1622 0.9266
vn 0.1665 -0.2561 -0.9522
vn 0.9734 0.2167 -0.0739
vn 0.1207 -0.0523 -0.9913
vn 0.8350 0.1036 0.5404
vn -0.8863 0.0942 0.4534
vn -0.0001 1.0000 -0.0000
vn 0.0785 0.8542 0.5141
vn -0.0000 -1.0000 0.0002
vn 0.1844 -0.2446 0.9519
vn 0.6273 0.6174 -0.4746
vn -0.0049 -1.0000 0.0077
vn 0.5387 0.7377 -0.4069
vn 0.9202 -0.0024 -0.3914
vn 0.8162 0.0517 0.5754
vn -0.1622 0.1132 0.9802
vn -0.8229 0.0468 0.5662
vn -0.8259 -0.0112 -0.5637
vn -0.0108 -0.0612 -0.9981
vn 0.4068 0.3340 0.8502
vn 0.1666 -0.2539 -0.9528
vn 0.9928 0.0936 -0.0744
vn 0.7762 0.0107 -0.6304
vn 0.1563 0.1433 0.9773
vn -0.9066 0.0171 -0.4216
vn -0.0416 0.9991 -0.0057
vn 0.1860 -0.2089 0.9601
vn 0.5895 0.5702 -0.5723
vn -0.0741 0.9908 0.1132
vn 0.8550 0.0542 -0.5158
vn 0.8750 0.0094 0.4840
vn -0.0948 -0.0772 0.9925
vn -0.9998 -0.0130 0.0167
vn 0.0002 1.0000 0.0001
vn -0.2302 0.0922 -0.9688
vn 0.2340 0.8194 0.5233
vn -0.0000 -1.0000 0.0001
vn 0.5250 0.2859 0.8016
vn 0.1312 -0.4067 -0.9041
vn 0.3543 0.1323 -0.9257
vn 0.8395 -0.0053 0.5434
vn -0.7411 -0.0120 0.6713
vn 0.0002 1.0000 0.0002
vn -0.8312 0.0768 -0.5507
vn 0.1306 -0.3826 0.9146
vn 0.9891 -0.1404 0.0447
vn 0.5208 0.2906 -0.8027
vn 0.2339 0.8188 -0.5243
vn 1.0000 0.0026 -0.0058
vn -0.1400 -0.0982 0.9853
vn -0.9970 0.0050 -0.0771
vn -0.2073 0.1072 -0.9724
vn -0.1552 -0.0810 0.9845
vn 0.7412 0.5370 0.4028
vn 0.1084 -0.2141 -0.9708
vn 0.7218 0.1117 -0.6831
vn 0.4764 0.8792 -0.0029
vn 0.2458 0.1507 -0.9575
vn 0.9990 0.0124 -0.0438
vn 0.2667 -0.0549 0.9622
vn -0.8335 -0.0195 0.5522
vn -0.0000 1.0000 0.0001
vn -0.8305 0.0869 -0.5502
vn 0.9311 -0.2743 -0.2405
vn -1.0000 -0.0000 -0.0000
vn -0.9858 -0.1405 -0.0920
vn -0.4330 -0.8997 0.0544
vn -0.8509 -0.1107 0.5136
vn -0.9941 -0.0878 0.0638
vn 0.5811 0.2534 0.7734
vn 0.5627 -0.3497 0.7491
vn 0.6003 -0.0352 0.7990
vn -0.5034 -0.3802 0.7759
vn -0.4169 -0.6789 0.6045
vn -0.4603 -0.5624 0.6869
vn 0.9147 -0.1947 -0.3540
vn 0.8343 -0.1944 -0.5160
vn 0.3280 -0.9293 -0.1701
vn 0.1161 -0.9877 0.1045
vn 0.2692 -0.2204 0.9375
vn 0.2371 -0.2670 0.9341
vn 0.8821 -0.0302 -0.4700
vn 0.3109 0.9067 -0.2851
vn 0.2357 -0.2700 -0.9336
vn -0.6843 -0.1933 0.7031
vn 0.8817 0.4331 -0.1870
vn -0.1644 0.9855 0.0416
vn -0.2467 0.0752 -0.9662
vn -0.5830 0.8124 0.0126
vn -0.6856 0.0019 -0.7280
vn -0.7359 -0.6331 -0.2403
vn 0.2767 0.7132 -0.6440
vn 0.2461 0.8519 -0.4623
vn 0.7971 -0.3095 -0.5185
vn 0.8769 -0.3416 -0.3381
vn 0.3079 -0.9178 0.2506
vn 0.5235 0.8459 0.1025
vn 0.2072 0.8005 0.5623
vn -0.0685 -0.2252 0.9719
vn -0.4938 0.8394 0.2272
vn -0.3092 -0.9449 -0.1079
vn -0.7330 -0.0184 -0.6800
vn -0.4519 0.8799 -0.1470
vn -0.0637 -0.5966 -0.8000
vn 0.9817 0.0689 0.1774
vn 0.2618 0.0819 0.9616
vn -0.1527 -0.5441 0.8250
vn -0.8067 0.3611 0.4678
vn -0.6128 -0.7235 0.3179
vn -0.9976 -0.0631 0.0270
vn -0.6544 0.2452 -0.7153
vn -0.5653 0.7937 0.2248
vn 0.4285 0.8693 0.2462
vn 0.9968 0.0764 0.0216
vn 0.5653 -0.7937 -0.2248
vn 0.9028 0.4012 -0.1548
vn 0.9647 -0.2050 -0.1654
vn -0.4285 -0.8693 -0.2462
vn -0.9968 -0.0764 -0.0216
vn -0.0000 0.3599 -0.9330
vn -0.0000 0.3598 -0.9330
vn 0.9815 0.1356 -0.1352
vn 0.9028 -0.4012 -0.1548
vn 0.9647 0.2050 -0.1653
vn 0.8238 -0.5289 0.2039
vn 0.9332 0.2751 0.2311
vn 0.0790 0.9301 -0.3587
vn 0.1779 -0.5625 -0.8075
vn 0.0790 -0.9301 -0.3587
vn 0.1780 0.5625 -0.8074
vn 0.8238 0.5289 0.2040
vn 0.9332 -0.2751 0.2312
vn -0.0000 -0.3598 0.9330
vn -0.5576 0.8208 0.1237
vn -0.9658 -0.1605 0.2034
vn -0.9658 -0.1606 0.2034
vn 0.5485 -0.8345 -0.0514
vn 0.3993 0.9157 -0.0445
vn -0.3881 -0.9152 0.1088
vn 0.3271 0.7138 0.6193
vn -0.6112 0.7455 0.2659
vn -0.4221 -0.7582 -0.4969
vn -0.6178 0.7038 0.3506
vn 0.9457 -0.0439 0.3221
vn -0.9738 -0.0552 -0.2208
vn 0.5657 -0.7900 -0.2362
vn -0.1362 -0.3598 0.9230
vn -0.1361 -0.3598 0.9231
vn -0.1361 -0.3598 0.9230
vn -0.9885 -0.0953 -0.1176
vn -0.9885 -0.0954 -0.1176
vn 0.5947 -0.7890 -0.1544
vn 0.3690 0.8191 0.4392
vn 0.3691 0.8191 0.4392
vn -0.3855 -0.8626 -0.3277
vn -0.3854 -0.8626 -0.3277
vn 0.9720 0.0519 0.2290
vn 0.9720 0.0519 0.2291
vn 0.9815 0.1355 -0.1352
vn 0.5485 -0.8346 -0.0514
vn 0.3993 0.9158 -0.0444
vn 0.4070 0.6812 0.6086
vn -0.3557 -0.7852 -0.5069
vn -0.5648 0.7352 0.3748
vn 0.9398 0.0057 0.3418
vn -0.9797 -0.0060 -0.2004
vn 0.6052 -0.7655 -0.2184
vn -0.1361 -0.3597 0.9231
vn -0.1365 -0.3597 0.9230
vn -0.1362 -0.3599 0.9230
s 1
usemtl white
f 157//1 139//1 159//1
f 139//2 146//2 159//2
f 140//3 142//3 144//3
f 140//4 144//4 146//4
f 144//5 143//5 145//5
f 144//6 147//6 146//6
f 145//7 167//7 166//8
f 146//9 177//10 164//11
f 150//12 163//13 168//12
f 149//14 151//14 159//14
f 151//15 150//15 152//15
f 151//16 153//16 159//16
f 155//17 157//17 159//17
f 139//18 140//18 146//18
f 143//19 144//19 142//19
f 144//20 166//21 161//22
f 186//23 180//24 206//25
f 149//26 159//26 146//26
f 150//27 151//27 149//27
f 192//24 209//28 205//29
f 186//23 192//24 184//24
f 149//24 164//30 184//24
f 208//31 206//32 180//33
f 147//33 198//8 169//34
f 202//35 171//36 148//37
f 172//38 148//39 168//40
f 205//29 172//38 168//40
f 182//24 173//24 168//40
f 167//7 162//36 194//41
f 167//7 175//33 166//8
f 166//8 175//33 189//31
f 181//28 169//42 191//39
f 177//40 147//43 178//44
f 164//39 181//28 179//39
f 189//31 190//8 161//45
f 196//46 169//34 198//8
f 196//46 198//8 197//47
f 197//47 198//8 170//31
f 196//46 208//31 191//48
f 170//31 161//45 190//8
f 187//24 172//38 205//29
f 207//28 165//49 187//24
f 185//50 207//28 209//28
f 228//51 210//51 230//51
f 210//52 217//52 230//52
f 211//53 213//53 215//53
f 211//54 215//54 217//54
f 215//55 214//55 216//55
f 215//56 218//56 217//56
f 216//57 238//58 237//57
f 217//59 248//60 235//59
f 221//61 234//61 239//61
f 220//62 222//62 230//62
f 222//63 221//63 223//63
f 222//64 224//64 230//64
f 226//65 228//65 230//65
f 210//66 211//66 217//66
f 214//67 215//67 213//67
f 215//68 237//69 241//68
f 257//70 251//71 277//72
f 220//73 230//73 217//73
f 221//74 222//74 220//74
f 263//75 280//76 276//72
f 255//77 256//78 244//77
f 220//77 235//79 255//77
f 279//80 277//80 251//81
f 218//82 269//83 240//84
f 273//58 242//58 219//58
f 243//85 219//86 239//86
f 276//72 243//85 239//86
f 253//77 244//77 239//86
f 238//58 233//87 265//88
f 238//58 246//88 237//57
f 237//57 246//88 260//58
f 252//79 240//89 262//90
f 248//90 218//91 249//77
f 235//79 252//79 254//79
f 260//58 261//88 232//57
f 267//92 240//84 269//83
f 267//92 269//83 268//58
f 268//58 269//83 241//88
f 267//92 279//80 262//93
f 241//88 232//57 261//88
f 258//78 243//85 276//72
f 278//77 236//94 258//78
f 278//77 280//76 263//75
f 353//95 358//95 352//95
f 351//96 356//96 353//96
f 356//97 372//97 355//97
f 353//98 359//98 357//98
f 357//99 360//99 358//99
f 356//100 355//100 362//100
f 357//101 359//101 360//101
f 359//102 362//102 363//102
f 360//103 363//103 364//103
f 372//104 368//104 355//104
f 361//105 364//105 370//105
f 364//106 363//106 367//106
f 362//107 366//107 363//107
f 365//108 370//108 375//108
f 367//109 369//109 374//109
f 368//110 371//110 366//110
f 369//111 373//111 374//111
f 374//112 375//112 370//112
f 369//113 371//113 373//113
f 368//114 372//114 379//114
f 371//115 379//115 378//115
f 371//116 378//116 376//116
f 373//117 377//117 374//117
f 374//118 384//118 375//118
f 373//119 376//119 377//119
f 365//120 375//120 384//120
f 376//121 378//121 380//121
f 377//122 380//123 381//124
f 381//125 383//125 377//125
f 372//126 387//126 379//126
f 385//127 386//127 380//127
f 380//128 382//128 381//128
f 383//129 388//129 352//129
f 384//130 352//130 354//130
f 386//131 388//131 382//131
f 384//132 354//132 365//132
f 387//133 351//133 385//133
f 385//134 351//134 386//134
f 351//135 353//135 388//135
f 372//136 356//136 387//136
f 388//137 353//137 352//137
f 352//138 358//138 354//138
f 353//139 357//139 358//139
f 353//140 356//140 359//140
f 354//141 358//141 361//141
f 354//142 361//142 365//142
f 358//143 360//143 361//143
f 359//144 356//144 362//144
f 360//145 359//145 363//145
f 365//146 361//146 370//146
f 361//147 360//147 364//147
f 355//148 368//148 362//148
f 370//149 364//149 367//149
f 362//150 368//150 366//150
f 367//151 363//151 366//151
f 367//152 366//152 369//152
f 370//153 367//153 374//153
f 366//154 371//154 369//154
f 371//155 368//155 379//155
f 373//156 371//156 376//156
f 374//157 377//157 384//157
f 377//122 376//158 380//123
f 378//159 379//159 385//159
f 377//160 383//160 384//160
f 380//161 378//161 385//161
f 379//162 387//162 385//162
f 383//163 381//163 382//163
f 380//164 386//164 382//164
f 383//165 382//165 388//165
f 384//166 383//166 352//166
f 386//167 351//167 388//167
f 387//168 356//168 351//168
f 389//169 390//169 391//169
f 390//170 389//170 394//170
f 389//171 391//171 392//171
f 389//172 392//172 393//172
f 389//173 393//173 394//173
f 390//174 394//174 399//174
f 391//175 390//175 395//175
f 392//176 391//176 396//176
f 393//177 392//177 397//177
f 394//178 393//178 398//178
f 390//179 399//179 395//179
f 391//180 395//180 396//180
f 392//181 396//181 397//181
f 393//182 397//182 398//182
f 394//183 398//183 399//183
f 395//184 399//184 400//184
f 396//185 395//185 400//185
f 397//186 396//186 400//186
f 398//187 397//187 400//187
f 399//188 398//188 400//188
f 401//189 402//189 403//189
f 402//190 401//190 406//190
f 401//191 403//191 404//191
f 401//192 404//192 405//192
f 401//193 405//193 406//193
f 402//194 406//194 411//194
f 403//195 402//195 407//195
f 404//196 403//196 408//196
f 405//197 404//197 409//197
f 406//198 405//198 410//198
f 402//199 411//199 407//199
f 403//200 407//200 408//200
f 404//201 408//201 409//201
f 405//202 409//202 410//202
f 406//203 410//203 411//203
f 407//204 411//204 412//204
f 408//205 407//205 412//205
f 409//206 408//206 412//206
f 410//207 409//207 412//207
f 411//208 410//208 412//208
f 413//209 414//209 415//209
f 414//210 413//210 418//210
f 413//211 415//211 416//211
f 413//212 416//212 417//212
f 413//213 417//213 418//213
f 414//214 418//214 423//214
f 415//215 414//215 419//215
f 416//216 415//216 420//216
f 417//217 416//217 421//217
f 418//218 417//218 422//218
f 414//219 423//219 419//219
f 415//220 419//220 420//220
f 416//221 420//221 421//221
f 417//222 421//222 422//222
f 418//223 422//223 423//223
f 419//224 423//224 424//224
f 420//225 419//225 424//225
f 421//226 420//226 424//226
f 422//227 421//227 424//227
f 423//228 422//228 424//228
f 425//229 426//229 427//229
f 426//230 425//230 430//230
f 425//231 427//231 428//231
f 425//232 428//232 429//232
f 425//233 429//233 430//233
f 426//234 430//234 435//234
f 427//235 426//235 431//235
f 428//236 427//236 432//236
f 429//237 428//237 433//237
f 430//238 429//238 434//238
f 426//239 435//239 431//239
f 427//240 431//240 432//240
f 428//241 432//241 433//241
f 429//242 433//242 434//242
f 430//243 434//243 435//243
f 431//244 435//244 436//244
f 432//245 431//245 436//245
f 433//246 432//246 436//246
f 434//247 433//247 436//247
f 435//248 434//248 436//248
f 437//249 438//249 439//249
f 438//250 437//250 442//250
f 437//251 439//251 440//251
f 437//252 440//252 441//252
f 437//253 441//253 442//253
f 438//254 442//254 447//254
f 439//255 438//255 443//255
f 440//256 439//256 444//256
f 441//257 440//257 445//257
f 442//258 441//258 446//258
f 438//259 447//259 443//259
f 439//260 443//260 444//260
f 440//261 444//261 445//261
f 441//262 445//262 446//262
f 442//263 446//263 447//263
f 443//264 447//264 448//264
f 444//265 443//265 448//265
f 445//266 444//266 448//266
f 446//267 445//267 448//267
f 447//268 446//268 448//268
f 449//269 450//269 451//269
f 450//270 449//270 454//270
f 449//271 451//271 452//271
f 449//272 452//272 453//272
f 449//273 453//273 454//273
f 450//274 454//274 459//274
f 451//275 450//275 455//275
f 452//276 451//276 456//276
f 453//277 452//277 457//277
f 454//278 453//278 458//278
f 450//279 459//279 455//279
f 451//280 455//280 456//280
f 452//281 456//281 457//281
f 453//282 457//282 458//282
f 454//283 458//283 459//283
f 455//284 459//284 460//284
f 456//285 455//285 460//285
f 457//286 456//286 460//286
f 458//287 457//287 460//287
f 459//288 458//288 460//288
f 177//10 146//9 147//289
f 146//9 164//11 149//290
f 163//13 150//12 149//12
f 150//12 168//12 148//12
f 144//20 170//22 147//20
f 144//20 161//22 170//22
f 166//21 144//20 145//291
f 180//24 179//39 181//28
f 186//23 206//25 165//49
f 180//24 186//23 179//39
f 192//24 205//29 173//24
f 207//28 186//23 165//49
f 186//292 183//293 179//294
f 183//30 184//24 164//30
f 184//24 182//24 163//49
f 185//50 186//23 207//28
f 186//23 184//24 183//30
f 184//24 173//24 182//24
f 192//24 186//23 185//50
f 184//24 192//24 173//24
f 149//24 184//24 163//49
f 208//31 180//33 191//48
f 198//8 147//33 170//31
f 147//295 169//296 178//297
f 202//35 148//37 172//31
f 205//29 168//40 173//24
f 182//24 168//40 163//49
f 167//7 194//41 175//33
f 166//8 189//31 161//45
f 169//42 181//28 178//44
f 181//28 191//39 180//24
f 177//40 178//44 181//28
f 181//28 164//39 177//40
f 164//298 179//299 183//300
f 196//46 191//48 169//34
f 170//31 190//8 197//47
f 187//24 205//29 209//28
f 207//28 187//24 209//28
f 185//50 209//28 192//24
f 248//60 217//59 218//60
f 217//59 235//59 220//301
f 234//61 221//61 220//61
f 221//61 239//61 219//61
f 215//68 241//68 218//302
f 241//303 237//304 232//305
f 237//69 215//68 216//69
f 251//71 250//306 252//79
f 257//70 277//72 236//94
f 251//71 257//70 250//306
f 263//75 276//72 244//77
f 278//77 257//70 236//94
f 278//77 250//306 257//70
f 256//78 250//306 278//77
f 254//79 255//77 235//79
f 256//78 254//79 250//306
f 255//77 253//77 234//77
f 256//78 255//77 254//79
f 244//307 256//308 263//309
f 255//77 244//77 253//77
f 220//77 255//77 234//77
f 279//80 251//81 262//93
f 269//83 218//82 241//88
f 218//310 240//311 249//312
f 273//58 219//58 243//88
f 276//72 239//86 244//77
f 253//77 239//86 234//77
f 238//58 265//88 246//88
f 237//57 260//58 232//57
f 240//89 252//79 249//77
f 252//79 262//90 251//71
f 248//90 249//77 252//79
f 252//79 235//79 248//90
f 254//79 252//79 250//306
f 267//92 262//93 240//84
f 241//88 261//88 268//58
f 258//78 276//72 280//76
f 278//77 258//78 280//76
f 278//313 263//314 256//315
usemtl darkbrown
f 72//316 71//317 61//318
f 59//319 60//319 74//319
f 65//320 68//320 66//320
f 70//321 68//321 72//321
f 73//322 58//322 62//322
f 73//323 61//323 71//323
f 59//324 74//324 69//324
f 73//325 74//325 60//325
f 61//326 60//326 59//326
f 58//327 63//327 62//327
f 67//328 74//328 62//328
f 58//329 71//329 64//329
f 71//317 72//316 65//330
f 72//331 68//331 65//331
f 66//332 67//332 63//332
f 65//333 66//333 63//333
f 65//334 63//334 64//334
f 73//335 71//335 58//335
f 70//336 59//336 69//336
f 70//337 72//337 59//337
f 73//338 62//338 74//338
f 61//339 73//339 60//339
f 59//340 72//340 61//340
f 63//341 67//341 62//341
f 58//342 64//342 63//342
f 71//343 65//343 64//343
f 69//344 66//344 70//344
f 70//345 66//345 68//345
f 74//346 67//346 69//346
f 66//347 69//347 67//347
f 89//348 78//349 88//350
f 76//351 91//351 77//351
f 82//352 83//352 85//352
f 87//353 89//353 85//353
f 90//354 79//354 75//354
f 90//355 88//355 78//355
f 76//356 86//356 91//356
f 90//357 77//357 91//357
f 78//358 76//358 77//358
f 75//359 79//359 80//359
f 84//360 79//360 91//360
f 75//361 81//361 88//361
f 88//350 82//362 89//348
f 89//363 82//363 85//363
f 83//364 80//364 84//364
f 82//365 80//365 83//365
f 82//366 81//366 80//366
f 90//367 75//367 88//367
f 87//368 86//368 76//368
f 87//369 76//369 89//369
f 90//370 91//370 79//370
f 78//371 77//371 90//371
f 76//372 78//372 89//372
f 80//373 79//373 84//373
f 75//374 80//374 81//374
f 88//375 81//375 82//375
f 86//376 87//376 83//376
f 87//377 85//377 83//377
f 91//378 86//378 84//378
f 83//379 84//379 86//379
f 92//380 101//380 100//380
f 93//381 101//381 103//381
f 92//382 100//382 104//382
f 93//383 103//383 106//383
f 94//384 102//384 107//384
f 95//385 105//385 109//385
f 93//386 106//386 108//386
f 94//387 107//387 110//387
f 96//388 111//388 114//388
f 97//389 112//389 116//389
f 106//390 103//390 98//390
f 116//391 99//391 113//391
f 101//392 92//392 103//392
f 109//393 113//393 95//393
f 113//394 97//394 116//394
f 116//395 114//395 99//395
f 116//396 112//396 114//396
f 112//397 96//397 114//397
f 114//398 115//398 99//398
f 114//399 111//399 115//399
f 111//400 98//400 115//400
f 109//401 97//401 113//401
f 110//402 112//402 97//402
f 110//403 107//403 112//403
f 107//404 96//404 112//404
f 108//405 111//405 96//405
f 108//406 106//406 111//406
f 106//407 98//407 111//407
f 109//408 110//408 97//408
f 109//409 105//409 110//409
f 105//410 94//410 110//410
f 107//411 108//411 96//411
f 107//412 102//412 108//412
f 102//413 93//413 108//413
f 104//414 105//414 95//414
f 104//415 100//415 105//415
f 100//416 94//416 105//416
f 100//417 102//417 94//417
f 100//418 101//418 102//418
f 101//419 93//419 102//419
f 98//420 95//420 99//420
f 135//421 137//421 117//421
f 117//422 137//422 124//422
f 118//423 122//423 120//423
f 118//424 124//424 122//424
f 122//425 123//425 121//425
f 122//426 124//426 125//426
f 123//427 125//427 126//427
f 125//428 124//428 127//428
f 127//429 128//429 126//429
f 127//430 137//430 129//430
f 129//431 130//431 128//431
f 129//432 137//432 131//432
f 126//433 130//433 138//433
f 133//434 137//434 135//435
f 117//436 124//436 118//436
f 121//437 120//437 122//437
f 122//438 125//438 123//438
f 125//439 127//439 126//439
f 127//440 124//440 137//440
f 128//441 127//441 129//441
f 138//433 119//433 121//433
f 123//433 126//433 121//433
f 130//433 132//433 134//433
f 134//433 136//433 138//433
f 126//433 128//433 130//433
f 130//433 134//433 138//433
f 138//433 121//433 126//433
f 148//442 160//442 152//442
f 160//442 143//442 141//442
f 167//442 143//442 171//442
f 152//442 156//442 154//442
f 156//442 160//442 158//442
f 148//442 152//442 150//442
f 152//442 160//442 156//442
f 160//442 148//442 143//442
f 219//442 231//442 223//442
f 231//442 214//442 212//442
f 238//442 214//442 242//442
f 223//442 227//442 225//442
f 227//442 231//442 229//442
f 219//442 223//442 221//442
f 223//442 231//442 227//442
f 231//442 219//442 214//442
f 299//443 301//443 281//443
f 281//444 301//444 288//444
f 282//445 286//445 284//445
f 282//446 288//446 286//446
f 286//447 287//447 285//447
f 286//448 288//448 289//448
f 287//449 289//449 290//449
f 289//450 288//450 291//450
f 291//451 292//451 290//451
f 291//452 301//452 293//452
f 293//453 294//453 292//453
f 293//454 301//454 295//454
f 290//433 294//433 302//433
f 297//455 301//456 299//456
f 281//457 288//457 282//457
f 285//458 284//458 286//458
f 286//459 289//459 287//459
f 289//460 291//460 290//460
f 291//461 288//461 301//461
f 292//462 291//462 293//462
f 302//433 283//433 285//433
f 287//433 290//433 285//433
f 294//433 296//433 298//433
f 298//433 300//433 302//433
f 290//433 292//433 294//433
f 294//433 298//433 302//433
f 302//433 285//433 290//433
f 305//463 304//463 303//463
f 304//464 306//464 312//464
f 306//465 308//465 312//465
f 306//466 309//466 308//466
f 309//467 307//467 310//467
f 307//468 303//468 310//468
f 314//469 309//433 310//470
f 312//471 314//471 311//471
f 303//472 313//472 310//472
f 311//473 314//473 313//473
f 303//474 307//474 305//474
f 304//475 305//475 306//475
f 306//476 307//476 309//476
f 306//477 305//477 307//477
f 304//478 312//478 311//478
f 314//469 308//479 309//433
f 312//480 308//480 314//480
f 303//481 311//481 313//481
f 314//469 310//470 313//482
f 304//483 311//483 303//483
f 315//484 318//484 317//484
f 318//485 324//485 317//485
f 319//486 320//486 324//486
f 319//487 321//487 320//487
f 318//477 316//477 319//477
f 321//488 316//488 322//488
f 316//489 315//489 322//489
f 326//469 321//433 322//470
f 324//490 326//490 323//490
f 315//491 325//491 322//491
f 323//492 326//492 325//492
f 315//493 316//493 318//493
f 318//494 319//494 324//494
f 321//495 319//495 316//495
f 317//496 324//496 323//496
f 326//469 320//479 321//433
f 324//497 320//497 326//497
f 315//498 323//498 325//498
f 326//469 322//470 325//482
f 317//499 323//499 315//499
f 330//500 329//500 327//500
f 329//501 331//501 336//501
f 331//502 333//502 336//502
f 332//503 334//503 333//503
f 330//504 328//504 332//504
f 328//505 327//505 334//505
f 329//506 336//506 335//506
f 338//433 333//507 334//433
f 336//508 338//508 335//508
f 327//509 337//509 334//509
f 327//510 328//510 330//510
f 329//511 330//511 331//511
f 331//512 332//512 333//512
f 331//513 330//504 332//504
f 334//514 332//514 328//514
f 336//515 333//515 338//515
f 335//516 338//516 337//516
f 327//517 335//517 337//517
f 338//433 334//433 337//433
f 329//518 335//518 327//518
f 339//519 342//519 348//519
f 343//520 345//520 348//520
f 344//521 346//521 345//521
f 341//442 340//442 344//442
f 340//522 339//522 346//522
f 349//433 345//433 346//433
f 345//523 350//523 348//523
f 348//524 350//524 347//524
f 339//525 349//525 346//525
f 347//526 349//526 339//526
f 348//527 347//527 339//527
f 339//528 340//528 341//528
f 339//529 341//529 342//529
f 342//530 343//530 348//530
f 343//531 344//531 345//531
f 344//442 343//532 342//442
f 342//442 341//442 344//442
f 346//533 344//533 340//533
f 349//433 350//433 345//433
f 347//534 350//534 349//534
f 95//535 92//535 104//535
f 92//536 98//536 103//536
f 98//537 99//537 115//537
f 99//538 95//538 113//538
f 95//539 98//539 92//539
f 143//442 167//442 145//442
f 167//540 171//541 162//542
f 171//442 143//442 148//442
f 214//442 238//442 216//442
f 238//543 242//544 233//545
f 242//442 214//442 219//442
usemtl black
f 193//36 203//35 174//33
f 162//36 193//36 194//41
f 190//8 176//31 197//47
f 176//31 196//46 197//47
f 174//33 188//31 199//31
f 174//33 199//31 200//33
f 175//33 201//33 189//31
f 171//36 202//35 203//35
f 174//33 204//33 188//31
f 461//46 172//31 187//546
f 204//33 187//31 188//31
f 188//31 187//31 165//8
f 202//35 172//31 461//46
f 202//35 204//33 203//35
f 203//35 204//33 174//33
f 201//33 176//31 190//8
f 201//33 190//8 189//31
f 199//31 176//31 201//33
f 199//31 201//33 200//33
f 200//33 201//33 175//33
f 188//31 165//8 195//31
f 188//31 195//31 199//31
f 199//31 195//31 176//31
f 195//31 165//8 206//32
f 196//46 176//31 195//31
f 193//36 174//33 200//33
f 193//36 200//33 194//41
f 194//41 200//33 175//33
f 193//36 162//36 171//36
f 264//58 274//58 245//547
f 233//87 264//58 265//88
f 261//88 247//58 268//58
f 247//58 267//92 268//58
f 245//547 259//88 270//58
f 245//547 270//58 271//88
f 246//88 272//58 260//58
f 242//58 273//58 274//58
f 245//547 275//92 259//88
f 275//92 243//88 258//92
f 275//92 258//92 259//88
f 259//88 258//92 236//57
f 273//58 243//88 275//92
f 273//58 275//92 274//58
f 274//58 275//92 245//547
f 272//58 247//58 261//88
f 272//58 261//88 260//58
f 270//58 247//58 272//58
f 270//58 272//58 271//88
f 271//88 272//58 246//88
f 259//88 236//57 266//58
f 259//88 266//58 270//58
f 270//58 266//58 247//58
f 266//58 236//57 277//80
f 267//92 247//58 266//58
f 264//58 245//547 271//88
f 264//58 271//88 265//88
f 265//88 271//88 246//88
f 264//58 233//87 242//58
f 195//31 206//32 208//31
f 196//46 195//31 208//31
f 193//36 171//36 203//35
f 266//58 277//80 279//80
f 267//92 266//58 279//80
f 264//58 242//58 274//58
usemtl green
f 1//548 3//548 2//548
f 1//549 9//549 3//549
f 2//550 3//550 4//550
f 3//551 5//551 4//551
f 3//552 9//552 6//552
f 5//553 6//553 7//553
f 9//554 1//554 6//554
f 8//555 2//555 4//555
f 3//556 6//556 5//556
f 4//557 5//557 7//557
f 7//558 6//558 1//558
f 4//559 7//559 8//559
f 7//560 1//560 8//560
f 1//561 2//561 8//561
f 10//562 12//562 11//562
f 10//563 21//563 12//563
f 11//564 12//564 13//564
f 12//565 15//565 13//565
f 13//566 15//566 16//566
f 21//567 14//567 12//567
f 14//568 21//568 17//568
f 15//569 17//569 18//569
f 21//570 19//570 17//570
f 16//571 20//571 13//571
f 19//572 10//572 11//572
f 19//573 21//573 10//573
f 20//574 11//574 13//574
f 15//575 12//575 14//575
f 14//576 17//576 15//576
f 16//577 15//577 18//577
f 18//578 17//578 19//578
f 16//579 18//579 20//579
f 18//580 19//580 20//580
f 19//581 11//581 20//581
usemtl brown
f 24//582 22//582 23//582
f 24//583 25//583 27//583
f 26//584 27//584 29//584
f 28//585 29//585 31//585
s 0
f 27//586 25//442 34//587
s 1
f 32//588 30//588 31//588
f 22//589 32//589 33//589
f 32//590 24//591 28//590
f 43//592 37//592 36//592
s 0
f 33//593 31//442 38//594
f 25//595 23//442 35//596
f 29//597 27//442 36//598
f 23//599 33//442 39//600
f 31//601 29//442 37//602
s 1
f 42//603 41//603 44//603
f 34//604 35//604 41//604
f 35//605 39//605 45//606
f 44//607 38//607 37//607
f 42//608 36//608 34//608
f 39//609 38//609 44//609
f 25//610 46//610 48//610
f 46//611 47//611 53//611
f 33//612 31//612 50//612
f 23//613 47//613 46//613
f 29//614 27//614 48//614
f 33//615 51//615 47//615
f 31//616 29//616 49//616
f 54//617 53//618 56//619
f 51//620 57//621 53//621
f 49//622 55//622 56//622
f 48//623 46//623 52//624
f 51//625 50//625 56//626
f 48//627 54//628 55//628
f 24//582 23//582 25//582
f 24//583 27//583 26//583
f 26//584 29//584 28//584
f 28//585 31//585 30//585
s 0
f 27//594 34//593 36//442
s 1
f 32//588 31//588 33//588
f 22//589 33//589 23//589
f 24//591 32//590 22//591
f 32//590 28//590 30//590
f 28//590 24//591 26//591
f 43//629 36//629 42//629
s 0
f 33//587 38//586 39//442
f 25//602 35//601 34//442
f 29//600 36//599 37//442
f 23//598 39//597 35//442
f 31//596 37//595 38//442
s 1
f 41//603 42//603 40//603
f 42//603 44//603 43//603
f 44//603 41//603 45//603
f 34//604 41//604 40//604
f 35//605 45//606 41//606
f 44//630 37//630 43//630
f 42//631 34//631 40//631
f 39//609 44//609 45//609
f 25//632 48//632 27//632
f 46//611 53//611 52//611
f 33//633 50//633 51//633
f 23//634 46//634 25//634
f 29//635 48//635 49//635
f 33//636 47//636 23//636
f 31//637 49//637 50//637
f 53//618 54//617 52//638
f 54//617 56//619 55//639
f 56//619 53//618 57//640
f 51//620 53//621 47//620
f 49//622 56//622 50//622
f 48//623 52//624 54//624
f 51//625 56//626 57//626
f 48//627 55//628 49//627
