# Blender 5.1.0
# www.blender.org
mtllib terrain.mtl
o land
v 8.071235 1.259186 -7.574322 0.8902 1.0000 0.2392
v -7.928229 1.259186 -7.705498 0.8902 1.0000 0.2392
v 7.940051 0.069889 8.425142 0.8902 1.0000 0.2392
v -8.059404 0.069889 8.293966 0.8902 1.0000 0.2392
v 0.071499 3.030273 -7.639906 0.8902 1.0000 0.2392
v -7.993821 0.143489 0.294230 0.8902 1.0000 0.2392
v -0.059677 0.072905 8.359550 0.8902 1.0000 0.2392
v 8.038444 0.333057 -3.574450 0.8902 1.0000 0.2392
v -3.928365 1.625818 -7.672706 0.8902 1.0000 0.2392
v 3.940188 0.072905 8.392350 0.8902 1.0000 0.2392
v 7.972852 0.072905 4.425278 0.8902 1.0000 0.2392
v 4.071372 2.378769 -7.607114 0.8902 1.0000 0.2392
v -7.961021 0.728673 -3.705635 0.8902 1.0000 0.2392
v -4.059541 0.069889 8.326757 0.8902 1.0000 0.2392
v -0.124757 1.644409 4.426262 0.8902 1.0000 0.2392
v -0.109245 3.110209 -4.311946 0.8902 1.0000 0.2392
v -4.333252 1.137897 -4.056330 0.8902 1.0000 0.2392
v 4.394156 1.857353 -3.133186 0.8902 1.0000 0.2392
v 4.375290 1.338809 4.712774 0.8902 1.0000 0.2392
v -3.625349 0.775641 4.124014 0.8902 1.0000 0.2392
v 8.054835 0.919113 -5.574386 0.8902 1.0000 0.2392
v -5.928293 1.259186 -7.689097 0.8902 1.0000 0.2392
v -8.043013 0.069889 6.294030 0.8902 1.0000 0.2392
v 5.940123 0.069889 8.408750 0.8902 1.0000 0.2392
v 7.989244 0.072905 2.425342 0.8902 1.0000 0.2392
v 2.071434 3.030273 -7.623514 0.8902 1.0000 0.2392
v -7.977421 0.755465 -1.705698 0.8902 1.0000 0.2392
v -2.059613 0.069889 8.343158 0.8902 1.0000 0.2392
v 0.259762 0.513241 6.448654 0.8902 1.0000 0.2392
v -1.928429 2.378769 -7.656306 0.8902 1.0000 0.2392
v 1.940259 0.072905 8.375950 0.8902 1.0000 0.2392
v 7.956452 0.069889 6.425214 0.8902 1.0000 0.2392
v 6.071299 1.625818 -7.590714 0.8902 1.0000 0.2392
v -7.944629 1.064377 -5.705562 0.8902 1.0000 0.2392
v -6.059476 0.069889 8.310358 0.8902 1.0000 0.2392
v 0.122387 3.344969 -5.583874 0.8902 1.0000 0.2392
v -4.097957 1.593601 -1.807050 0.8902 1.0000 0.2392
v -3.938125 1.472065 -5.556306 0.8902 1.0000 0.2392
v -2.135316 2.144410 -4.368650 0.8902 1.0000 0.2392
v -6.013149 0.726505 -3.710098 0.8902 1.0000 0.2392
v 4.065804 2.394802 -5.597122 0.8902 1.0000 0.2392
v 5.950827 0.583185 -3.677931 0.8902 1.0000 0.2392
v 2.154475 2.873722 -3.342938 0.8902 1.0000 0.2392
v 3.909396 0.507689 6.013862 0.8902 1.0000 0.2392
v 3.958666 1.306937 1.927206 0.8902 1.0000 0.2392
v 5.689547 1.016649 4.272590 0.8902 1.0000 0.2392
v 2.314827 1.716473 4.524534 0.8902 1.0000 0.2392
v -3.716853 0.290009 5.973550 0.8902 1.0000 0.2392
v -2.259884 1.039553 4.614422 0.8902 1.0000 0.2392
v -6.026677 0.267673 4.310494 0.8902 1.0000 0.2392
v -1.534437 0.059385 6.525030 0.8902 1.0000 0.2392
v 2.058123 1.790281 2.462558 0.8902 1.0000 0.2392
v 5.805140 0.708649 2.353910 0.8902 1.0000 0.2392
v 5.443091 0.642329 5.823550 0.8902 1.0000 0.2392
v 2.095562 3.423841 -5.679322 0.8902 1.0000 0.2392
v 6.034235 1.279017 -5.595410 0.8902 1.0000 0.2392
v -5.494189 1.430362 -5.900979 0.8902 1.0000 0.2392
v -1.869133 2.651177 -5.696858 0.8902 1.0000 0.2392
v -1.977621 1.550273 -1.656506 0.8902 1.0000 0.2392
v -6.276221 0.868753 -1.848426 0.8902 1.0000 0.2392
v 1.960066 0.941681 6.356966 0.8902 1.0000 0.2392
v -5.746949 0.163513 5.948606 0.8902 1.0000 0.2392
v -2.968541 1.327225 -1.477730 0.8902 1.0000 0.2392
v -3.985085 0.931105 -0.753994 0.8902 1.0000 0.2392
v -3.733765 0.585137 2.836782 0.8902 1.0000 0.2392
v -2.940588 0.840513 2.335734 0.8902 1.0000 0.2392
v -8.022348 0.150769 3.773614 0.8902 1.0000 0.2392
v -7.089797 0.241425 3.961558 0.8902 1.0000 0.2392
v -5.313877 0.381369 3.655462 0.8902 1.0000 0.2392
v -4.375253 0.433889 3.363254 0.8902 1.0000 0.2392
v -5.996189 0.501777 0.591494 0.8902 1.0000 0.2392
v -7.086997 0.340617 0.972350 0.8902 1.0000 0.2392
v -1.946053 1.027921 2.249382 0.8902 1.0000 0.2392
v -0.911437 1.220697 1.687342 0.8902 1.0000 0.2392
v 3.539971 1.001473 0.850846 0.8902 1.0000 0.2392
v 1.999947 1.145913 1.095910 0.8902 1.0000 0.2392
v 0.312027 1.418393 1.811326 0.8902 1.0000 0.2392
v 8.000052 -0.071959 1.107278 0.8902 1.0000 0.2392
v 5.515803 0.360841 0.521214 0.8902 1.0000 0.2392
v 6.662980 0.333281 -2.221362 0.8902 1.0000 0.2392
v 8.024468 0.333057 -1.870682 0.8902 1.0000 0.2392
v 4.222363 1.312089 -2.291562 0.8902 1.0000 0.2392
v 5.379603 0.498873 -2.711170 0.8902 1.0000 0.2392
v 0.028683 2.467978 -2.417794 0.8902 1.0000 0.2392
v -4.796117 0.606993 0.138686 0.8902 1.0000 0.2392
v 2.865771 1.979041 -2.453522 0.8902 1.0000 0.2392
v 2.162915 2.555354 -2.663474 0.8902 1.0000 0.2392
v 8.071235 -1.575767 -7.574322 0.8902 1.0000 0.2392
v -7.928229 -1.575767 -7.705498 0.8902 1.0000 0.2392
v 7.940051 -1.575767 8.425142 0.8902 1.0000 0.2392
v -8.059404 -1.575767 8.293966 0.8902 1.0000 0.2392
v 0.071499 -1.575767 -7.639906 0.8902 1.0000 0.2392
v -8.091692 -1.575767 0.360806 0.8902 1.0000 0.2392
v -0.059677 -1.575767 8.359550 0.8902 1.0000 0.2392
v 8.038444 -1.575767 -3.574450 0.8902 1.0000 0.2392
v -3.928365 -1.575767 -7.672706 0.8902 1.0000 0.2392
v 3.940188 -1.575767 8.392350 0.8902 1.0000 0.2392
v 7.972852 -1.575767 4.425278 0.8902 1.0000 0.2392
v 4.071372 -1.575767 -7.607114 0.8902 1.0000 0.2392
v -7.961021 -1.575767 -3.705635 0.8902 1.0000 0.2392
v -4.059541 -1.575767 8.326757 0.8902 1.0000 0.2392
v 8.054835 -1.575767 -5.574386 0.8902 1.0000 0.2392
v -5.928293 -1.575767 -7.689097 0.8902 1.0000 0.2392
v -8.043013 -1.575767 6.294030 0.8902 1.0000 0.2392
v 5.940123 -1.575767 8.408750 0.8902 1.0000 0.2392
v 7.989244 -1.575767 2.425342 0.8902 1.0000 0.2392
v 2.071434 -1.575767 -7.623514 0.8902 1.0000 0.2392
v -7.977421 -1.575767 -1.705698 0.8902 1.0000 0.2392
v -2.059613 -1.575767 8.343158 0.8902 1.0000 0.2392
v -1.928429 -1.575767 -7.656306 0.8902 1.0000 0.2392
v 1.940259 -1.575767 8.375950 0.8902 1.0000 0.2392
v 7.956452 -1.575767 6.425214 0.8902 1.0000 0.2392
v 6.071299 -1.575767 -7.590714 0.8902 1.0000 0.2392
v -7.944629 -1.575767 -5.705562 0.8902 1.0000 0.2392
v -6.059476 -1.575767 8.310358 0.8902 1.0000 0.2392
v -6.124548 -1.575767 4.377070 0.8902 1.0000 0.2392
v -2.125573 -1.575767 -2.328410 0.8902 1.0000 0.2392
v -3.340637 -1.575767 -1.861226 0.8902 1.0000 0.2392
v -3.629508 -1.575767 -0.279930 0.8902 1.0000 0.2392
v -3.881717 -1.575767 2.164878 0.8902 1.0000 0.2392
v -3.312685 -1.575767 1.952238 0.8902 1.0000 0.2392
v -8.027685 -1.575767 4.244718 0.8902 1.0000 0.2392
v -6.687485 -1.575767 4.281846 0.8902 1.0000 0.2392
v -4.912485 -1.575767 3.452574 0.8902 1.0000 0.2392
v -4.072205 -1.575767 3.452294 0.8902 1.0000 0.2392
v -5.593876 -1.575767 0.911774 0.8902 1.0000 0.2392
v -6.685605 -1.575767 0.769470 0.8902 1.0000 0.2392
v -1.878773 -1.575767 2.305478 0.8902 1.0000 0.2392
v -1.031837 -1.575767 1.553198 0.8902 1.0000 0.2392
v 3.546603 -1.575767 0.967310 0.8902 1.0000 0.2392
v 1.825852 -1.575767 0.383702 0.8902 1.0000 0.2392
v 0.259963 -1.575767 1.790462 0.8902 1.0000 0.2392
v 8.010884 -1.575767 1.117334 0.8902 1.0000 0.2392
v 5.428124 -1.575767 0.434134 0.8902 1.0000 0.2392
v 6.966027 -1.575767 -2.132330 0.8902 1.0000 0.2392
v 8.091748 -1.575767 -1.814586 0.8902 1.0000 0.2392
v 4.101971 -1.575767 -2.425706 0.8902 1.0000 0.2392
v 5.386235 -1.575767 -2.594706 0.8902 1.0000 0.2392
v -0.145404 -1.575767 -3.130010 0.8902 1.0000 0.2392
v -4.848173 -1.575767 0.117822 0.8902 1.0000 0.2392
v 2.876595 -1.575767 -2.443458 0.8902 1.0000 0.2392
v 2.075236 -1.575767 -2.750562 0.8902 1.0000 0.2392
v -8.059404 -2.054646 8.293966 0.8902 1.0000 0.2392
v -8.043013 -2.054646 6.294030 0.8902 1.0000 0.2392
v -6.059476 -2.054646 8.310358 0.8902 1.0000 0.2392
v -0.059677 -2.054646 8.359550 0.8902 1.0000 0.2392
v 1.940259 -2.054646 8.375950 0.8902 1.0000 0.2392
v -8.091692 -2.054646 0.360806 0.8902 1.0000 0.2392
v -7.977421 -2.054646 -1.705698 0.8902 1.0000 0.2392
v -7.961021 -2.054646 -3.705635 0.8902 1.0000 0.2392
v -7.944629 -2.054646 -5.705562 0.8902 1.0000 0.2392
v 3.940188 -2.054646 8.392350 0.8902 1.0000 0.2392
v 5.940123 -2.054646 8.408750 0.8902 1.0000 0.2392
v -4.059541 -2.054646 8.326757 0.8902 1.0000 0.2392
v -2.059613 -2.054646 8.343158 0.8902 1.0000 0.2392
v -3.881717 -2.054646 2.164878 0.8902 1.0000 0.2392
v -3.312685 -2.054646 1.952238 0.8902 1.0000 0.2392
v -4.912485 -2.054646 3.452574 0.8902 1.0000 0.2392
v -4.072205 -2.054646 3.452294 0.8902 1.0000 0.2392
v -5.593876 -2.054646 0.911774 0.8902 1.0000 0.2392
v -6.685605 -2.054646 0.769470 0.8902 1.0000 0.2392
v 4.101971 -2.054646 -2.425706 0.8902 1.0000 0.2392
v 5.386235 -2.054646 -2.594706 0.8902 1.0000 0.2392
v 7.972852 -2.054646 4.425278 0.8902 1.0000 0.2392
v 7.989244 -2.054646 2.425342 0.8902 1.0000 0.2392
v 8.010884 -2.054646 1.117334 0.8902 1.0000 0.2392
v 7.940051 -2.054646 8.425142 0.8902 1.0000 0.2392
v 7.956452 -2.054646 6.425214 0.8902 1.0000 0.2392
v 4.071372 -2.054646 -7.607114 0.8902 1.0000 0.2392
v 2.071434 -2.054646 -7.623514 0.8902 1.0000 0.2392
v 0.071499 -2.054646 -7.639906 0.8902 1.0000 0.2392
v 8.038444 -2.054646 -3.574450 0.8902 1.0000 0.2392
v 8.054835 -2.054646 -5.574386 0.8902 1.0000 0.2392
v 8.071235 -2.054646 -7.574322 0.8902 1.0000 0.2392
v 6.071299 -2.054646 -7.590714 0.8902 1.0000 0.2392
v 8.091748 -2.054646 -1.814586 0.8902 1.0000 0.2392
v -3.928365 -2.054646 -7.672706 0.8902 1.0000 0.2392
v -5.928293 -2.054646 -7.689097 0.8902 1.0000 0.2392
v -7.928229 -2.054646 -7.705498 0.8902 1.0000 0.2392
v -1.928429 -2.054646 -7.656306 0.8902 1.0000 0.2392
v -3.629508 -2.054646 -0.279930 0.8902 1.0000 0.2392
v -4.848173 -2.054646 0.117822 0.8902 1.0000 0.2392
v 2.876595 -2.054646 -2.443458 0.8902 1.0000 0.2392
v 2.075236 -2.054646 -2.750562 0.8902 1.0000 0.2392
v 1.825852 -2.054646 0.383702 0.8902 1.0000 0.2392
v 0.259963 -2.054646 1.790462 0.8902 1.0000 0.2392
v -3.340637 -2.054646 -1.861226 0.8902 1.0000 0.2392
v -2.125573 -2.054646 -2.328410 0.8902 1.0000 0.2392
v -1.878773 -2.054646 2.305478 0.8902 1.0000 0.2392
v -6.687485 -2.054646 4.281846 0.8902 1.0000 0.2392
v -6.124548 -2.054646 4.377070 0.8902 1.0000 0.2392
v -8.027685 -2.054646 4.244718 0.8902 1.0000 0.2392
v -1.031837 -2.054646 1.553198 0.8902 1.0000 0.2392
v 3.546603 -2.054646 0.967310 0.8902 1.0000 0.2392
v 5.428124 -2.054646 0.434134 0.8902 1.0000 0.2392
v 6.966027 -2.054646 -2.132330 0.8902 1.0000 0.2392
v -0.145404 -2.054646 -3.130010 0.8902 1.0000 0.2392
v -6.338132 -0.225663 7.407582 0.8902 1.0000 0.2392
v -7.455605 0.445385 6.689462 0.8902 1.0000 0.2392
v -8.051212 0.069889 7.293998 0.8902 1.0000 0.2392
v -7.059445 0.069889 8.302166 0.8902 1.0000 0.2392
v 1.997939 0.398457 7.258494 0.8902 1.0000 0.2392
v 0.866187 1.048089 6.610926 0.8902 1.0000 0.2392
v -0.095821 0.505985 7.280022 0.8902 1.0000 0.2392
v 0.940291 0.072905 8.367750 0.8902 1.0000 0.2392
v -6.572876 0.743737 -1.765314 0.8902 1.0000 0.2392
v -7.985621 0.449481 -0.705730 0.8902 1.0000 0.2392
v -2.938964 1.200449 -1.946194 0.8902 1.0000 0.2392
v -3.980253 1.103401 -1.213290 0.8902 1.0000 0.2392
v -2.401669 2.692634 -4.199634 0.8902 1.0000 0.2392
v -2.951341 1.995777 -5.674410 0.8902 1.0000 0.2392
v -4.196117 0.906369 -4.980466 0.8902 1.0000 0.2392
v -3.469621 1.832833 -3.304034 0.8902 1.0000 0.2392
v -6.433373 1.234529 -5.006691 0.8902 1.0000 0.2392
v -7.198541 1.370497 -5.761458 0.8902 1.0000 0.2392
v -7.952821 0.896521 -4.705602 0.8902 1.0000 0.2392
v -6.569693 0.780433 -3.470114 0.8902 1.0000 0.2392
v 6.337946 1.253681 -4.762138 0.8902 1.0000 0.2392
v 5.049963 1.978281 -5.591370 0.8902 1.0000 0.2392
v 3.539788 2.356617 -4.655458 0.8902 1.0000 0.2392
v 4.766644 1.385833 -4.010722 0.8902 1.0000 0.2392
v 2.136635 3.625673 -4.461138 0.8902 1.0000 0.2392
v 0.751956 2.956537 -5.989066 0.8902 1.0000 0.2392
v -0.425350 3.109489 -4.699514 0.8902 1.0000 0.2392
v 1.019244 2.972281 -2.938802 0.8902 1.0000 0.2392
v 5.993939 0.787025 6.919566 0.8902 1.0000 0.2392
v 4.934786 0.729961 6.297238 0.8902 1.0000 0.2392
v 4.317442 0.627105 7.531158 0.8902 1.0000 0.2392
v 4.940156 0.071393 8.400550 0.8902 1.0000 0.2392
v 6.004788 0.922593 3.420918 0.8902 1.0000 0.2392
v 5.111355 0.921865 2.166470 0.8902 1.0000 0.2392
v 3.997868 1.367345 2.993934 0.8902 1.0000 0.2392
v 4.502211 1.746393 4.633590 0.8902 1.0000 0.2392
v 1.561434 1.496113 3.377550 0.8902 1.0000 0.2392
v 0.716700 1.136953 4.399854 0.8902 1.0000 0.2392
v -2.581469 0.518153 7.092582 0.8902 1.0000 0.2392
v -2.707605 0.315289 6.606806 0.8902 1.0000 0.2392
v -4.089461 0.171745 7.467686 0.8902 1.0000 0.2392
v -3.059573 0.069889 8.334958 0.8902 1.0000 0.2392
v -3.281637 0.567593 4.733046 0.8902 1.0000 0.2392
v -3.337181 0.712825 2.586254 0.8902 1.0000 0.2392
v -5.147877 0.594345 4.585342 0.8902 1.0000 0.2392
v -4.844565 0.407625 3.509358 0.8902 1.0000 0.2392
v -6.541597 0.421201 0.781918 0.8902 1.0000 0.2392
v -1.391301 1.245785 4.794582 0.8902 1.0000 0.2392
v -1.354669 0.505929 6.654526 0.8902 1.0000 0.2392
v -1.059645 0.071393 8.351358 0.8902 1.0000 0.2392
v -0.043357 0.774001 4.935158 0.8902 1.0000 0.2392
v -2.302853 0.775921 5.483854 0.8902 1.0000 0.2392
v -4.104637 0.378777 5.043006 0.8902 1.0000 0.2392
v 3.233147 1.775890 2.304118 0.8902 1.0000 0.2392
v 3.012795 1.573257 4.965342 0.8902 1.0000 0.2392
v 2.392188 1.368129 1.760550 0.8902 1.0000 0.2392
v 4.800988 0.905481 -2.501362 0.8902 1.0000 0.2392
v 7.981051 0.072905 3.425310 0.8902 1.0000 0.2392
v 7.226986 1.077305 2.702094 0.8902 1.0000 0.2392
v 7.304675 0.659025 4.148326 0.8902 1.0000 0.2392
v 7.994651 0.000473 1.766310 0.8902 1.0000 0.2392
v 7.948251 0.069889 7.425174 0.8902 1.0000 0.2392
v 6.886139 0.508777 6.730318 0.8902 1.0000 0.2392
v 6.940083 0.069889 8.416942 0.8902 1.0000 0.2392
v 7.964652 0.071393 5.425246 0.8902 1.0000 0.2392
v 5.841731 0.526753 4.857646 0.8902 1.0000 0.2392
v 3.925284 1.307865 5.374550 0.8902 1.0000 0.2392
v 2.366156 3.033113 -5.314130 0.8902 1.0000 0.2392
v 2.960324 2.485489 -3.576842 0.8902 1.0000 0.2392
v 4.353196 2.118554 -6.849106 0.8902 1.0000 0.2392
v 3.071404 2.704522 -7.615314 0.8902 1.0000 0.2392
v 2.726771 3.170121 -6.950954 0.8902 1.0000 0.2392
v 1.071467 3.030273 -7.631706 0.8902 1.0000 0.2392
v 0.040324 2.829849 -6.398818 0.8902 1.0000 0.2392
v 8.046636 0.626081 -4.574419 0.8902 1.0000 0.2392
v 6.539540 1.183017 -6.186154 0.8902 1.0000 0.2392
v 6.951684 0.608353 -3.767226 0.8902 1.0000 0.2392
v 8.063035 1.089145 -6.574354 0.8902 1.0000 0.2392
v 7.071267 1.442506 -7.582514 0.8902 1.0000 0.2392
v 5.768427 1.475817 -6.344290 0.8902 1.0000 0.2392
v 5.071339 2.002298 -7.598914 0.8902 1.0000 0.2392
v 8.031451 0.333057 -2.722570 0.8902 1.0000 0.2392
v -4.848037 1.353194 -5.745370 0.8902 1.0000 0.2392
v -5.140341 0.947937 -3.004722 0.8902 1.0000 0.2392
v -3.964525 1.602473 -6.540555 0.8902 1.0000 0.2392
v -4.928333 1.442506 -7.680898 0.8902 1.0000 0.2392
v -5.760589 1.077529 -6.679562 0.8902 1.0000 0.2392
v -6.928261 1.259186 -7.697298 0.8902 1.0000 0.2392
v -7.936429 1.161777 -6.705530 0.8902 1.0000 0.2392
v -0.964981 2.882889 -5.436122 0.8902 1.0000 0.2392
v -0.959069 2.684233 -3.874635 0.8902 1.0000 0.2392
v -0.928461 2.704522 -7.648106 0.8902 1.0000 0.2392
v -1.965013 2.283642 -7.203386 0.8902 1.0000 0.2392
v -2.928397 2.002298 -7.664506 0.8902 1.0000 0.2392
v 0.230610 2.599105 -3.266314 0.8902 1.0000 0.2392
v -1.823660 2.171865 -2.868330 0.8902 1.0000 0.2392
v -4.039196 0.608113 -2.543650 0.8902 1.0000 0.2392
v -4.390604 0.769049 -0.307650 0.8902 1.0000 0.2392
v -4.779748 1.326169 -2.069442 0.8902 1.0000 0.2392
v -6.387197 1.148553 -3.014987 0.8902 1.0000 0.2392
v -7.969221 0.742065 -2.705666 0.8902 1.0000 0.2392
v 2.514340 2.267201 -2.558498 0.8902 1.0000 0.2392
v 3.094731 0.972529 6.289230 0.8902 1.0000 0.2392
v 2.940218 0.072905 8.384150 0.8902 1.0000 0.2392
v 1.530571 1.140345 5.579126 0.8902 1.0000 0.2392
v -4.850269 0.175729 6.340134 0.8902 1.0000 0.2392
v -5.059509 0.069889 8.318558 0.8902 1.0000 0.2392
v -6.063781 0.163217 5.674982 0.8902 1.0000 0.2392
v 1.155987 1.282153 1.453622 0.8902 1.0000 0.2392
v -5.832341 1.142561 -0.830538 0.8902 1.0000 0.2392
v -6.971997 0.466337 0.431910 0.8902 1.0000 0.2392
v -3.476813 1.129161 -1.115866 0.8902 1.0000 0.2392
v -2.473085 1.438745 -1.567122 0.8902 1.0000 0.2392
v 1.197299 1.372737 2.101406 0.8902 1.0000 0.2392
v 0.403243 1.232801 2.872238 0.8902 1.0000 0.2392
v -4.335461 0.364017 3.451070 0.8902 1.0000 0.2392
v -2.524013 1.154153 3.538638 0.8902 1.0000 0.2392
v -2.443325 0.934217 2.292558 0.8902 1.0000 0.2392
v -6.935645 0.393737 4.053838 0.8902 1.0000 0.2392
v -6.558237 0.254553 4.136022 0.8902 1.0000 0.2392
v -7.556069 0.196097 3.867582 0.8902 1.0000 0.2392
v -5.670277 0.324521 3.982982 0.8902 1.0000 0.2392
v -4.054509 0.509513 3.100022 0.8902 1.0000 0.2392
v -5.396149 0.554385 0.365086 0.8902 1.0000 0.2392
v -7.540405 0.242057 0.633294 0.8902 1.0000 0.2392
v -0.583116 0.848849 1.749918 0.8902 1.0000 0.2392
v -0.299701 1.319545 1.749334 0.8902 1.0000 0.2392
v -1.428741 1.124313 1.968358 0.8902 1.0000 0.2392
v 2.769955 1.073689 0.973382 0.8902 1.0000 0.2392
v 3.705523 1.427249 1.337502 0.8902 1.0000 0.2392
v 6.757931 0.144441 0.814246 0.8902 1.0000 0.2392
v 5.661427 0.476689 0.973478 0.8902 1.0000 0.2392
v 4.527892 0.681153 0.686030 0.8902 1.0000 0.2392
v 6.266564 0.474153 -2.859866 0.8902 1.0000 0.2392
v 7.343724 0.333169 -2.046026 0.8902 1.0000 0.2392
v 6.021290 0.416073 -2.466266 0.8902 1.0000 0.2392
v 4.230443 1.521857 -3.040834 0.8902 1.0000 0.2392
v -0.974469 2.009121 -2.037154 0.8902 1.0000 0.2392
v 2.542563 2.749465 -3.338810 0.8902 1.0000 0.2392
v 3.544068 1.645569 -2.372538 0.8902 1.0000 0.2392
v 1.095795 2.511665 -2.540634 0.8902 1.0000 0.2392
v -8.032677 0.110329 5.033822 0.8902 1.0000 0.2392
v -1.006005 2.196385 -2.877826 0.8902 1.0000 0.2392
v 4.807116 1.022785 1.654854 0.8902 1.0000 0.2392
v -3.128877 1.124817 -1.583146 0.8902 1.0000 0.2392
v -7.038837 0.260313 5.160374 0.8902 1.0000 0.2392
v -4.995492 0.330793 5.344302 0.8902 1.0000 0.2392
v -5.389501 0.771225 7.322238 0.8902 1.0000 0.2392
v 0.830235 1.473033 5.359486 0.8902 1.0000 0.2392
v 2.879363 1.497137 5.397806 0.8902 1.0000 0.2392
v 3.130036 0.744457 7.460198 0.8902 1.0000 0.2392
v 0.620955 2.758009 -2.752650 0.8902 1.0000 0.2392
v -6.918693 0.777177 -2.810282 0.8902 1.0000 0.2392
v -5.605469 1.078601 -3.145762 0.8902 1.0000 0.2392
v -2.659309 1.543369 -2.457418 0.8902 1.0000 0.2392
v -3.174749 1.546841 -6.359251 0.8902 1.0000 0.2392
v -0.453948 2.481713 -6.736778 0.8902 1.0000 0.2392
v -0.921517 2.729794 -4.627458 0.8902 1.0000 0.2392
v -7.000412 1.196313 -6.691322 0.8902 1.0000 0.2392
v -5.038317 1.394242 -6.521210 0.8902 1.0000 0.2392
v -5.021525 1.014305 -4.591618 0.8902 1.0000 0.2392
v 7.239003 0.441977 -2.804090 0.8902 1.0000 0.2392
v 5.603604 1.846194 -6.801106 0.8902 1.0000 0.2392
v 7.121275 0.973145 -6.373978 0.8902 1.0000 0.2392
v 6.854002 0.739897 -4.471363 0.8902 1.0000 0.2392
v 1.013243 3.035033 -6.592250 0.8902 1.0000 0.2392
v 3.016284 2.782425 -6.706754 0.8902 1.0000 0.2392
v 3.771979 2.714970 -4.476314 0.8902 1.0000 0.2392
v 4.907027 1.004289 4.842950 0.8902 1.0000 0.2392
v 7.344500 0.430201 4.730870 0.8902 1.0000 0.2392
v 6.943099 0.744009 6.913230 0.8902 1.0000 0.2392
v 6.778460 0.020569 1.306798 0.8902 1.0000 0.2392
v 7.174643 0.556705 3.644398 0.8902 1.0000 0.2392
v 2.308419 1.449329 1.890566 0.8902 1.0000 0.2392
v 3.035523 1.594961 3.304470 0.8902 1.0000 0.2392
v -3.062748 0.531177 5.292734 0.8902 1.0000 0.2392
v -1.046109 0.892033 5.343302 0.8902 1.0000 0.2392
v -1.183717 0.385105 7.321814 0.8902 1.0000 0.2392
v -0.413644 1.492193 2.883270 0.8902 1.0000 0.2392
v -3.104301 0.563993 7.787854 0.8902 1.0000 0.2392
v 0.987467 1.500713 3.079054 0.8902 1.0000 0.2392
v 4.889355 1.283345 3.488462 0.8902 1.0000 0.2392
v 4.971123 0.176001 7.398118 0.8902 1.0000 0.2392
v 0.711506 3.298393 -4.565274 0.8902 1.0000 0.2392
v 5.104556 1.536161 -4.280146 0.8902 1.0000 0.2392
v -6.430125 0.758474 -4.134819 0.8902 1.0000 0.2392
v -2.637228 1.314185 -4.936850 0.8902 1.0000 0.2392
v -7.583181 0.505561 -0.741106 0.8902 1.0000 0.2392
v 0.917683 0.561209 7.226326 0.8902 1.0000 0.2392
v -7.056309 0.230377 7.395862 0.8902 1.0000 0.2392
vn 0.6216 0.5682 -0.5392
vn -0.5713 0.6005 -0.5596
vn 0.5726 0.5774 0.5821
vn -0.5985 0.5444 0.5876
vn -0.1997 0.7674 -0.6093
vn -0.7797 0.4799 0.4021
vn -0.0072 0.5603 0.8282
vn 0.7993 0.5927 0.0990
vn -0.1366 0.7070 -0.6939
vn 0.0024 0.4694 0.8830
vn 0.8900 0.4540 0.0417
vn 0.2964 0.6900 -0.6603
vn -0.7310 0.6816 0.0327
vn -0.0946 0.6065 0.7894
vn 0.1507 0.9145 0.3755
vn -0.2761 0.9204 0.2769
vn -0.2581 0.9642 -0.0607
vn 0.6034 0.4807 0.6363
vn -0.0089 0.9279 0.3727
vn -0.2491 0.9638 0.0956
vn 0.7162 0.6854 0.1316
vn -0.0327 0.7398 -0.6720
vn -0.8406 0.5383 -0.0599
vn -0.0596 0.5663 0.8221
vn 0.9431 0.3322 -0.0137
vn 0.0259 0.6732 -0.7390
vn -0.6781 0.7289 0.0948
vn 0.0431 0.5613 0.8265
vn -0.2953 0.9315 0.2126
vn -0.2483 0.7270 -0.6402
vn -0.0066 0.6002 0.7998
vn 0.8309 0.5564 0.0073
vn 0.2837 0.6898 -0.6661
vn -0.8219 0.5654 0.0698
vn -0.1975 0.6427 0.7402
vn -0.0496 0.9679 -0.2464
vn -0.0800 0.9966 -0.0198
vn -0.2289 0.8916 0.3907
vn 0.0829 0.6574 0.7489
vn -0.0724 0.9927 -0.0966
vn 0.3949 0.9148 0.0845
vn 0.3526 0.9095 0.2201
vn 0.2364 0.8144 0.5300
vn 0.1073 0.8848 0.4535
vn 0.4140 0.9099 -0.0259
vn 0.3599 0.8905 0.2784
vn -0.1026 0.9890 0.1065
vn -0.1002 0.9867 0.1283
vn -0.2900 0.9293 0.2287
vn -0.2611 0.7951 -0.5474
vn -0.5515 0.8340 -0.0157
vn -0.1264 0.9794 -0.1572
vn 0.1749 0.9436 -0.2810
vn 0.2285 0.9735 -0.0099
vn 0.2593 0.9624 -0.0812
vn 0.3437 0.9379 0.0472
vn -0.0292 0.9995 -0.0090
vn -0.2923 0.9422 -0.1639
vn 0.0226 0.4454 0.8951
vn -0.3251 0.9453 0.0288
vn 0.0285 0.9032 0.4282
vn -0.0637 0.9979 0.0093
vn -0.0534 0.9369 0.3456
vn 0.3123 0.6915 0.6514
vn -0.5243 0.7519 -0.3997
vn -0.3346 0.7702 -0.5429
vn -0.5442 0.4240 -0.7239
vn 0.0862 0.8314 -0.5490
vn -0.4179 0.7053 -0.5727
vn -0.2917 0.8981 -0.3290
vn 0.1591 0.6484 0.7445
vn -0.2263 0.5721 0.7883
vn -0.2784 0.6581 -0.6996
vn -0.2289 0.6623 -0.7135
vn -0.0619 0.4139 -0.9082
vn -0.1405 0.6581 -0.7397
vn -0.1686 0.7976 -0.5792
vn 0.6621 0.5344 -0.5254
vn 0.1474 0.5381 -0.8299
vn -0.2072 0.6158 0.7602
vn 0.4922 0.5820 0.6473
vn 0.3311 0.4862 0.8087
vn 0.1673 0.3596 0.9180
vn -0.0672 0.6244 0.7782
vn 0.4311 0.4888 0.7584
vn -0.0664 0.2320 0.9704
vn 0.1224 0.6481 0.7517
vn 0.7129 -0.0000 -0.7013
vn -0.7013 -0.0000 -0.7129
vn 0.7013 -0.0000 0.7129
vn -0.7129 -0.0000 0.7013
vn 0.0082 -0.0000 -1.0000
vn -0.9693 -0.0007 0.2458
vn -0.0082 -0.0000 1.0000
vn 1.0000 0.0031 -0.0085
vn 1.0000 -0.0000 0.0082
vn -1.0000 -0.0000 -0.0082
vn -1.0000 0.0001 -0.0079
vn 0.9999 0.0007 0.0118
vn -0.9996 0.0041 -0.0283
vn -0.2179 -0.0553 -0.9744
vn 0.3596 -0.1945 0.9126
vn 0.7266 -0.1214 0.6763
vn 0.7277 0.0944 0.6794
vn -0.7170 0.1701 -0.6760
vn -0.1169 0.1706 -0.9784
vn -0.9519 -0.0681 -0.2987
vn 0.1348 -0.1382 -0.9812
vn -0.3052 0.0057 -0.9523
vn -0.6631 -0.0143 -0.7484
vn 0.3624 0.0951 0.9271
vn -0.1823 -0.0413 0.9824
vn -0.2496 0.0279 -0.9680
vn -0.2678 0.0262 -0.9631
vn -0.0056 0.0303 -0.9995
vn -0.2058 0.1550 -0.9663
vn -0.2405 0.0652 -0.9684
vn 0.9632 0.0035 -0.2687
vn -0.0033 0.0182 -0.9998
vn -0.2807 0.0136 0.9597
vn 0.9477 0.0117 0.3191
vn 0.0618 -0.0184 0.9979
vn -0.0661 0.0183 0.9976
vn 0.1366 -0.1530 0.9787
vn 0.5353 0.0901 0.8399
vn -0.1931 -0.0109 0.9811
vn -0.2384 -0.0442 0.9702
vn -0.5820 0.5774 0.5726
vn -0.7070 0.7072 -0.0055
vn -0.0058 0.7071 0.7071
vn -0.7149 0.6991 -0.0139
vn -0.7014 0.7124 -0.0223
vn -0.7071 0.7071 -0.0058
vn -0.0000 1.0000 -0.0000
vn 0.7071 0.7071 0.0058
vn 0.7061 0.7081 0.0087
vn 0.7057 0.7083 0.0156
vn 0.0058 -0.7071 -0.7071
vn 0.0058 0.7072 -0.7070
vn 0.0058 0.7071 -0.7071
vn 0.7027 0.7115 -0.0078
vn 0.5821 0.5774 -0.5726
vn 0.7135 0.7007 -0.0010
vn -0.5726 0.5774 -0.5821
vn -0.7044 0.7098 0.0032
vn -0.1109 0.9933 0.0332
vn -0.1312 0.9882 0.0794
vn -0.7997 0.5973 0.0614
vn 0.0876 0.6863 0.7220
vn -0.0452 0.9119 0.4078
vn -0.2445 0.8554 0.4567
vn -0.0366 0.9793 0.1990
vn 0.0088 0.5666 0.8239
vn -0.2448 0.9691 0.0318
vn -0.7387 0.6491 0.1817
vn -0.2957 0.9540 0.0504
vn -0.0546 0.9150 0.3997
vn -0.2757 0.7452 0.6072
vn -0.6471 0.7604 0.0558
vn -0.0922 0.9763 0.1960
vn -0.5248 0.8314 0.1826
vn -0.1208 0.9284 0.3515
vn -0.1415 0.9872 0.0733
vn -0.7384 0.6531 0.1682
vn -0.1527 0.9620 -0.2264
vn 0.4409 0.8674 0.2308
vn 0.4536 0.8810 0.1342
vn 0.7400 0.6726 -0.0005
vn 0.4757 0.7958 0.3747
vn 0.1761 0.9715 0.1585
vn -0.0843 0.9784 -0.1885
vn -0.4093 0.8863 0.2166
vn 0.0687 0.7369 0.6725
vn -0.0221 0.9914 0.1288
vn 0.0190 0.9766 0.2142
vn 0.2142 0.9390 0.2690
vn 0.0791 0.6031 0.7937
vn 0.1741 0.9837 -0.0451
vn 0.3433 0.9284 -0.1420
vn 0.2772 0.9603 -0.0327
vn -0.3606 0.8827 0.3015
vn -0.1499 0.9776 0.1475
vn -0.0402 0.9908 0.1296
vn -0.0301 0.9878 -0.1530
vn -0.0435 0.9990 -0.0115
vn -0.0274 0.9985 0.0470
vn -0.0075 0.4059 0.9139
vn -0.2465 0.9197 0.3056
vn -0.4997 0.7040 -0.5047
vn -0.1494 0.9879 0.0427
vn -0.1330 0.8310 -0.5402
vn 0.0852 0.6636 0.7432
vn -0.0927 0.9343 0.3442
vn -0.2413 0.9631 0.1196
vn -0.0219 0.5839 0.8115
vn -0.0977 0.8873 0.4507
vn -0.2195 0.9122 0.3460
vn -0.0488 0.9671 0.2498
vn 0.1718 0.9797 -0.1033
vn 0.1520 0.9795 0.1321
vn -0.9725 0.1778 0.1504
vn 0.5475 0.4448 0.7088
vn 0.9137 0.4038 0.0454
vn 0.3260 0.9409 -0.0918
vn 0.3998 0.9133 0.0774
vn 0.8251 0.5308 -0.1936
vn 0.8157 0.5741 0.0714
vn 0.3257 0.8646 -0.3826
vn 0.0630 0.5781 0.8135
vn 0.8493 0.5272 0.0264
vn 0.2555 0.9290 0.2677
vn 0.2374 0.8865 0.3971
vn 0.6429 0.7582 -0.1085
vn 0.4946 0.7676 0.4077
vn 0.3527 0.9351 0.0347
vn 0.2722 0.5789 -0.7686
vn 0.4297 0.8966 -0.1065
vn 0.0058 0.7055 -0.7087
vn -0.2980 0.9348 -0.1933
vn 0.7532 0.6334 0.1776
vn 0.3055 0.9509 0.0485
vn 0.0832 0.9817 0.1711
vn 0.7050 0.6881 0.1719
vn 0.1123 0.8017 -0.5870
vn 0.5511 0.8170 0.1697
vn 0.2171 0.6938 -0.6867
vn 0.7354 0.6772 0.0223
vn -0.0202 0.9694 0.2448
vn 0.1108 0.9867 0.1193
vn -0.0643 0.9956 0.0684
vn -0.1611 0.7110 -0.6845
vn -0.1337 0.9875 -0.0835
vn 0.0056 0.7288 -0.6847
vn -0.7474 0.6644 0.0038
vn -0.3348 0.9373 -0.0973
vn -0.3121 0.9208 0.2340
vn -0.2184 0.7850 -0.5797
vn -0.3314 0.9419 0.0552
vn -0.2842 0.7316 -0.6197
vn -0.3819 0.8660 0.3228
vn -0.2506 0.9226 0.2933
vn -0.1349 0.9797 -0.1481
vn 0.3911 0.6557 0.6458
vn -0.0079 0.9828 -0.1843
vn -0.2556 0.9577 -0.1321
vn -0.7192 0.6946 -0.0152
vn 0.1069 0.4720 0.8751
vn 0.2109 0.8828 0.4198
vn -0.0619 0.5003 0.8636
vn 0.0217 0.9751 0.2208
vn 0.0836 0.9928 -0.0857
vn 0.0670 0.5197 0.8517
vn 0.0033 0.9997 0.0225
vn -0.2587 0.6946 -0.6713
vn -0.0871 0.9804 0.1765
vn -0.2324 0.9276 0.2924
vn 0.4078 0.7295 0.5491
vn -0.0640 0.7272 0.6835
vn -0.1243 0.9791 -0.1611
vn 0.0354 0.9992 0.0164
vn -0.0902 0.9887 0.1196
vn -0.2769 0.9600 -0.0406
vn -0.1851 0.6567 -0.7311
vn 0.1213 0.8109 -0.5725
vn 0.2978 0.0923 -0.9502
vn 0.1675 0.1074 -0.9800
vn -0.5480 0.5965 -0.5864
vn -0.4788 0.8675 -0.1347
vn 0.2922 0.5937 0.7497
vn -0.5138 0.5602 0.6498
vn -0.0975 0.8321 0.5459
vn 0.4928 0.8695 -0.0339
vn -0.3727 0.9259 -0.0623
vn -0.0722 0.5621 -0.8239
vn 0.1789 0.9026 -0.3915
vn 0.3485 0.7227 -0.5969
vn 0.3118 0.9187 -0.2425
vn 0.0574 0.5093 -0.8587
vn 0.1299 0.9697 0.2068
vn -0.1562 0.6801 0.7163
vn -0.1814 0.6568 0.7319
vn 0.5229 0.6643 0.5341
vn 0.1301 0.5216 0.8432
vn 0.4202 0.9047 0.0701
vn 0.2037 0.5129 0.8340
vn 0.1130 0.4187 0.9011
vn -0.7664 0.6418 0.0273
vn -0.1394 0.9426 0.3035
vn 0.3746 0.9112 -0.1712
vn -0.1588 0.9870 -0.0243
vn -0.0437 0.9987 0.0254
vn -0.0296 0.9710 0.2370
vn -0.1148 0.9925 0.0419
vn -0.0951 0.9954 -0.0068
vn 0.0256 0.9336 0.3574
vn -0.0756 0.9418 0.3276
vn -0.1782 0.8880 0.4239
vn -0.2282 0.9735 0.0128
vn 0.1616 0.9040 -0.3958
vn -0.4253 0.7866 0.4476
vn -0.3507 0.9345 -0.0619
vn -0.3381 0.9409 -0.0196
vn -0.3803 0.9091 0.1699
vn 0.0262 0.9988 -0.0409
vn -0.2283 0.9732 -0.0268
vn 0.0034 0.9901 0.1401
vn 0.0873 0.9883 0.1254
vn 0.5090 0.8518 0.1239
vn 0.1538 0.9839 0.0915
vn 0.2378 0.9294 0.2824
vn -0.1563 0.9875 -0.0200
vn 0.5639 0.8245 0.0465
vn 0.9779 0.2093 -0.0024
vn 0.4265 0.7721 0.4712
vn 0.3340 0.9291 0.1590
vn 0.3395 0.8969 -0.2835
vn 0.2120 0.9656 -0.1508
vn 0.4128 0.9093 0.0522
vn -0.7574 0.2398 0.6074
vn 0.1178 0.9896 0.0820
vn -0.2738 0.9401 0.2033
vn 0.0959 0.9332 0.3464
vn -0.0329 0.9673 0.2516
vn -0.0355 0.9858 -0.1639
vn -0.0706 0.9757 0.2076
vn -0.3011 0.9518 0.0576
vn 0.2204 0.9637 -0.1507
vn 0.1734 0.9320 0.3183
vn -0.1116 0.9890 0.0968
vn 0.3438 0.8026 0.4876
vn -0.1669 0.9505 0.2619
vn -0.7369 0.6601 0.1459
vn -0.1857 0.9604 0.2077
vn -0.0333 0.9071 0.4196
vn 0.2734 0.9554 0.1119
s 1
usemtl Material.001
f 387//335 4//4 201//149
f 204//152 205//153 386//334
f 385//333 6//6 308//256
f 384//332 17//17 213//161
f 383//331 13//13 217//165
f 220//168 221//169 382//330
f 381//329 16//16 225//173
f 228//176 229//177 380//328
f 379//327 19//19 233//181
f 312//260 235//183 378//326
f 377//325 14//14 239//187
f 20//20 314//262 315//263
f 67//67 316//264 318//266
f 313//261 243//191 319//267
f 71//71 308//256 244//192
f 314//262 245//193 376//324
f 73//73 323//271 325//273
f 375//323 28//28 247//195
f 249//197 246//194 374//322
f 373//321 48//48 237//185
f 372//320 47//47 252//200
f 251//199 327//275 371//319
f 77//77 311//259 306//254
f 230//178 257//205 370//318
f 256//204 258//206 369//317
f 226//174 261//209 368//316
f 263//211 260//208 367//315
f 264//212 227//175 366//314
f 222//170 266//214 365//313
f 364//312 55//55 265//213
f 271//219 223//171 363//311
f 362//310 42//42 274//222
f 277//225 273//221 361//309
f 267//215 219//167 360//308
f 274//222 331//279 359//307
f 331//279 334//282 83//83
f 358//306 40//40 281//229
f 357//305 57//57 280//228
f 286//234 215//163 356//304
f 355//303 39//39 288//236
f 354//302 58//58 287//235
f 353//301 38//38 211//159
f 294//242 208//156 352//300
f 351//299 60//60 296//244
f 350//298 27//27 206//154
f 266//214 299//247 337//285
f 225//173 292//240 349//297
f 202//150 301//249 348//296
f 347//295 61//61 300//248
f 346//294 29//29 203//151
f 345//293 35//35 304//252
f 344//292 62//62 303//251
f 343//291 23//23 199//147
f 209//157 309//257 342//290
f 341//289 45//45 231//179
f 288//236 293//241 340//288
f 296//244 321//269 295//243
f 254//202 137//122 138//123
f 333//281 138//123 135//120
f 255//203 98//96 106//99
f 229//177 97//94 105//94
f 335//283 117//102 139//124
f 309//257 119//104 118//103
f 283//231 96//92 103//92
f 205//153 94//94 111//94
f 310//258 118//103 117//102
f 258//206 106//99 133//118
f 337//285 141//126 137//122
f 285//233 103//92 89//89
f 259//207 90//90 112//96
f 338//286 139//124 142//127
f 207//155 108//100 93//93
f 286//234 89//89 114//97
f 339//287 122//107 104//98
f 261//209 105//94 90//90
f 262//210 112//96 98//96
f 315//263 128//113 121//106
f 289//237 92//92 110//92
f 317//265 116//101 123//108
f 291//239 110//92 96//92
f 239//187 101//94 109//94
f 318//266 123//108 122//107
f 319//267 124//109 116//101
f 241//189 121//106 120//105
f 320//268 120//105 125//110
f 268//216 99//92 107//92
f 216//164 114//97 100//97
f 321//269 126//111 140//125
f 295//243 140//125 119//104
f 243//191 125//110 124//109
f 322//270 93//93 127//112
f 270//218 107//92 92//92
f 244//192 127//112 126//111
f 324//272 132//117 129//114
f 298//246 100//97 108//100
f 272//220 95//95 102//96
f 325//273 129//114 128//113
f 299//247 142//127 141//126
f 247//195 109//94 94//94
f 326//274 130//115 131//116
f 301//249 111//94 97//94
f 275//223 102//96 88//88
f 328//276 133//118 134//119
f 276//224 88//88 113//92
f 330//278 134//119 130//115
f 304//252 115//94 101//94
f 278//226 113//92 99//92
f 200//148 104//98 91//91
f 279//227 136//121 95//95
f 201//149 91//91 115//94
f 332//280 135//120 136//121
f 306//254 131//116 132//117
f 112//96 164//135 98//96
f 94//94 147//130 111//94
f 105//94 167//3 90//90
f 159//134 153//130 168//135
f 170//139 163//134 175//140
f 181//134 195//134 196//134
f 93//93 192//145 122//107
f 108//100 148//131 93//93
f 100//97 149//132 108//100
f 99//92 170//139 107//92
f 133//118 176//143 136//121
f 114//97 150//133 100//97
f 107//92 171//140 92//92
f 97//94 153//130 105//94
f 111//94 152//130 97//94
f 95//95 173//135 102//96
f 101//94 155//130 109//94
f 115//94 154//130 101//94
f 102//96 174//142 88//88
f 88//88 175//140 113//92
f 113//92 169//138 99//92
f 136//121 172//141 95//95
f 109//94 146//130 94//94
f 96//92 178//140 103//92
f 103//92 179//144 89//89
f 98//96 165//136 106//99
f 89//89 151//133 114//97
f 106//99 166//137 133//118
f 104//98 143//128 91//91
f 92//92 180//140 110//92
f 122//107 144//129 104//98
f 90//90 168//135 112//96
f 91//91 145//130 115//94
f 110//92 177//140 96//92
f 335//283 293//241 59//59
f 84//84 340//288 335//283
f 292//240 288//236 340//288
f 329//277 231//179 53//53
f 330//278 329//277 79//79
f 330//278 327//275 341//289
f 342//290 63//63 310//258
f 208//156 310//258 59//59
f 37//37 342//290 208//156
f 305//253 199//147 62//62
f 50//50 343//291 305//253
f 316//264 339//287 343//291
f 344//292 48//48 250//198
f 242//190 250//198 20//20
f 242//190 305//253 344//292
f 238//186 304//252 14//14
f 303//251 238//186 48//48
f 62//62 345//293 303//251
f 302//250 203//151 61//61
f 235//183 302//250 47//47
f 235//183 248//196 346//294
f 264//212 300//248 44//44
f 252//200 264//212 19//19
f 47//47 347//295 252//200
f 348//296 10//10 228//176
f 44//44 348//296 228//176
f 300//248 202//150 348//296
f 349//297 84//84 338//286
f 336//284 338//286 87//87
f 43//43 349//297 336//284
f 350//298 60//60 297//245
f 217//165 297//245 40//40
f 13//13 350//298 217//165
f 294//242 296//244 37//37
f 281//229 294//242 17//17
f 40//40 351//299 281//229
f 352//300 59//59 293//241
f 213//161 293//241 39//39
f 213//161 294//242 352//300
f 290//238 211//159 58//58
f 291//239 290//238 30//30
f 9//9 353//301 291//239
f 271//219 287//235 36//36
f 5//5 354//302 271//219
f 289//237 290//238 354//302
f 355//303 16//16 224//172
f 287//235 224//172 36//36
f 58//58 355//303 287//235
f 284//232 215//163 57//57
f 22//22 356//304 284//232
f 2//2 356//304 285//233
f 282//230 280//228 38//38
f 283//231 282//230 9//9
f 283//231 284//232 357//305
f 358//306 17//17 212//160
f 280//228 212//160 38//38
f 57//57 358//306 280//228
f 359//307 80//80 332//280
f 279//227 332//280 81//81
f 8//8 359//307 279//227
f 277//225 219//167 56//56
f 33//33 360//308 277//225
f 278//226 267//215 360//308
f 361//309 21//21 275//223
f 276//224 275//223 1//1
f 33//33 361//309 276//224
f 272//220 274//222 8//8
f 21//21 362//310 272//220
f 273//221 218//166 362//310
f 363//311 55//55 269//217
f 26//26 363//311 269//217
f 5//5 363//311 270//218
f 364//312 41//41 267//215
f 12//12 364//312 267//215
f 268//216 269//217 364//312
f 220//168 266//214 18//18
f 265//213 220//168 41//41
f 265//213 222//170 365//313
f 366//314 54//54 263//211
f 46//46 366//314 263//211
f 19//19 366//314 233//181
f 262//210 260//208 32//32
f 11//11 367//315 262//210
f 257//205 263//211 367//315
f 259//207 261//209 3//3
f 260//208 259//207 32//32
f 260//208 226//174 368//316
f 369//317 78//78 328//276
f 329//277 328//276 79//79
f 53//53 369//317 329//277
f 255//203 257//205 11//11
f 256//204 255//203 25//25
f 256//204 230//178 370//318
f 306//254 253//201 76//76
f 306//254 311//259 253//201
f 311//259 52//52 253//201
f 326//274 327//275 75//75
f 76//76 371//319 326//274
f 253//201 251//199 371//319
f 372//320 19//19 232//180
f 251//199 232//180 45//45
f 52//52 372//320 251//199
f 249//197 237//185 51//51
f 49//49 373//321 249//197
f 240//188 250//198 373//321
f 374//322 29//29 248//196
f 245//193 248//196 15//15
f 245//193 249//197 374//322
f 204//152 247//195 7//7
f 246//194 204//152 29//29
f 246//194 236//184 375//323
f 325//273 324//272 74//74
f 325//273 323//271 324//272
f 323//271 77//77 324//272
f 376//324 15//15 312//260
f 77//77 376//324 312//260
f 73//73 376//324 323//271
f 244//192 322//270 72//72
f 244//192 308//256 322//270
f 308//256 6//6 322//270
f 318//266 317//265 68//68
f 318//266 316//264 317//265
f 316//264 50//50 317//265
f 377//325 28//28 236//184
f 237//185 236//184 51//51
f 237//185 238//186 377//325
f 234//182 235//183 47//47
f 52//52 378//326 234//182
f 311//259 312//260 378//326
f 379//327 46//46 230//178
f 53//53 379//327 230//178
f 231//179 232//180 379//327
f 380//328 24//24 226//174
f 227//175 226//174 54//54
f 227//175 228//176 380//328
f 381//329 43//43 222//170
f 55//55 381//329 222//170
f 36//36 381//329 223//171
f 382//330 42//42 218//166
f 56//56 382//330 218//166
f 41//41 382//330 219//167
f 383//331 40//40 214//162
f 215//163 214//162 57//57
f 215//163 216//164 383//331
f 210//158 213//161 39//39
f 211//159 210//158 58//58
f 38//38 384//332 211//159
f 307//255 308//256 71//71
f 206//154 307//255 60//60
f 27//27 385//333 206//154
f 202//150 205//153 31//31
f 61//61 386//334 202//150
f 29//29 386//334 203//151
f 198//146 201//149 35//35
f 199//147 198//146 62//62
f 199//147 200//148 387//335
f 387//335 200//148 4//4
f 204//152 7//7 205//153
f 385//333 207//155 6//6
f 384//332 212//160 17//17
f 383//331 216//164 13//13
f 220//168 18//18 221//169
f 381//329 224//172 16//16
f 228//176 10//10 229//177
f 379//327 232//180 19//19
f 312//260 15//15 235//183
f 377//325 238//186 14//14
f 241//189 65//65 313//261
f 20//20 240//188 49//49
f 241//189 313//261 20//20
f 315//263 66//66 241//189
f 314//262 73//73 315//263
f 20//20 49//49 314//262
f 315//263 241//189 20//20
f 319//267 50//50 242//190
f 242//190 20//20 313//261
f 313//261 65//65 320//268
f 313//261 320//268 70//70
f 319//267 242//190 313//261
f 243//191 69//69 319//267
f 313//261 70//70 243//191
f 314//262 49//49 245//193
f 375//323 236//184 28//28
f 249//197 51//51 246//194
f 373//321 250//198 48//48
f 372//320 234//182 47//47
f 251//199 45//45 327//275
f 230//178 46//46 257//205
f 256//204 25//25 258//206
f 226//174 24//24 261//209
f 263//211 54//54 260//208
f 264//212 44//44 227//175
f 222//170 43//43 266//214
f 364//312 269//217 55//55
f 271//219 36//36 223//171
f 362//310 218//166 42//42
f 277//225 56//56 273//221
f 267//215 41//41 219//167
f 274//222 42//42 331//279
f 333//281 80//80 331//279
f 331//279 42//42 221//169
f 221//169 18//18 334//282
f 334//282 82//82 254//202
f 83//83 333//281 331//279
f 334//282 254//202 83//83
f 331//279 221//169 334//282
f 358//306 214//162 40//40
f 357//305 284//232 57//57
f 286//234 34//34 215//163
f 355//303 210//158 39//39
f 354//302 290//238 58//58
f 353//301 282//230 38//38
f 294//242 37//37 208//156
f 351//299 297//245 60//60
f 350//298 298//246 27//27
f 337//285 82//82 334//282
f 334//282 18//18 266//214
f 266//214 43//43 336//284
f 336//284 87//87 299//247
f 299//247 86//86 337//285
f 337//285 334//282 266//214
f 266//214 336//284 299//247
f 225//173 16//16 292//240
f 202//150 31//31 301//249
f 347//295 302//250 61//61
f 346//294 248//196 29//29
f 345//293 198//146 35//35
f 344//292 305//253 62//62
f 343//291 339//287 23//23
f 209//157 64//64 309//257
f 341//289 327//275 45//45
f 288//236 39//39 293//241
f 295//243 64//64 209//157
f 209//157 37//37 296//244
f 296//244 60//60 307//255
f 307//255 71//71 321//269
f 321//269 85//85 295//243
f 295//243 209//157 296//244
f 296//244 307//255 321//269
f 138//123 83//83 254//202
f 254//202 82//82 137//122
f 135//120 80//80 333//281
f 333//281 83//83 138//123
f 106//99 25//25 255//203
f 255//203 11//11 98//96
f 105//94 24//24 229//177
f 229//177 10//10 97//94
f 139//124 84//84 335//283
f 335//283 59//59 117//102
f 118//103 63//63 309//257
f 309//257 64//64 119//104
f 103//92 22//22 283//231
f 283//231 9//9 96//92
f 111//94 31//31 205//153
f 205//153 7//7 94//94
f 117//102 59//59 310//258
f 310//258 63//63 118//103
f 133//118 78//78 258//206
f 258//206 25//25 106//99
f 137//122 82//82 337//285
f 337//285 86//86 141//126
f 89//89 2//2 285//233
f 285//233 22//22 103//92
f 112//96 32//32 259//207
f 259//207 3//3 90//90
f 142//127 87//87 338//286
f 338//286 84//84 139//124
f 93//93 6//6 207//155
f 207//155 27//27 108//100
f 114//97 34//34 286//234
f 286//234 2//2 89//89
f 104//98 23//23 339//287
f 339//287 67//67 122//107
f 90//90 3//3 261//209
f 261//209 24//24 105//94
f 98//96 11//11 262//210
f 262//210 32//32 112//96
f 121//106 66//66 315//263
f 315//263 73//73 128//113
f 110//92 30//30 289//237
f 289//237 5//5 92//92
f 123//108 68//68 317//265
f 317//265 50//50 116//101
f 96//92 9//9 291//239
f 291//239 30//30 110//92
f 109//94 28//28 239//187
f 239//187 14//14 101//94
f 122//107 67//67 318//266
f 318//266 68//68 123//108
f 116//101 50//50 319//267
f 319//267 69//69 124//109
f 120//105 65//65 241//189
f 241//189 66//66 121//106
f 125//110 70//70 320//268
f 320//268 65//65 120//105
f 107//92 26//26 268//216
f 268//216 12//12 99//92
f 100//97 13//13 216//164
f 216//164 34//34 114//97
f 140//125 85//85 321//269
f 321//269 71//71 126//111
f 119//104 64//64 295//243
f 295//243 85//85 140//125
f 124//109 69//69 243//191
f 243//191 70//70 125//110
f 127//112 72//72 322//270
f 322//270 6//6 93//93
f 92//92 5//5 270//218
f 270//218 26//26 107//92
f 126//111 71//71 244//192
f 244//192 72//72 127//112
f 129//114 74//74 324//272
f 324//272 77//77 132//117
f 108//100 27//27 298//246
f 298//246 13//13 100//97
f 102//96 21//21 272//220
f 272//220 8//8 95//95
f 128//113 73//73 325//273
f 325//273 74//74 129//114
f 141//126 86//86 299//247
f 299//247 87//87 142//127
f 94//94 7//7 247//195
f 247//195 28//28 109//94
f 131//116 76//76 326//274
f 326//274 75//75 130//115
f 97//94 10//10 301//249
f 301//249 31//31 111//94
f 88//88 1//1 275//223
f 275//223 21//21 102//96
f 134//119 79//79 328//276
f 328//276 78//78 133//118
f 113//92 33//33 276//224
f 276//224 1//1 88//88
f 130//115 75//75 330//278
f 330//278 79//79 134//119
f 101//94 14//14 304//252
f 304//252 35//35 115//94
f 99//92 12//12 278//226
f 278//226 33//33 113//92
f 91//91 4//4 200//148
f 200//148 23//23 104//98
f 95//95 8//8 279//227
f 279//227 81//81 136//121
f 115//94 35//35 201//149
f 201//149 4//4 91//91
f 136//121 81//81 332//280
f 332//280 80//80 135//120
f 132//117 77//77 306//254
f 306//254 76//76 131//116
f 112//96 168//135 164//135
f 94//94 146//130 147//130
f 105//94 153//130 167//3
f 144//129 190//134 192//145
f 191//134 159//134 158//134
f 144//129 191//134 190//134
f 145//130 144//129 143//128
f 154//130 144//129 145//130
f 144//129 159//134 191//134
f 159//134 157//134 156//134
f 189//134 186//134 193//134
f 159//134 189//134 157//134
f 154//130 159//134 144//129
f 155//130 159//134 154//130
f 159//134 186//134 189//134
f 186//134 194//134 185//134
f 194//134 166//137 195//134
f 194//134 165//136 166//137
f 159//134 194//134 186//134
f 146//130 159//134 155//130
f 147//130 159//134 146//130
f 159//134 165//136 194//134
f 159//134 164//135 165//136
f 152//130 159//134 147//130
f 168//135 153//130 167//3
f 153//130 159//134 152//130
f 159//134 168//135 164//135
f 161//134 149//132 148//131
f 161//134 150//133 149//132
f 182//134 161//134 160//134
f 187//134 182//134 181//134
f 197//134 187//134 188//134
f 162//134 184//134 183//134
f 162//134 197//134 184//134
f 176//143 163//134 196//134
f 163//134 197//134 162//134
f 187//134 161//134 182//134
f 187//134 150//133 161//134
f 151//133 178//140 179//144
f 187//134 151//133 150//133
f 197//134 151//133 187//134
f 151//133 177//140 178//140
f 180//140 171//140 170//139
f 151//133 180//140 177//140
f 163//134 151//133 197//134
f 172//141 163//134 176//143
f 175//140 173//135 174//142
f 173//135 163//134 172//141
f 163//134 180//140 151//133
f 170//139 169//138 175//140
f 163//134 170//139 180//140
f 175//140 163//134 173//135
f 156//134 158//134 159//134
f 158//134 190//134 191//134
f 190//134 148//131 192//145
f 190//134 161//134 148//131
f 156//134 190//134 158//134
f 193//134 157//134 189//134
f 156//134 161//134 190//134
f 157//134 161//134 156//134
f 160//134 181//134 182//134
f 157//134 160//134 161//134
f 185//134 193//134 186//134
f 193//134 160//134 157//134
f 181//134 188//134 187//134
f 193//134 181//134 160//134
f 195//134 185//134 194//134
f 185//134 181//134 193//134
f 181//134 197//134 188//134
f 197//134 183//134 184//134
f 162//134 196//134 163//134
f 181//134 183//134 197//134
f 183//134 196//134 162//134
f 196//134 166//137 176//143
f 195//134 181//134 185//134
f 196//134 195//134 166//137
f 181//134 196//134 183//134
f 93//93 148//131 192//145
f 108//100 149//132 148//131
f 100//97 150//133 149//132
f 99//92 169//138 170//139
f 133//118 166//137 176//143
f 114//97 151//133 150//133
f 107//92 170//139 171//140
f 97//94 152//130 153//130
f 111//94 147//130 152//130
f 95//95 172//141 173//135
f 101//94 154//130 155//130
f 115//94 145//130 154//130
f 102//96 173//135 174//142
f 88//88 174//142 175//140
f 113//92 175//140 169//138
f 136//121 176//143 172//141
f 109//94 155//130 146//130
f 96//92 177//140 178//140
f 103//92 178//140 179//144
f 98//96 164//135 165//136
f 89//89 179//144 151//133
f 106//99 165//136 166//137
f 104//98 144//129 143//128
f 92//92 171//140 180//140
f 122//107 192//145 144//129
f 90//90 167//3 168//135
f 91//91 143//128 145//130
f 110//92 180//140 177//140
f 335//283 340//288 293//241
f 84//84 292//240 340//288
f 292//240 16//16 288//236
f 329//277 341//289 231//179
f 330//278 341//289 329//277
f 330//278 75//75 327//275
f 342//290 309//257 63//63
f 208//156 342//290 310//258
f 37//37 209//157 342//290
f 305//253 343//291 199//147
f 50//50 316//264 343//291
f 316//264 67//67 339//287
f 344//292 303//251 48//48
f 242//190 344//292 250//198
f 242//190 50//50 305//253
f 238//186 345//293 304//252
f 303//251 345//293 238//186
f 62//62 198//146 345//293
f 302//250 346//294 203//151
f 235//183 346//294 302//250
f 235//183 15//15 248//196
f 264//212 347//295 300//248
f 252//200 347//295 264//212
f 47//47 302//250 347//295
f 348//296 301//249 10//10
f 44//44 300//248 348//296
f 300//248 61//61 202//150
f 349//297 292//240 84//84
f 336//284 349//297 338//286
f 43//43 225//173 349//297
f 350//298 206//154 60//60
f 217//165 350//298 297//245
f 13//13 298//246 350//298
f 294//242 351//299 296//244
f 281//229 351//299 294//242
f 40//40 297//245 351//299
f 352//300 208//156 59//59
f 213//161 352//300 293//241
f 213//161 17//17 294//242
f 290//238 353//301 211//159
f 291//239 353//301 290//238
f 9//9 282//230 353//301
f 271//219 354//302 287//235
f 5//5 289//237 354//302
f 289//237 30//30 290//238
f 355//303 288//236 16//16
f 287//235 355//303 224//172
f 58//58 210//158 355//303
f 284//232 356//304 215//163
f 22//22 285//233 356//304
f 2//2 286//234 356//304
f 282//230 357//305 280//228
f 283//231 357//305 282//230
f 283//231 22//22 284//232
f 358//306 281//229 17//17
f 280//228 358//306 212//160
f 57//57 214//162 358//306
f 359//307 331//279 80//80
f 279//227 359//307 332//280
f 8//8 274//222 359//307
f 277//225 360//308 219//167
f 33//33 278//226 360//308
f 278//226 12//12 267//215
f 361//309 273//221 21//21
f 276//224 361//309 275//223
f 33//33 277//225 361//309
f 272//220 362//310 274//222
f 21//21 273//221 362//310
f 273//221 56//56 218//166
f 363//311 223//171 55//55
f 26//26 270//218 363//311
f 5//5 271//219 363//311
f 364//312 265//213 41//41
f 12//12 268//216 364//312
f 268//216 26//26 269//217
f 220//168 365//313 266//214
f 265//213 365//313 220//168
f 265//213 55//55 222//170
f 366//314 227//175 54//54
f 46//46 233//181 366//314
f 19//19 264//212 366//314
f 262//210 367//315 260//208
f 11//11 257//205 367//315
f 257//205 46//46 263//211
f 259//207 368//316 261//209
f 260//208 368//316 259//207
f 260//208 54//54 226//174
f 369//317 258//206 78//78
f 329//277 369//317 328//276
f 53//53 256//204 369//317
f 255//203 370//318 257//205
f 256//204 370//318 255//203
f 256//204 53//53 230//178
f 326//274 371//319 327//275
f 76//76 253//201 371//319
f 253//201 52//52 251//199
f 372//320 252//200 19//19
f 251//199 372//320 232//180
f 52//52 234//182 372//320
f 249//197 373//321 237//185
f 49//49 240//188 373//321
f 240//188 20//20 250//198
f 374//322 246//194 29//29
f 245//193 374//322 248//196
f 245//193 49//49 249//197
f 204//152 375//323 247//195
f 246//194 375//323 204//152
f 246//194 51//51 236//184
f 376//324 245//193 15//15
f 77//77 323//271 376//324
f 73//73 314//262 376//324
f 377//325 239//187 28//28
f 237//185 377//325 236//184
f 237//185 48//48 238//186
f 234//182 378//326 235//183
f 52//52 311//259 378//326
f 311//259 77//77 312//260
f 379//327 233//181 46//46
f 53//53 231//179 379//327
f 231//179 45//45 232//180
f 380//328 229//177 24//24
f 227//175 380//328 226//174
f 227//175 44//44 228//176
f 381//329 225//173 43//43
f 55//55 223//171 381//329
f 36//36 224//172 381//329
f 382//330 221//169 42//42
f 56//56 219//167 382//330
f 41//41 220//168 382//330
f 383//331 217//165 40//40
f 215//163 383//331 214//162
f 215//163 34//34 216//164
f 210//158 384//332 213//161
f 211//159 384//332 210//158
f 38//38 212//160 384//332
f 307//255 385//333 308//256
f 206//154 385//333 307//255
f 27//27 207//155 385//333
f 202//150 386//334 205//153
f 61//61 203//151 386//334
f 29//29 204//152 386//334
f 198//146 387//335 201//149
f 199//147 387//335 198//146
f 199//147 23//23 200//148
